<svg width="25" height="25" viewBox="0 0 25 25" fill="none" xmlns="http://www.w3.org/2000/svg">
<g clip-path="url(#clip0_54_3260)">
<path d="M7.93164 0.0581665H4.93164C3.87077 0.0581665 2.85336 0.479594 2.10321 1.22974C1.35307 1.97988 0.931641 2.9973 0.931641 4.05817L0.931641 7.05817C0.931641 8.11903 1.35307 9.13645 2.10321 9.88659C2.85336 10.6367 3.87077 11.0582 4.93164 11.0582H7.93164C8.99251 11.0582 10.0099 10.6367 10.7601 9.88659C11.5102 9.13645 11.9316 8.11903 11.9316 7.05817V4.05817C11.9316 2.9973 11.5102 1.97988 10.7601 1.22974C10.0099 0.479594 8.99251 0.0581665 7.93164 0.0581665V0.0581665ZM9.93164 7.05817C9.93164 7.5886 9.72093 8.09731 9.34585 8.47238C8.97078 8.84745 8.46207 9.05817 7.93164 9.05817H4.93164C4.40121 9.05817 3.8925 8.84745 3.51743 8.47238C3.14235 8.09731 2.93164 7.5886 2.93164 7.05817V4.05817C2.93164 3.52773 3.14235 3.01903 3.51743 2.64395C3.8925 2.26888 4.40121 2.05817 4.93164 2.05817H7.93164C8.46207 2.05817 8.97078 2.26888 9.34585 2.64395C9.72093 3.01903 9.93164 3.52773 9.93164 4.05817V7.05817Z" fill="#323232"/>
<path d="M20.9314 0.0581665H17.9314C16.8705 0.0581665 15.8531 0.479594 15.103 1.22974C14.3528 1.97989 13.9314 2.9973 13.9314 4.05817V7.05817C13.9314 8.11904 14.3528 9.13645 15.103 9.8866C15.8531 10.6367 16.8705 11.0582 17.9314 11.0582H20.9314C21.9923 11.0582 23.0097 10.6367 23.7598 9.8866C24.51 9.13645 24.9314 8.11904 24.9314 7.05817V4.05817C24.9314 2.9973 24.51 1.97989 23.7598 1.22974C23.0097 0.479594 21.9923 0.0581665 20.9314 0.0581665V0.0581665ZM22.9314 7.05817C22.9314 7.5886 22.7207 8.09731 22.3456 8.47239C21.9705 8.84746 21.4618 9.05817 20.9314 9.05817H17.9314C17.401 9.05817 16.8923 8.84746 16.5172 8.47239C16.1421 8.09731 15.9314 7.5886 15.9314 7.05817V4.05817C15.9314 3.52774 16.1421 3.01903 16.5172 2.64395C16.8923 2.26888 17.401 2.05817 17.9314 2.05817H20.9314C21.4618 2.05817 21.9705 2.26888 22.3456 2.64395C22.7207 3.01903 22.9314 3.52774 22.9314 4.05817V7.05817Z" fill="#323232"/>
<path d="M7.93164 13.0582H4.93164C3.87077 13.0582 2.85336 13.4796 2.10321 14.2297C1.35307 14.9799 0.931641 15.9973 0.931641 17.0582L0.931641 20.0582C0.931641 21.119 1.35307 22.1365 2.10321 22.8866C2.85336 23.6368 3.87077 24.0582 4.93164 24.0582H7.93164C8.99251 24.0582 10.0099 23.6368 10.7601 22.8866C11.5102 22.1365 11.9316 21.119 11.9316 20.0582V17.0582C11.9316 15.9973 11.5102 14.9799 10.7601 14.2297C10.0099 13.4796 8.99251 13.0582 7.93164 13.0582ZM9.93164 20.0582C9.93164 20.5886 9.72093 21.0973 9.34585 21.4724C8.97078 21.8475 8.46207 22.0582 7.93164 22.0582H4.93164C4.40121 22.0582 3.8925 21.8475 3.51743 21.4724C3.14235 21.0973 2.93164 20.5886 2.93164 20.0582V17.0582C2.93164 16.5277 3.14235 16.019 3.51743 15.644C3.8925 15.2689 4.40121 15.0582 4.93164 15.0582H7.93164C8.46207 15.0582 8.97078 15.2689 9.34585 15.644C9.72093 16.019 9.93164 16.5277 9.93164 17.0582V20.0582Z" fill="#323232"/>
<path d="M20.9314 13.0582H17.9314C16.8705 13.0582 15.8531 13.4796 15.103 14.2297C14.3528 14.9799 13.9314 15.9973 13.9314 17.0582V20.0582C13.9314 21.119 14.3528 22.1365 15.103 22.8866C15.8531 23.6368 16.8705 24.0582 17.9314 24.0582H20.9314C21.9923 24.0582 23.0097 23.6368 23.7598 22.8866C24.51 22.1365 24.9314 21.119 24.9314 20.0582V17.0582C24.9314 15.9973 24.51 14.9799 23.7598 14.2297C23.0097 13.4796 21.9923 13.0582 20.9314 13.0582ZM22.9314 20.0582C22.9314 20.5886 22.7207 21.0973 22.3456 21.4724C21.9705 21.8475 21.4618 22.0582 20.9314 22.0582H17.9314C17.401 22.0582 16.8923 21.8475 16.5172 21.4724C16.1421 21.0973 15.9314 20.5886 15.9314 20.0582V17.0582C15.9314 16.5277 16.1421 16.019 16.5172 15.644C16.8923 15.2689 17.401 15.0582 17.9314 15.0582H20.9314C21.4618 15.0582 21.9705 15.2689 22.3456 15.644C22.7207 16.019 22.9314 16.5277 22.9314 17.0582V20.0582Z" fill="#323232"/>
</g>
<defs>
<clipPath id="clip0_54_3260">
<rect width="24" height="24" fill="white" transform="translate(0.931641 0.0581665)"/>
</clipPath>
</defs>
</svg>
