<svg width="181" height="52" viewBox="0 0 181 52" fill="none" xmlns="http://www.w3.org/2000/svg">
<path d="M179.977 46.003C179.977 48.7742 177.686 51.0189 174.852 51.0189H7.10973C4.2768 51.0189 1.97729 48.7742 1.97729 46.003V6.00349C1.97729 3.23366 4.2768 0.981125 7.10973 0.981125H174.85C177.686 0.981125 179.976 3.23366 179.976 6.00349L179.977 46.003Z" fill="white"/>
<path d="M174.311 1.04162C177.397 1.04162 179.909 3.4905 179.909 6.5V45.5C179.909 48.5095 177.397 50.9584 174.311 50.9584H7.64396C4.55729 50.9584 2.04563 48.5095 2.04563 45.5V6.5C2.04563 3.4905 4.55729 1.04162 7.64396 1.04162H174.311ZM174.311 2.74817e-06H7.64396C3.97896 2.74817e-06 0.977295 2.92663 0.977295 6.5V45.5C0.977295 49.0734 3.97896 52 7.64396 52H174.311C177.976 52 180.977 49.0734 180.977 45.5V6.5C180.977 2.92663 177.976 2.74817e-06 174.311 2.74817e-06Z" fill="#A6A6A6"/>
<path d="M41.148 25.7192C41.1093 21.5293 44.6667 19.4909 44.8293 19.396C42.8147 16.5321 39.692 16.1408 38.5947 16.1096C35.972 15.8405 33.428 17.6397 32.092 17.6397C30.7293 17.6397 28.672 16.1356 26.4547 16.1798C23.6013 16.2227 20.932 17.8334 19.468 20.3346C16.4467 25.4345 18.7 32.929 21.5947 37.0513C23.0427 39.0702 24.7347 41.3244 26.9493 41.2451C29.116 41.158 29.9253 39.8983 32.54 39.8983C35.1307 39.8983 35.8907 41.2451 38.1493 41.1944C40.4747 41.158 41.9387 39.1664 43.336 37.1293C45.0093 34.8153 45.6813 32.5364 45.708 32.4194C45.6533 32.4012 41.192 30.7411 41.148 25.7192Z" fill="#323232"/>
<path d="M36.8813 13.3978C38.0467 11.9769 38.844 10.0438 38.6227 8.08209C36.936 8.15489 34.8267 9.21959 33.612 10.6093C32.5373 11.8339 31.5773 13.8411 31.8253 15.7287C33.72 15.8665 35.6653 14.7966 36.8813 13.3978Z" fill="#323232"/>
<path d="M72.5039 40.9552H69.4759L67.8173 35.8735H62.0519L60.4719 40.9552H57.5239L63.2359 23.6548H66.7639L72.5039 40.9552ZM67.3173 33.7415L65.8173 29.224C65.6586 28.7625 65.3613 27.6757 64.9226 25.9649H64.8693C64.6946 26.7007 64.4133 27.7875 64.0266 29.224L62.5533 33.7415H67.3173Z" fill="#323232"/>
<path d="M87.1932 34.5644C87.1932 36.686 86.6052 38.363 85.4292 39.5941C84.3758 40.69 83.0678 41.2373 81.5065 41.2373C79.8212 41.2373 78.6105 40.6471 77.8732 39.4667H77.8198V46.0382H74.9772V32.5871C74.9772 31.2533 74.9412 29.8844 74.8718 28.4804H77.3718L77.5305 30.4577H77.5838C78.5318 28.9679 79.9705 28.2243 81.9012 28.2243C83.4105 28.2243 84.6705 28.8054 85.6785 29.9689C86.6892 31.1337 87.1932 32.6651 87.1932 34.5644ZM84.2972 34.6658C84.2972 33.4516 84.0172 32.4506 83.4545 31.6628C82.8398 30.8412 82.0145 30.4304 80.9798 30.4304C80.2785 30.4304 79.6412 30.6592 79.0718 31.1103C78.5012 31.5653 78.1278 32.1594 77.9532 32.8952C77.8652 33.2384 77.8212 33.5192 77.8212 33.7402V35.8202C77.8212 36.7276 78.1065 37.4933 78.6772 38.1186C79.2478 38.7439 79.9892 39.0559 80.9012 39.0559C81.9718 39.0559 82.8052 38.6529 83.4012 37.8495C83.9985 37.0448 84.2972 35.984 84.2972 34.6658Z" fill="#323232"/>
<path d="M101.909 34.5644C101.909 36.686 101.321 38.363 100.144 39.5941C99.092 40.69 97.784 41.2373 96.2227 41.2373C94.5374 41.2373 93.3267 40.6471 92.5907 39.4667H92.5374V46.0382H89.6947V32.5871C89.6947 31.2533 89.6587 29.8844 89.5894 28.4804H92.0894L92.248 30.4577H92.3014C93.248 28.9679 94.6867 28.2243 96.6187 28.2243C98.1267 28.2243 99.3867 28.8054 100.397 29.9689C101.404 31.1337 101.909 32.6651 101.909 34.5644ZM99.0134 34.6658C99.0134 33.4516 98.732 32.4506 98.1694 31.6628C97.5547 30.8412 96.732 30.4304 95.696 30.4304C94.9934 30.4304 94.3574 30.6592 93.7867 31.1103C93.216 31.5653 92.844 32.1594 92.6694 32.8952C92.5827 33.2384 92.5374 33.5192 92.5374 33.7402V35.8202C92.5374 36.7276 92.8227 37.4933 93.3907 38.1186C93.9614 38.7426 94.7027 39.0559 95.6174 39.0559C96.688 39.0559 97.5214 38.6529 98.1174 37.8495C98.7147 37.0448 99.0134 35.984 99.0134 34.6658Z" fill="#323232"/>
<path d="M118.362 36.1036C118.362 37.5752 117.838 38.7725 116.786 39.6968C115.63 40.7069 114.021 41.2113 111.953 41.2113C110.044 41.2113 108.513 40.8525 107.354 40.1336L108.013 37.8235C109.261 38.5593 110.63 38.9285 112.122 38.9285C113.193 38.9285 114.026 38.6919 114.625 38.2213C115.221 37.7507 115.518 37.1189 115.518 36.3311C115.518 35.6291 115.273 35.0376 114.781 34.5579C114.292 34.0782 113.474 33.6323 112.333 33.2202C109.226 32.0905 107.674 30.4356 107.674 28.2594C107.674 26.8372 108.218 25.6711 109.308 24.7637C110.393 23.855 111.841 23.4013 113.652 23.4013C115.266 23.4013 116.608 23.6756 117.678 24.2229L116.968 26.4823C115.968 25.9519 114.837 25.6867 113.572 25.6867C112.572 25.6867 111.79 25.9272 111.23 26.4056C110.757 26.8333 110.52 27.3546 110.52 27.9721C110.52 28.6559 110.79 29.2214 111.334 29.666C111.808 30.0768 112.668 30.5214 113.916 31.0011C115.442 31.6004 116.564 32.3011 117.285 33.1045C118.004 33.9053 118.362 34.9076 118.362 36.1036Z" fill="#323232"/>
<path d="M127.761 30.5604H124.628V36.6171C124.628 38.1576 125.18 38.9272 126.287 38.9272C126.795 38.9272 127.216 38.8843 127.549 38.7985L127.628 40.9032C127.068 41.1073 126.331 41.21 125.417 41.21C124.295 41.21 123.417 40.8759 122.784 40.209C122.153 39.5408 121.836 38.4202 121.836 36.8459V30.5578H119.969V28.4778H121.836V26.1937L124.628 25.3721V28.4778H127.761V30.5604Z" fill="#323232"/>
<path d="M141.899 34.6151C141.899 36.5326 141.336 38.1069 140.213 39.338C139.036 40.6055 137.473 41.2373 135.525 41.2373C133.648 41.2373 132.153 40.6302 131.039 39.416C129.924 38.2018 129.367 36.6691 129.367 34.8218C129.367 32.8887 129.94 31.3053 131.091 30.0742C132.239 28.8418 133.788 28.2256 135.736 28.2256C137.613 28.2256 139.124 28.8327 140.264 30.0482C141.355 31.2273 141.899 32.7496 141.899 34.6151ZM138.949 34.7048C138.949 33.5543 138.697 32.5676 138.187 31.7447C137.591 30.7489 136.739 30.2523 135.635 30.2523C134.492 30.2523 133.624 30.7502 133.028 31.7447C132.517 32.5689 132.265 33.5712 132.265 34.7568C132.265 35.9073 132.517 36.894 133.028 37.7156C133.643 38.7114 134.501 39.208 135.609 39.208C136.695 39.208 137.547 38.701 138.161 37.6896C138.685 36.8511 138.949 35.854 138.949 34.7048Z" fill="#323232"/>
<path d="M151.139 30.9179C150.857 30.8672 150.557 30.8412 150.243 30.8412C149.243 30.8412 148.469 31.2091 147.925 31.9462C147.452 32.5962 147.215 33.4178 147.215 34.4097V40.9552H144.373L144.4 32.409C144.4 30.9712 144.364 29.6621 144.293 28.4817H146.769L146.873 30.8685H146.952C147.252 30.0482 147.725 29.3878 148.373 28.8925C149.007 28.4466 149.691 28.2243 150.428 28.2243C150.691 28.2243 150.928 28.2425 151.139 28.275V30.9179Z" fill="#323232"/>
<path d="M163.852 34.1276C163.852 34.6242 163.819 35.0428 163.748 35.3847H155.22C155.253 36.6171 155.665 37.5596 156.457 38.2096C157.176 38.7907 158.105 39.0819 159.247 39.0819C160.509 39.0819 161.661 38.8856 162.697 38.4917L163.143 40.4157C161.932 40.9305 160.503 41.1866 158.853 41.1866C156.869 41.1866 155.312 40.6172 154.179 39.4797C153.048 38.3422 152.481 36.8147 152.481 34.8985C152.481 33.0174 153.008 31.4509 154.063 30.2016C155.167 28.8678 156.659 28.2009 158.536 28.2009C160.38 28.2009 161.776 28.8678 162.724 30.2016C163.475 31.2611 163.852 32.5715 163.852 34.1276ZM161.141 33.4087C161.16 32.5871 160.975 31.8773 160.589 31.278C160.097 30.5071 159.341 30.1223 158.324 30.1223C157.395 30.1223 156.639 30.498 156.061 31.252C155.588 31.8513 155.307 32.5702 155.22 33.4074H161.141V33.4087Z" fill="#323232"/>
<path d="M60.74 18V17.016H63.26C63.74 17.016 64.116 16.876 64.388 16.596C64.66 16.308 64.796 15.964 64.796 15.564C64.796 15.292 64.736 15.048 64.616 14.832C64.496 14.608 64.32 14.432 64.088 14.304C63.864 14.176 63.6 14.112 63.296 14.112H60.74V13.128H63.128C63.528 13.128 63.844 13.024 64.076 12.816C64.316 12.6 64.436 12.292 64.436 11.892C64.436 11.492 64.312 11.188 64.064 10.98C63.816 10.764 63.488 10.656 63.08 10.656H60.74V9.67198H63.104C63.648 9.67198 64.1 9.77198 64.46 9.97198C64.828 10.164 65.104 10.42 65.288 10.74C65.48 11.06 65.576 11.412 65.576 11.796C65.576 12.244 65.452 12.636 65.204 12.972C64.964 13.308 64.608 13.572 64.136 13.764L64.232 13.404C64.768 13.596 65.184 13.888 65.48 14.28C65.784 14.664 65.936 15.12 65.936 15.648C65.936 16.088 65.828 16.484 65.612 16.836C65.396 17.188 65.084 17.472 64.676 17.688C64.276 17.896 63.784 18 63.2 18H60.74ZM59.984 18V9.67198H61.112V18H59.984ZM69.6926 18.12C69.1726 18.12 68.7006 17.992 68.2766 17.736C67.8526 17.472 67.5166 17.116 67.2686 16.668C67.0286 16.22 66.9086 15.716 66.9086 15.156C66.9086 14.596 67.0286 14.092 67.2686 13.644C67.5166 13.196 67.8486 12.84 68.2646 12.576C68.6886 12.312 69.1646 12.18 69.6926 12.18C70.1246 12.18 70.5086 12.272 70.8446 12.456C71.1886 12.632 71.4646 12.88 71.6726 13.2C71.8806 13.512 71.9966 13.876 72.0206 14.292V16.008C71.9966 16.416 71.8806 16.78 71.6726 17.1C71.4726 17.42 71.2006 17.672 70.8566 17.856C70.5206 18.032 70.1326 18.12 69.6926 18.12ZM69.8726 17.1C70.4086 17.1 70.8406 16.92 71.1686 16.56C71.4966 16.192 71.6606 15.724 71.6606 15.156C71.6606 14.764 71.5846 14.424 71.4326 14.136C71.2886 13.84 71.0806 13.612 70.8086 13.452C70.5366 13.284 70.2206 13.2 69.8606 13.2C69.5006 13.2 69.1806 13.284 68.9006 13.452C68.6286 13.62 68.4126 13.852 68.2526 14.148C68.1006 14.436 68.0246 14.768 68.0246 15.144C68.0246 15.528 68.1006 15.868 68.2526 16.164C68.4126 16.452 68.6326 16.68 68.9126 16.848C69.1926 17.016 69.5126 17.1 69.8726 17.1ZM71.5886 18V16.464L71.7926 15.072L71.5886 13.692V12.3H72.6806V18H71.5886ZM74.2649 18V12.3H75.3449V18H74.2649ZM74.8049 11.16C74.6049 11.16 74.4409 11.096 74.3129 10.968C74.1849 10.832 74.1209 10.664 74.1209 10.464C74.1209 10.272 74.1849 10.112 74.3129 9.98398C74.4409 9.84798 74.6049 9.77998 74.8049 9.77998C75.0049 9.77998 75.1689 9.84798 75.2969 9.98398C75.4249 10.112 75.4889 10.272 75.4889 10.464C75.4889 10.664 75.4249 10.832 75.2969 10.968C75.1689 11.096 75.0049 11.16 74.8049 11.16ZM80.6805 18L78.9045 15.504L78.7005 15.312L76.4565 12.3H77.7645L79.3845 14.52L79.5885 14.688L81.9885 18H80.6805ZM76.3485 18L78.7005 14.832L79.3125 15.624L77.6205 18H76.3485ZM79.6725 15.3L79.0485 14.532L80.6205 12.3H81.8805L79.6725 15.3ZM85.4476 18.12C84.8796 18.12 84.3676 17.992 83.9116 17.736C83.4556 17.472 83.0956 17.116 82.8316 16.668C82.5676 16.22 82.4356 15.712 82.4356 15.144C82.4356 14.584 82.5636 14.08 82.8196 13.632C83.0836 13.184 83.4356 12.832 83.8756 12.576C84.3236 12.312 84.8236 12.18 85.3756 12.18C85.9036 12.18 86.3676 12.3 86.7676 12.54C87.1756 12.78 87.4916 13.112 87.7156 13.536C87.9476 13.96 88.0636 14.44 88.0636 14.976C88.0636 15.056 88.0596 15.144 88.0516 15.24C88.0436 15.328 88.0276 15.432 88.0036 15.552H83.1916V14.652H87.4276L87.0316 15C87.0316 14.616 86.9636 14.292 86.8276 14.028C86.6916 13.756 86.4996 13.548 86.2516 13.404C86.0036 13.252 85.7036 13.176 85.3516 13.176C84.9836 13.176 84.6596 13.256 84.3796 13.416C84.0996 13.576 83.8836 13.8 83.7316 14.088C83.5796 14.376 83.5036 14.716 83.5036 15.108C83.5036 15.508 83.5836 15.86 83.7436 16.164C83.9036 16.46 84.1316 16.692 84.4276 16.86C84.7236 17.02 85.0636 17.1 85.4476 17.1C85.7676 17.1 86.0596 17.044 86.3236 16.932C86.5956 16.82 86.8276 16.652 87.0196 16.428L87.7156 17.136C87.4436 17.456 87.1076 17.7 86.7076 17.868C86.3156 18.036 85.8956 18.12 85.4476 18.12ZM95.7693 18V14.676C95.7693 14.244 95.6333 13.888 95.3613 13.608C95.0893 13.328 94.7373 13.188 94.3053 13.188C94.0173 13.188 93.7613 13.252 93.5373 13.38C93.3133 13.508 93.1373 13.684 93.0093 13.908C92.8813 14.132 92.8173 14.388 92.8173 14.676L92.3733 14.424C92.3733 13.992 92.4693 13.608 92.6613 13.272C92.8533 12.936 93.1213 12.672 93.4653 12.48C93.8093 12.28 94.1973 12.18 94.6293 12.18C95.0613 12.18 95.4413 12.288 95.7693 12.504C96.1053 12.72 96.3693 13.004 96.5613 13.356C96.7533 13.7 96.8493 14.068 96.8493 14.46V18H95.7693ZM91.7373 18V12.3H92.8173V18H91.7373ZM100.736 18.12C100.216 18.12 99.7435 17.992 99.3195 17.736C98.8955 17.472 98.5595 17.116 98.3115 16.668C98.0715 16.22 97.9515 15.716 97.9515 15.156C97.9515 14.596 98.0715 14.092 98.3115 13.644C98.5595 13.196 98.8915 12.84 99.3075 12.576C99.7315 12.312 100.208 12.18 100.736 12.18C101.168 12.18 101.552 12.272 101.888 12.456C102.232 12.632 102.508 12.88 102.716 13.2C102.924 13.512 103.04 13.876 103.064 14.292V16.008C103.04 16.416 102.924 16.78 102.716 17.1C102.516 17.42 102.244 17.672 101.9 17.856C101.564 18.032 101.176 18.12 100.736 18.12ZM100.916 17.1C101.452 17.1 101.884 16.92 102.212 16.56C102.54 16.192 102.704 15.724 102.704 15.156C102.704 14.764 102.628 14.424 102.476 14.136C102.332 13.84 102.124 13.612 101.852 13.452C101.58 13.284 101.264 13.2 100.904 13.2C100.544 13.2 100.224 13.284 99.9435 13.452C99.6715 13.62 99.4555 13.852 99.2955 14.148C99.1435 14.436 99.0675 14.768 99.0675 15.144C99.0675 15.528 99.1435 15.868 99.2955 16.164C99.4555 16.452 99.6755 16.68 99.9555 16.848C100.236 17.016 100.556 17.1 100.916 17.1ZM102.632 18V16.464L102.836 15.072L102.632 13.692V12.3H103.724V18H102.632Z" fill="black"/>
</svg>
