<svg width="16" height="16" viewBox="0 0 16 16" fill="none" xmlns="http://www.w3.org/2000/svg">
<g clip-path="url(#clip0_54_3045)">
<path d="M14.0001 13.6667C14.0001 14.2187 13.5521 14.6667 13.0001 14.6667C12.4481 14.6667 12.0001 14.2187 12.0001 13.6667C12.0001 13.1147 12.4481 12.6667 13.0001 12.6667C13.5521 12.6667 14.0001 13.1147 14.0001 13.6667ZM1.00007 2C0.448067 2 6.68347e-05 2.448 6.68347e-05 3C6.68347e-05 3.552 0.448067 4 1.00007 4C1.55207 4 2.00007 3.552 2.00007 3C2.00007 2.448 1.55207 2 1.00007 2ZM4.3334 0C3.7814 0 3.3334 0.448 3.3334 1C3.3334 1.552 3.7814 2 4.3334 2C4.8854 2 5.3334 1.552 5.3334 1C5.3334 0.448 4.8854 0 4.3334 0ZM5.72007 6.204L5.96007 5.96C9.45807 2.46267 12.8974 1.44 13.7294 2.27067C14.0254 2.56667 14.0261 3.12667 13.9747 3.54333C13.9067 4.09133 14.2961 4.59067 14.8447 4.65867C15.3921 4.728 15.8921 4.33733 15.9601 3.78933C16.1527 2.232 15.6227 1.33467 15.1441 0.856667C13.1747 -1.114 8.61873 0.474 4.54673 4.546C4.45673 4.636 4.3674 4.72667 4.28007 4.81733C3.89673 5.21533 3.90873 5.848 4.3074 6.23133C4.5014 6.41733 4.7514 6.51067 5.00073 6.51067C5.2634 6.51067 5.52473 6.408 5.7214 6.204H5.72007ZM8.56873 13.8767C9.0234 13.5627 9.13673 12.94 8.82273 12.486C8.50873 12.0313 7.88607 11.9167 7.4314 12.232C4.87407 13.9993 2.86273 14.3233 2.27073 13.7293C2.14407 13.6027 2.06273 13.4213 2.02407 13.1767C1.93807 12.632 1.4274 12.256 0.880733 12.3453C0.3354 12.4313 -0.0372665 12.9433 0.0487335 13.4893C0.154067 14.1567 0.4254 14.7133 0.856067 15.1433C1.4254 15.7127 2.21073 15.9913 3.14807 15.9913C4.6534 15.9913 6.55007 15.2713 8.56807 13.876L8.56873 13.8767ZM15.3334 5.99867C15.6134 5.99867 15.8641 6.174 15.9601 6.43667C16.0561 6.69933 15.9774 6.99467 15.7634 7.17467L14.1867 8.45933L14.8387 10.446C14.9281 10.7147 14.8374 11.0107 14.6127 11.184C14.3874 11.3567 14.0787 11.3687 13.8421 11.2147L12.0067 10.0193L10.2014 11.228C10.0887 11.3033 9.9594 11.3407 9.83007 11.3407C9.6894 11.3407 9.54807 11.2967 9.43007 11.208C9.2034 11.0387 9.10873 10.744 9.19407 10.4747L9.82073 8.46467L8.23607 7.17533C8.02273 6.99467 7.94473 6.7 8.0414 6.43733C8.13807 6.17533 8.38807 6.00067 8.6674 6.00067H10.6667L11.3747 4.09933C11.4721 3.83867 11.7214 3.66533 11.9994 3.66533C12.2774 3.66533 12.5267 3.838 12.6241 4.09933L13.3321 6.00067H15.3321L15.3334 5.99867ZM4.94873 8.49133L3.68273 8.02467L3.1994 6.742C3.10073 6.44733 2.78207 6.288 2.4874 6.38667C2.32007 6.44267 2.18807 6.574 2.13207 6.742L1.65407 8.01267L0.384067 8.49133C0.0894001 8.59 -0.0699332 8.90867 0.0287335 9.20333C0.0847335 9.37067 0.216067 9.50267 0.384067 9.55867L1.66607 10.0413L2.13207 11.3067C2.18807 11.474 2.3194 11.606 2.4874 11.662C2.78207 11.7607 3.10073 11.6013 3.1994 11.3067L3.67073 10.0293L4.9494 9.55867C5.11673 9.50267 5.24873 9.37133 5.30473 9.20333C5.4034 8.90867 5.2434 8.59 4.94873 8.49133Z" fill="#EB7100"/>
</g>
<defs>
<clipPath id="clip0_54_3045">
<rect width="16" height="16" fill="white"/>
</clipPath>
</defs>
</svg>
