<svg width="24" height="25" viewBox="0 0 24 25" fill="none" xmlns="http://www.w3.org/2000/svg">
<g clip-path="url(#clip0_54_2974)">
<path d="M18.5 5.5H17V5C17 4.07174 16.6313 3.1815 15.9749 2.52513C15.3185 1.86875 14.4283 1.5 13.5 1.5H3.5C2.57174 1.5 1.6815 1.86875 1.02513 2.52513C0.368749 3.1815 0 4.07174 0 5L0 20.5H3.058C3.02137 20.6642 3.00193 20.8318 3 21C3 21.663 3.26339 22.2989 3.73223 22.7678C4.20107 23.2366 4.83696 23.5 5.5 23.5C6.16304 23.5 6.79893 23.2366 7.26777 22.7678C7.73661 22.2989 8 21.663 8 21C7.99807 20.8318 7.97863 20.6642 7.942 20.5H16.058C16.0214 20.6642 16.0019 20.8318 16 21C16 21.663 16.2634 22.2989 16.7322 22.7678C17.2011 23.2366 17.837 23.5 18.5 23.5C19.163 23.5 19.7989 23.2366 20.2678 22.7678C20.7366 22.2989 21 21.663 21 21C20.9981 20.8318 20.9786 20.6642 20.942 20.5H24V11C23.9981 9.54188 23.4181 8.14401 22.387 7.11296C21.356 6.08191 19.9581 5.50185 18.5 5.5ZM14 17.5H3V5C3 4.86739 3.05268 4.74021 3.14645 4.64645C3.24021 4.55268 3.36739 4.5 3.5 4.5H13.5C13.6326 4.5 13.7598 4.55268 13.8536 4.64645C13.9473 4.74021 14 4.86739 14 5V17.5ZM18.5 8.5C19.163 8.5 19.7989 8.76339 20.2678 9.23223C20.7366 9.70107 21 10.337 21 11V13.5H17V8.5H18.5Z" fill="#4D47C3"/>
</g>
<defs>
<clipPath id="clip0_54_2974">
<rect width="24" height="24" fill="white" transform="translate(0 0.5)"/>
</clipPath>
</defs>
</svg>
