<svg width="24" height="25" viewBox="0 0 24 25" fill="none" xmlns="http://www.w3.org/2000/svg">
<g clip-path="url(#clip0_54_2965)">
<path d="M6.5 16.5C7.32843 16.5 8 15.8284 8 15C8 14.1716 7.32843 13.5 6.5 13.5C5.67157 13.5 5 14.1716 5 15C5 15.8284 5.67157 16.5 6.5 16.5Z" fill="#4D47C3"/>
<path d="M18.5 3.5H5.5C4.0418 3.50159 2.64377 4.08156 1.61267 5.11267C0.581561 6.14377 0.00158817 7.5418 0 9L0 16C0.00158817 17.4582 0.581561 18.8562 1.61267 19.8873C2.64377 20.9184 4.0418 21.4984 5.5 21.5H18.5C19.9582 21.4984 21.3562 20.9184 22.3873 19.8873C23.4184 18.8562 23.9984 17.4582 24 16V9C23.9984 7.5418 23.4184 6.14377 22.3873 5.11267C21.3562 4.08156 19.9582 3.50159 18.5 3.5ZM5.5 6.5H18.5C19.0762 6.50011 19.6346 6.69923 20.0808 7.06366C20.5271 7.4281 20.8338 7.93549 20.949 8.5H3.051C3.16623 7.93549 3.47291 7.4281 3.91916 7.06366C4.36541 6.69923 4.92385 6.50011 5.5 6.5ZM18.5 18.5H5.5C4.83696 18.5 4.20107 18.2366 3.73223 17.7678C3.26339 17.2989 3 16.663 3 16V11.5H21V16C21 16.663 20.7366 17.2989 20.2678 17.7678C19.7989 18.2366 19.163 18.5 18.5 18.5Z" fill="#4D47C3"/>
</g>
<defs>
<clipPath id="clip0_54_2965">
<rect width="24" height="24" fill="white" transform="translate(0 0.5)"/>
</clipPath>
</defs>
</svg>
