<svg width="24" height="24" viewBox="0 0 24 24" fill="none" xmlns="http://www.w3.org/2000/svg">
<rect width="20" height="20" transform="translate(2 2)" fill="white" fill-opacity="0.01"/>
<rect x="1" y="1" width="22" height="22" rx="2" fill="#9486FF" stroke="#4D47C3" stroke-width="2"/>
<path fill-rule="evenodd" clip-rule="evenodd" d="M8.57103 11.4473C8.43309 11.3045 8.26808 11.1906 8.08563 11.1122C7.90319 11.0338 7.70696 10.9926 7.5084 10.9909C7.30984 10.9891 7.11293 11.027 6.92915 11.1022C6.74537 11.1774 6.5784 11.2884 6.43799 11.4288C6.29759 11.5692 6.18655 11.7362 6.11136 11.92C6.03617 12.1037 5.99833 12.3007 6.00006 12.4992C6.00178 12.6978 6.04303 12.894 6.12141 13.0764C6.19978 13.2589 6.3137 13.4239 6.45653 13.5618L9.44734 16.5527C9.72777 16.833 10.1081 16.9905 10.5046 16.9905C10.9011 16.9905 11.2814 16.833 11.5618 16.5527L17.5435 10.571C17.6863 10.4331 17.8002 10.2681 17.8786 10.0856C17.957 9.90319 17.9982 9.70696 17.9999 9.5084C18.0017 9.30984 17.9638 9.11293 17.8886 8.92915C17.8135 8.74537 17.7024 8.5784 17.562 8.438C17.4216 8.29759 17.2546 8.18655 17.0709 8.11136C16.8871 8.03617 16.6902 7.99833 16.4916 8.00006C16.293 8.00178 16.0968 8.04303 15.9144 8.12141C15.7319 8.19978 15.5669 8.3137 15.429 8.45653L10.5046 13.3809L8.57103 11.4473V11.4473Z" fill="white"/>
</svg>
