<svg width="25" height="25" viewBox="0 0 25 25" fill="none" xmlns="http://www.w3.org/2000/svg">
<g clip-path="url(#clip0_54_3270)">
<path d="M13.9317 2.08011V1.02911C13.9317 0.763897 13.8263 0.509543 13.6388 0.322007C13.4513 0.134471 13.1969 0.0291138 12.9317 0.0291138C12.6665 0.0291138 12.4121 0.134471 12.2246 0.322007C12.0371 0.509543 11.9317 0.763897 11.9317 1.02911V2.08011C9.91846 2.2606 7.99412 2.99332 6.37068 4.19753C4.74724 5.40175 3.48772 7.03073 2.73088 8.90499C1.97404 10.7793 1.74925 12.8261 2.08129 14.8199C2.41333 16.8138 3.2893 18.6773 4.61269 20.2051C4.09006 20.4637 3.65333 20.8678 3.35508 21.3688C3.05684 21.8699 2.9098 22.4464 2.93169 23.0291C2.93169 23.2943 3.03705 23.5487 3.22459 23.7362C3.41212 23.9238 3.66648 24.0291 3.93169 24.0291C4.19691 24.0291 4.45126 23.9238 4.6388 23.7362C4.82634 23.5487 4.93169 23.2943 4.93169 23.0291C4.92338 22.7209 5.03404 22.4213 5.24071 22.1925C5.44738 21.9636 5.73421 21.8231 6.04169 21.8001C6.11048 21.787 6.17757 21.7662 6.24169 21.7381C8.15723 23.2238 10.5125 24.0302 12.9367 24.0302C15.3609 24.0302 17.7162 23.2238 19.6317 21.7381C19.6902 21.7651 19.7512 21.7865 19.8137 21.8021C20.1223 21.8232 20.4108 21.9625 20.6191 22.1911C20.8274 22.4197 20.9394 22.7199 20.9317 23.0291C20.9317 23.2943 21.0371 23.5487 21.2246 23.7362C21.4121 23.9238 21.6665 24.0291 21.9317 24.0291C22.1969 24.0291 22.4513 23.9238 22.6388 23.7362C22.8263 23.5487 22.9317 23.2943 22.9317 23.0291C22.9536 22.4464 22.8066 21.8699 22.5083 21.3688C22.2101 20.8678 21.7733 20.4637 21.2507 20.2051C22.5741 18.6773 23.4501 16.8138 23.7821 14.8199C24.1141 12.8261 23.8894 10.7793 23.1325 8.90499C22.3757 7.03073 21.1161 5.40175 19.4927 4.19753C17.8693 2.99332 15.9449 2.2606 13.9317 2.08011ZM3.93169 13.0291C3.93169 11.2491 4.45954 9.50903 5.44847 8.02898C6.4374 6.54894 7.84301 5.39539 9.48754 4.7142C11.1321 4.03301 12.9417 3.85478 14.6875 4.20205C16.4333 4.54931 18.037 5.40648 19.2957 6.66515C20.5543 7.92383 21.4115 9.52747 21.7588 11.2733C22.106 13.0191 21.9278 14.8287 21.2466 16.4733C20.5654 18.1178 19.4119 19.5234 17.9318 20.5123C16.4518 21.5013 14.7117 22.0291 12.9317 22.0291C10.5456 22.0262 8.25815 21.0771 6.57095 19.3899C4.88375 17.7027 3.93461 15.4152 3.93169 13.0291Z" fill="#323232"/>
<path d="M20.1465 0.029092C19.8813 0.029092 19.6269 0.134449 19.4394 0.321985C19.2518 0.509522 19.1465 0.763876 19.1465 1.02909C19.1465 1.29431 19.2518 1.54866 19.4394 1.7362C19.6269 1.92374 19.8813 2.02909 20.1465 2.02909C20.4952 2.00258 20.8457 2.04697 21.1767 2.15957C21.5078 2.27218 21.8127 2.45066 22.0729 2.68427C22.3332 2.91788 22.5434 3.20178 22.691 3.51884C22.8385 3.8359 22.9203 4.17956 22.9315 4.52909C22.9315 4.79431 23.0368 5.04866 23.2244 5.2362C23.4119 5.42373 23.6663 5.52909 23.9315 5.52909C24.1967 5.52909 24.4511 5.42373 24.6386 5.2362C24.8261 5.04866 24.9315 4.79431 24.9315 4.52909C24.9187 3.91759 24.7841 3.31477 24.5355 2.75592C24.2869 2.19707 23.9294 1.6934 23.4839 1.27438C23.0383 0.855355 22.5136 0.529399 21.9406 0.315576C21.3676 0.101754 20.7576 0.00435965 20.1465 0.029092Z" fill="#323232"/>
<path d="M2.93164 4.52909C2.94279 4.17956 3.0246 3.8359 3.17216 3.51884C3.31971 3.20178 3.52995 2.91788 3.79019 2.68427C4.05043 2.45066 4.35529 2.27218 4.68638 2.15957C5.01747 2.04697 5.36793 2.00258 5.71664 2.02909C5.98186 2.02909 6.23621 1.92374 6.42375 1.7362C6.61128 1.54866 6.71664 1.29431 6.71664 1.02909C6.71664 0.763876 6.61128 0.509522 6.42375 0.321985C6.23621 0.134449 5.98186 0.029092 5.71664 0.029092C5.1055 0.00435965 4.49557 0.101754 3.92252 0.315576C3.34948 0.529399 2.82483 0.855355 2.37927 1.27438C1.93371 1.6934 1.57619 2.19707 1.32762 2.75592C1.07906 3.31477 0.944437 3.91759 0.931641 4.52909C0.931641 4.79431 1.037 5.04866 1.22453 5.2362C1.41207 5.42373 1.66642 5.52909 1.93164 5.52909C2.19686 5.52909 2.45121 5.42373 2.63875 5.2362C2.82628 5.04866 2.93164 4.79431 2.93164 4.52909Z" fill="#323232"/>
<path d="M13.9319 11.6151V7.02911C13.9319 6.7639 13.8265 6.50954 13.639 6.32201C13.4515 6.13447 13.1971 6.02911 12.9319 6.02911C12.6667 6.02911 12.4123 6.13447 12.2248 6.32201C12.0372 6.50954 11.9319 6.7639 11.9319 7.02911V12.0291C11.9319 12.2943 12.0373 12.5486 12.2249 12.7361L15.2249 15.7361C15.4135 15.9183 15.6661 16.0191 15.9283 16.0168C16.1905 16.0145 16.4413 15.9093 16.6267 15.7239C16.8121 15.5385 16.9173 15.2877 16.9196 15.0255C16.9218 14.7633 16.821 14.5107 16.6389 14.3221L13.9319 11.6151Z" fill="#323232"/>
</g>
<defs>
<clipPath id="clip0_54_3270">
<rect width="24" height="24" fill="white" transform="translate(0.931641 0.0291138)"/>
</clipPath>
</defs>
</svg>
