<svg width="25" height="25" viewBox="0 0 25 25" fill="none" xmlns="http://www.w3.org/2000/svg">
<g clip-path="url(#clip0_54_3265)">
<path d="M5.93139 14.0872C6.48368 14.0872 6.93139 13.6395 6.93139 13.0872C6.93139 12.5349 6.48368 12.0872 5.93139 12.0872C5.37911 12.0872 4.9314 12.5349 4.9314 13.0872C4.9314 13.6395 5.37911 14.0872 5.93139 14.0872Z" fill="#323232"/>
<path d="M1.93164 10.0874C2.48393 10.0874 2.93164 9.63965 2.93164 9.08737C2.93164 8.53509 2.48393 8.08737 1.93164 8.08737C1.37936 8.08737 0.931641 8.53509 0.931641 9.08737C0.931641 9.63965 1.37936 10.0874 1.93164 10.0874Z" fill="#323232"/>
<path d="M5.93139 6.08706C6.48368 6.08706 6.93139 5.63935 6.93139 5.08706C6.93139 4.53478 6.48368 4.08707 5.93139 4.08707C5.37911 4.08707 4.9314 4.53478 4.9314 5.08706C4.9314 5.63935 5.37911 6.08706 5.93139 6.08706Z" fill="#323232"/>
<path d="M1.93164 2.08722C2.48393 2.08722 2.93164 1.6395 2.93164 1.08722C2.93164 0.534934 2.48393 0.0872192 1.93164 0.0872192C1.37936 0.0872192 0.931641 0.534934 0.931641 1.08722C0.931641 1.6395 1.37936 2.08722 1.93164 2.08722Z" fill="#323232"/>
<path d="M23.9314 14.0872C24.4837 14.0872 24.9314 13.6395 24.9314 13.0872C24.9314 12.5349 24.4837 12.0872 23.9314 12.0872C23.3791 12.0872 22.9314 12.5349 22.9314 13.0872C22.9314 13.6395 23.3791 14.0872 23.9314 14.0872Z" fill="#323232"/>
<path d="M19.9316 10.0874C20.4839 10.0874 20.9317 9.63965 20.9317 9.08737C20.9317 8.53509 20.4839 8.08737 19.9316 8.08737C19.3794 8.08737 18.9316 8.53509 18.9316 9.08737C18.9316 9.63965 19.3794 10.0874 19.9316 10.0874Z" fill="#323232"/>
<path d="M23.9314 6.08706C24.4837 6.08706 24.9314 5.63935 24.9314 5.08706C24.9314 4.53478 24.4837 4.08707 23.9314 4.08707C23.3791 4.08707 22.9314 4.53478 22.9314 5.08706C22.9314 5.63935 23.3791 6.08706 23.9314 6.08706Z" fill="#323232"/>
<path d="M19.9316 2.08722C20.4839 2.08722 20.9317 1.6395 20.9317 1.08722C20.9317 0.534934 20.4839 0.0872192 19.9316 0.0872192C19.3794 0.0872192 18.9316 0.534934 18.9316 1.08722C18.9316 1.6395 19.3794 2.08722 19.9316 2.08722Z" fill="#323232"/>
<path d="M14.9314 24.087C15.4837 24.087 15.9314 23.6393 15.9314 23.0871C15.9314 22.5348 15.4837 22.0871 14.9314 22.0871C14.3791 22.0871 13.9314 22.5348 13.9314 23.0871C13.9314 23.6393 14.3791 24.087 14.9314 24.087Z" fill="#323232"/>
<path d="M10.9316 20.0872C11.4839 20.0872 11.9316 19.6395 11.9316 19.0872C11.9316 18.5349 11.4839 18.0872 10.9316 18.0872C10.3794 18.0872 9.93164 18.5349 9.93164 19.0872C9.93164 19.6395 10.3794 20.0872 10.9316 20.0872Z" fill="#323232"/>
<path d="M14.9314 16.0874C15.4837 16.0874 15.9314 15.6397 15.9314 15.0874C15.9314 14.5351 15.4837 14.0874 14.9314 14.0874C14.3791 14.0874 13.9314 14.5351 13.9314 15.0874C13.9314 15.6397 14.3791 16.0874 14.9314 16.0874Z" fill="#323232"/>
<path d="M10.9316 12.0871C11.4839 12.0871 11.9316 11.6394 11.9316 11.0871C11.9316 10.5348 11.4839 10.0871 10.9316 10.0871C10.3794 10.0871 9.93164 10.5348 9.93164 11.0871C9.93164 11.6394 10.3794 12.0871 10.9316 12.0871Z" fill="#323232"/>
<path d="M15.9319 3.08722C15.4014 3.08722 14.8927 2.87651 14.5177 2.50143C14.1426 2.12636 13.9319 1.61765 13.9319 1.08722C13.9319 0.822003 13.8265 0.567649 13.639 0.380112C13.4514 0.192576 13.1971 0.0872192 12.9319 0.0872192C12.6667 0.0872192 12.4123 0.192576 12.2248 0.380112C12.0372 0.567649 11.9319 0.822003 11.9319 1.08722C11.9319 1.61765 11.7212 2.12636 11.3461 2.50143C10.971 2.87651 10.4623 3.08722 9.93188 3.08722C9.66667 3.08722 9.41231 3.19258 9.22478 3.38011C9.03724 3.56765 8.93188 3.822 8.93188 4.08722C8.93188 4.35244 9.03724 4.60679 9.22478 4.79433C9.41231 4.98186 9.66667 5.08722 9.93188 5.08722C10.4623 5.08722 10.971 5.29793 11.3461 5.67301C11.7212 6.04808 11.9319 6.55679 11.9319 7.08722C11.9319 7.35244 12.0372 7.60679 12.2248 7.79433C12.4123 7.98186 12.6667 8.08722 12.9319 8.08722C13.1971 8.08722 13.4514 7.98186 13.639 7.79433C13.8265 7.60679 13.9319 7.35244 13.9319 7.08722C13.9319 6.55679 14.1426 6.04808 14.5177 5.67301C14.8927 5.29793 15.4014 5.08722 15.9319 5.08722C16.1971 5.08722 16.4514 4.98186 16.639 4.79433C16.8265 4.60679 16.9319 4.35244 16.9319 4.08722C16.9319 3.822 16.8265 3.56765 16.639 3.38011C16.4514 3.19258 16.1971 3.08722 15.9319 3.08722Z" fill="#323232"/>
<path d="M7.93164 19.0871C7.40121 19.0871 6.8925 18.8763 6.51743 18.5013C6.14235 18.1262 5.93164 17.6175 5.93164 17.0871C5.93164 16.8218 5.82628 16.5675 5.63875 16.38C5.45121 16.1924 5.19686 16.0871 4.93164 16.0871C4.66642 16.0871 4.41207 16.1924 4.22453 16.38C4.037 16.5675 3.93164 16.8218 3.93164 17.0871C3.93164 17.6175 3.72093 18.1262 3.34585 18.5013C2.97078 18.8763 2.46207 19.0871 1.93164 19.0871C1.66642 19.0871 1.41207 19.1924 1.22453 19.38C1.037 19.5675 0.931641 19.8218 0.931641 20.0871C0.931641 20.3523 1.037 20.6066 1.22453 20.7942C1.41207 20.9817 1.66642 21.0871 1.93164 21.0871C2.46207 21.0871 2.97078 21.2978 3.34585 21.6728C3.72093 22.0479 3.93164 22.5566 3.93164 23.0871C3.93164 23.3523 4.037 23.6066 4.22453 23.7942C4.41207 23.9817 4.66642 24.0871 4.93164 24.0871C5.19686 24.0871 5.45121 23.9817 5.63875 23.7942C5.82628 23.6066 5.93164 23.3523 5.93164 23.0871C5.93164 22.5566 6.14235 22.0479 6.51743 21.6728C6.8925 21.2978 7.40121 21.0871 7.93164 21.0871C8.19686 21.0871 8.45121 20.9817 8.63875 20.7942C8.82628 20.6066 8.93164 20.3523 8.93164 20.0871C8.93164 19.8218 8.82628 19.5675 8.63875 19.38C8.45121 19.1924 8.19686 19.0871 7.93164 19.0871Z" fill="#323232"/>
<path d="M23.9314 19.0871C23.401 19.0871 22.8922 18.8763 22.5172 18.5013C22.1421 18.1262 21.9314 17.6175 21.9314 17.0871C21.9314 16.8218 21.826 16.5675 21.6385 16.38C21.451 16.1924 21.1966 16.0871 20.9314 16.0871C20.6662 16.0871 20.4118 16.1924 20.2243 16.38C20.0367 16.5675 19.9314 16.8218 19.9314 17.0871C19.9314 17.6175 19.7207 18.1262 19.3456 18.5013C18.9705 18.8763 18.4618 19.0871 17.9314 19.0871C17.6662 19.0871 17.4118 19.1924 17.2243 19.38C17.0368 19.5675 16.9314 19.8218 16.9314 20.0871C16.9314 20.3523 17.0368 20.6066 17.2243 20.7942C17.4118 20.9817 17.6662 21.0871 17.9314 21.0871C18.4618 21.0871 18.9705 21.2978 19.3456 21.6728C19.7207 22.0479 19.9314 22.5566 19.9314 23.0871C19.9314 23.3523 20.0367 23.6066 20.2243 23.7942C20.4118 23.9817 20.6662 24.0871 20.9314 24.0871C21.1966 24.0871 21.451 23.9817 21.6385 23.7942C21.826 23.6066 21.9314 23.3523 21.9314 23.0871C21.9314 22.5566 22.1421 22.0479 22.5172 21.6728C22.8922 21.2978 23.401 21.0871 23.9314 21.0871C24.1966 21.0871 24.451 20.9817 24.6385 20.7942C24.826 20.6066 24.9314 20.3523 24.9314 20.0871C24.9314 19.8218 24.826 19.5675 24.6385 19.38C24.451 19.1924 24.1966 19.0871 23.9314 19.0871Z" fill="#323232"/>
</g>
<defs>
<clipPath id="clip0_54_3265">
<rect width="24" height="24" fill="white" transform="translate(0.931641 0.0872192)"/>
</clipPath>
</defs>
</svg>
