<svg width="32" height="32" viewBox="0 0 32 32" fill="none" xmlns="http://www.w3.org/2000/svg">
<g clip-path="url(#clip0_54_2924)">
<path d="M22.9999 2.46753C21.6323 2.48076 20.2868 2.81412 19.0712 3.44089C17.8557 4.06766 16.8038 4.97043 15.9999 6.07686C15.196 4.97043 14.1441 4.06766 12.9285 3.44089C11.7129 2.81412 10.3675 2.48076 8.99986 2.46753C6.52222 2.56647 4.18456 3.64243 2.49802 5.46015C0.811482 7.27786 -0.0867023 9.68943 -0.000135145 12.1675C-0.000135145 18.2369 6.23187 24.7342 11.4665 29.1169C12.7376 30.1857 14.3451 30.7717 16.0059 30.7717C17.6666 30.7717 19.2741 30.1857 20.5452 29.1169C25.7745 24.7342 32.0119 18.2369 32.0119 12.1675C32.0984 9.68743 31.1986 7.27411 29.5095 5.45605C27.8204 3.638 25.4796 2.56338 22.9999 2.46753ZM17.9692 26.0515C17.4178 26.5158 16.7201 26.7704 15.9992 26.7704C15.2783 26.7704 14.5806 26.5158 14.0292 26.0515C7.65587 20.7075 3.99987 15.6475 3.99987 12.1675C3.91485 10.7505 4.39224 9.3571 5.32837 8.28991C6.26451 7.22271 7.58382 6.56786 8.99986 6.46753C10.4159 6.56786 11.7352 7.22271 12.6714 8.28991C13.6075 9.3571 14.0849 10.7505 13.9999 12.1675C13.9999 12.698 14.2106 13.2067 14.5857 13.5817C14.9607 13.9568 15.4694 14.1675 15.9999 14.1675C16.5303 14.1675 17.039 13.9568 17.4141 13.5817C17.7892 13.2067 17.9999 12.698 17.9999 12.1675C17.9149 10.7505 18.3922 9.3571 19.3284 8.28991C20.2645 7.22271 21.5838 6.56786 22.9999 6.46753C24.4159 6.56786 25.7352 7.22271 26.6714 8.28991C27.6075 9.3571 28.0849 10.7505 27.9999 12.1675C27.9999 15.6475 24.3439 20.7075 17.9692 26.0515Z" fill="#4D47C3"/>
</g>
<defs>
<clipPath id="clip0_54_2924">
<rect width="32" height="32" fill="white"/>
</clipPath>
</defs>
</svg>
