<svg width="25" height="24" viewBox="0 0 25 24" fill="none" xmlns="http://www.w3.org/2000/svg">
<rect width="24" height="24" transform="translate(0.5)" fill="white" fill-opacity="0.01"/>
<path fill-rule="evenodd" clip-rule="evenodd" d="M8.79207 10.293C8.60526 10.4819 8.50049 10.7368 8.50049 11.0025C8.50049 11.2682 8.60526 11.5231 8.79207 11.712L11.7311 14.677C11.9491 14.892 12.2311 14.999 12.5101 14.999C12.7891 14.999 13.0661 14.892 13.2791 14.677L16.2091 11.722C16.3956 11.533 16.5002 11.2781 16.5002 11.0125C16.5002 10.7469 16.3956 10.492 16.2091 10.303C16.1172 10.2098 16.0078 10.1358 15.8871 10.0853C15.7664 10.0348 15.6369 10.0088 15.5061 10.0088C15.3752 10.0088 15.2457 10.0348 15.125 10.0853C15.0043 10.1358 14.8949 10.2098 14.8031 10.303L12.5051 12.62L10.1981 10.293C10.106 10.2002 9.99652 10.1265 9.87586 10.0762C9.75521 10.0259 9.62578 10.0001 9.49507 10.0001C9.36435 10.0001 9.23493 10.0259 9.11427 10.0762C8.99361 10.1265 8.88411 10.2002 8.79207 10.293Z" fill="#9486FF"/>
</svg>
