<svg width="1434" height="1092" viewBox="0 0 1434 1092" fill="none" xmlns="http://www.w3.org/2000/svg">
<path d="M134.351 583.022C134.351 583.022 140.903 786.498 310.751 922.13C480.599 1057.76 716.023 1067.48 906.591 1080.39C1097.16 1093.29 1243.52 985.382 1265.55 822.31C1287.59 659.238 1142.18 611.386 1063.03 425.718C983.871 240.05 990.983 179.094 823.907 64.9383C656.831 -49.2177 395.227 20.8663 258.139 216.474C121.051 412.082 134.351 583.022 134.351 583.022Z" fill="#9486FF"/>
<path opacity="0.7" d="M134.351 583.022C134.351 583.022 140.903 786.498 310.751 922.13C480.599 1057.76 716.023 1067.48 906.591 1080.39C1097.16 1093.29 1243.52 985.382 1265.55 822.31C1287.59 659.238 1142.18 611.386 1063.03 425.718C983.871 240.05 990.983 179.094 823.907 64.9383C656.831 -49.2177 395.227 20.8663 258.139 216.474C121.051 412.082 134.351 583.022 134.351 583.022Z" fill="white"/>
<path d="M180.782 887.672H155.078" stroke="#323232" stroke-width="1.1133" stroke-miterlimit="10"/>
<path d="M1221.93 887.672H221.438" stroke="#323232" stroke-width="1.1133" stroke-miterlimit="10"/>
<path d="M845.502 995.136C892.497 995.136 930.594 984.656 930.594 971.728C930.594 958.8 892.497 948.32 845.502 948.32C798.507 948.32 760.41 958.8 760.41 971.728C760.41 984.656 798.507 995.136 845.502 995.136Z" fill="#323232"/>
<path d="M405.706 1024.9C317.142 1024.9 304.066 1012.1 302.778 1001.77C302.485 999.62 302.697 997.43 303.397 995.374C304.097 993.319 305.265 991.454 306.81 989.928C330.666 964.896 468.146 975.48 658.378 990.124C684.922 992.168 712.362 994.268 740.502 996.368C932.722 1010.65 1010.11 1008.8 1026.1 989.48C1029.35 985.532 1030.02 980.604 1028.23 973.94C1020.61 946.08 918.806 945.94 880.25 948.124C879.368 948.17 878.503 947.867 877.842 947.28C877.182 946.693 876.779 945.87 876.722 944.988C876.695 944.552 876.756 944.115 876.899 943.702C877.043 943.289 877.267 942.909 877.559 942.583C877.851 942.258 878.204 941.993 878.599 941.805C878.993 941.617 879.421 941.509 879.858 941.488C894.614 940.62 1024.25 934.096 1034.64 972.288C1037.02 981.08 1035.93 988.108 1031.23 993.82C1013.28 1015.6 939.806 1017.93 740.026 1003.09C711.858 1000.99 684.418 998.888 657.874 996.844C476.546 982.844 333.298 971.84 311.626 994.604C310.769 995.417 310.119 996.423 309.729 997.539C309.339 998.654 309.222 999.846 309.386 1001.02C310.198 1007.62 326.186 1022.41 454.986 1017.26C527.03 1014.46 599.41 1006.53 600.138 1006.45C600.981 1006.41 601.805 1006.7 602.445 1007.25C603.085 1007.8 603.492 1008.57 603.584 1009.41C603.677 1010.25 603.447 1011.09 602.943 1011.77C602.438 1012.45 601.696 1012.91 600.866 1013.06C600.138 1013.06 527.534 1021.01 455.266 1023.89C436.674 1024.56 420.21 1024.9 405.706 1024.9Z" fill="white" stroke="#323232" stroke-width="1.1133" stroke-miterlimit="10"/>
<path d="M813.862 992.28C869.238 992.28 914.13 947.388 914.13 892.012C914.13 836.635 869.238 791.744 813.862 791.744C758.485 791.744 713.594 836.635 713.594 892.012C713.594 947.388 758.485 992.28 813.862 992.28Z" fill="white"/>
<mask id="mask0_126_1597" style="mask-type:luminance" maskUnits="userSpaceOnUse" x="713" y="791" width="202" height="202">
<path d="M813.862 992.28C869.238 992.28 914.13 947.388 914.13 892.012C914.13 836.635 869.238 791.744 813.862 791.744C758.485 791.744 713.594 836.635 713.594 892.012C713.594 947.388 758.485 992.28 813.862 992.28Z" fill="white"/>
</mask>
<g mask="url(#mask0_126_1597)">
<path d="M813.862 992.28C832.109 992.292 850.013 987.323 865.644 977.909C881.275 968.495 894.039 954.992 902.562 938.858C911.084 922.724 915.041 904.569 914.005 886.352C912.97 868.134 906.982 850.545 896.686 835.48C895.594 879.16 871.486 943.644 746.102 965.82C764.559 982.844 788.752 992.291 813.862 992.28Z" fill="#EB7100" fill-opacity="0.2"/>
<path opacity="0.3" d="M813.862 992.28C832.109 992.292 850.013 987.323 865.644 977.909C881.275 968.495 894.039 954.992 902.562 938.858C911.084 922.724 915.041 904.569 914.005 886.352C912.97 868.134 906.982 850.545 896.686 835.48C895.594 879.16 871.486 943.644 746.102 965.82C764.559 982.844 788.752 992.291 813.862 992.28Z" fill="white"/>
<path d="M863.198 931.324C845.317 913.929 823.605 900.972 799.806 893.496M863.198 931.324H868.518C880.319 919.625 890.482 906.382 898.73 891.956C851.774 842.34 806.106 847.408 806.106 847.408C806.106 847.408 851.914 842.34 898.87 892.012C901.446 887.392 903.602 883.052 905.366 879.048C885.822 851.664 852.166 832.988 834.106 830.188L829.906 829.18M863.198 931.324C821.954 930.736 790.594 924.352 767.158 915.812C768.67 852.476 791.266 810.28 803.082 792.416C806.846 791.98 810.632 791.755 814.422 791.744C817.866 791.744 821.226 791.94 824.586 792.248M829.906 829.18C823.433 828.003 816.81 827.909 810.306 828.9M829.906 829.18L841.862 795.58C836.212 793.965 830.431 792.85 824.586 792.248M824.586 792.248C816.83 804.764 796.866 844.748 796.866 924.072M885.85 910.912C845.922 871.992 801.85 869.948 801.85 869.948" stroke="#323232" stroke-width="1.1133" stroke-linecap="round" stroke-linejoin="round"/>
<path d="M767.046 915.98C768.558 852.644 791.154 810.448 802.97 792.584C793.724 793.621 784.668 795.939 776.062 799.472C754.841 830.604 742.853 867.101 741.482 904.752C749.704 909.142 758.25 912.895 767.046 915.98Z" stroke="#323232" stroke-width="1.1133" stroke-linecap="round" stroke-linejoin="round"/>
<path d="M776.062 799.388C758.746 806.527 743.771 818.364 732.827 833.563C721.883 848.762 715.405 866.718 714.126 885.404C722.37 892.985 731.566 899.46 741.482 904.668C742.853 867.017 754.841 830.52 776.062 799.388Z" stroke="#323232" stroke-width="1.1133" stroke-linecap="round" stroke-linejoin="round"/>
<path d="M905.226 879.048C907.408 874.226 909.278 869.269 910.826 864.208C906.64 849.927 899.344 836.751 889.462 825.624L881.706 851.496L889.322 825.624C883.137 818.686 876.023 812.637 868.182 807.648L859.642 839.596L868.238 807.788C860.039 802.544 851.115 798.535 841.75 795.888L829.794 829.488C848.106 832.12 876.414 842.9 905.226 879.048Z" stroke="#323232" stroke-width="1.1133" stroke-linecap="round" stroke-linejoin="round"/>
<path d="M819.406 969.432C831.071 962.377 842.199 954.468 852.698 945.772C858.438 940.956 868.966 931.408 869.302 931.408C868.966 931.408 889.07 908.728 895.734 896.884C895.734 897.052 898.702 892.18 898.534 892.012C898.366 891.844 900.942 887.784 900.774 887.616C902.406 884.871 903.828 882.007 905.03 879.048C907.212 874.226 909.082 869.269 910.63 864.208C913.304 873.358 914.661 882.843 914.662 892.376C914.662 893.944 914.662 895.288 914.662 896.744C872.326 956.188 839.706 981.668 819.182 992.84C817.53 992.84 815.85 992.84 814.142 992.84C803.875 992.841 793.668 991.274 783.874 988.192C796.07 982.629 807.934 976.366 819.406 969.432ZM819.406 969.432H820.134" stroke="#323232" stroke-width="1.1133" stroke-linecap="round" stroke-linejoin="round"/>
<path d="M914.662 896.744C872.326 956.188 839.706 981.668 819.35 992.588C844.312 991.331 867.91 980.815 885.534 963.092C903.159 945.369 913.544 921.713 914.662 896.744Z" stroke="#323232" stroke-width="1.1133" stroke-linecap="round" stroke-linejoin="round"/>
<path d="M735.798 954.984C748.222 970.602 765.018 982.163 784.042 988.192C796.238 982.629 808.101 976.365 819.574 969.432C795.662 973.856 758.254 962.88 735.798 954.984Z" stroke="#323232" stroke-width="1.1133" stroke-linecap="round" stroke-linejoin="round"/>
<path d="M819.574 969.432C831.239 962.377 842.367 954.468 852.866 945.772C780.654 953.164 736.106 930.792 717.178 918.08C720.75 931.543 727.092 944.112 735.798 954.984C758.254 962.88 795.662 973.856 819.574 969.432Z" stroke="#323232" stroke-width="1.1133" stroke-linecap="round" stroke-linejoin="round"/>
<path d="M863.198 931.38H868.518C863.786 936.14 858.606 940.956 852.866 945.772C780.654 953.164 736.106 930.792 717.178 918.136C714.969 909.746 713.849 901.107 713.846 892.432C713.846 890.108 713.958 887.84 714.126 885.544C720.23 891.284 732.634 904.108 767.046 916.036C790.594 924.408 821.954 930.792 863.198 931.38ZM863.198 931.38C863.59 931.744 863.982 932.108 864.346 932.5" stroke="#323232" stroke-width="1.1133" stroke-linecap="round" stroke-linejoin="round"/>
</g>
<path d="M813.862 992.28C869.238 992.28 914.13 947.388 914.13 892.012C914.13 836.635 869.238 791.744 813.862 791.744C758.485 791.744 713.594 836.635 713.594 892.012C713.594 947.388 758.485 992.28 813.862 992.28Z" stroke="#323232" stroke-width="1.1133" stroke-linecap="round" stroke-linejoin="round"/>
<path d="M998.55 720.652C998.55 720.652 991.69 698.392 971.698 690.384C957.698 684.784 941.822 686.296 927.402 688.788C900.578 693.464 877.17 704.132 851.802 713.232C851.802 713.232 862.665 709.228 907.213 730.956C923.621 738.936 942.381 745.152 961.141 744.732C976.177 744.396 999.306 740.084 998.55 720.652Z" fill="#458A00"/>
<path d="M1000.96 655.216C1000.96 655.216 1000.96 631.892 984.157 618.48C972.453 609.128 956.717 605.908 942.157 604.144C915.109 600.868 889.629 604.312 862.637 605.684C862.637 605.684 874.201 605.012 910.573 638.668C923.985 651.044 940.169 662.412 958.173 667.424C972.677 671.456 996.029 674.032 1000.96 655.216Z" fill="#458A00"/>
<path d="M1046.91 741.764C1046.91 741.764 1028.73 727.176 1028.68 705.644C1028.68 690.664 1035.87 676.356 1043.52 663.896C1057.74 640.656 1076.28 622.848 1094.14 602.548C1094.14 602.548 1086.41 611.172 1090.17 660.592C1091.57 678.792 1090.39 698.532 1083.08 715.808C1077.34 729.696 1064.83 749.604 1046.91 741.764Z" fill="#458A00"/>
<path d="M1111.31 777.548C1111.31 777.548 1108.73 754.392 1123.91 739.104C1134.43 728.492 1149.69 723.452 1163.89 720.036C1190.38 713.652 1216.08 714.128 1243.05 712.364C1243.05 712.364 1231.51 713.008 1199.25 750.64C1187.38 764.64 1172.63 777.66 1155.24 784.744C1141.38 790.428 1118.47 795.664 1111.31 777.548Z" fill="#458A00"/>
<path d="M1107.19 694.976C1107.19 694.976 1084.09 691.812 1073 673.36C1065.27 660.536 1064.13 644.52 1064.27 629.904C1064.55 602.688 1071.32 577.852 1076.22 551.28C1076.22 551.28 1074.01 562.648 1102.63 603.108C1113.15 618.032 1122.23 635.56 1125.03 654.152C1127.01 669.076 1126.48 692.568 1107.19 694.976Z" fill="#458A00"/>
<path d="M1173.66 653.508C1173.66 653.508 1190.27 669.86 1211.66 667.508C1226.53 665.8 1239.91 656.924 1251.39 647.908C1272.78 631.108 1288.32 610.556 1306.38 590.48C1306.38 590.48 1298.74 599.132 1249.21 601.176C1230.98 601.932 1211.52 605.376 1195.19 614.672C1182.09 622.008 1163.81 636.764 1173.66 653.508Z" fill="#458A00"/>
<path d="M1154.43 637.352C1154.43 637.352 1177.61 639.676 1192.73 624.36C1203.26 613.692 1208.13 598.404 1211.41 584.152C1217.51 557.636 1216.78 531.904 1218.24 504.94C1218.24 504.94 1217.73 516.476 1180.41 549.124C1166.69 561.136 1153.67 576.032 1146.81 593.476C1141.24 607.504 1136.23 630.464 1154.43 637.352Z" fill="#458A00"/>
<path d="M1071.63 863.06L1031.59 764.528L985.417 650.596" stroke="#323232" stroke-width="1.1133" stroke-linecap="round" stroke-linejoin="round"/>
<path d="M1080.87 846.12L1120.88 709.116L1164 624.444" stroke="#323232" stroke-width="1.1133" stroke-linecap="round" stroke-linejoin="round"/>
<path d="M1096.24 792.248L1136.28 769.148" stroke="#323232" stroke-width="1.1133" stroke-linecap="round" stroke-linejoin="round"/>
<path d="M1120.88 709.116L1100.86 664.456" stroke="#323232" stroke-width="1.1133" stroke-linecap="round" stroke-linejoin="round"/>
<path d="M1145.94 664.68L1194.77 642.896" stroke="#323232" stroke-width="1.1133" stroke-linecap="round" stroke-linejoin="round"/>
<path d="M1039.29 783.008L1056.23 715.276" stroke="#323232" stroke-width="1.1133" stroke-linecap="round" stroke-linejoin="round"/>
<path d="M1016.83 731.516L977.718 710.656" stroke="#323232" stroke-width="1.1133" stroke-linecap="round" stroke-linejoin="round"/>
<path d="M1092.15 912.312H1058.78C1053.32 912.31 1048.04 910.404 1043.84 906.923C1039.63 903.442 1036.78 898.604 1035.76 893.244L1023.89 830.72H1127.04L1115.2 893.244C1114.17 898.607 1111.31 903.445 1107.11 906.926C1102.9 910.406 1097.61 912.311 1092.15 912.312Z" fill="#323232" stroke="#323232" stroke-width="1.1133" stroke-linecap="round" stroke-linejoin="round"/>
<path d="M152.754 531.148C152.754 523.392 156.338 517.68 164.402 517.68C172.466 517.68 176.19 523.28 176.19 531.148V558.364C176.19 566.12 172.606 571.832 164.402 571.832C156.198 571.832 152.754 566.232 152.754 558.364V531.148ZM156.254 558.588C156.254 564.384 158.55 568.64 164.402 568.64C170.254 568.64 172.802 564.384 172.802 558.588V530.924C172.802 525.128 170.45 520.872 164.402 520.872C158.354 520.872 156.254 525.128 156.254 530.924V558.588Z" fill="#323232"/>
<path d="M181.706 531.148C181.706 523.392 185.29 517.68 193.354 517.68C201.418 517.68 205.142 523.28 205.142 531.148V558.364C205.142 566.12 201.558 571.832 193.354 571.832C185.15 571.832 181.706 566.232 181.706 558.364V531.148ZM185.206 558.588C185.206 564.384 187.502 568.64 193.354 568.64C199.206 568.64 201.754 564.384 201.754 558.588V530.924C201.754 525.128 199.402 520.872 193.354 520.872C187.306 520.872 185.206 525.128 185.206 530.924V558.588Z" fill="#323232"/>
<path d="M221.97 518.128C230.202 518.128 233.394 523.308 233.394 531.064V536.86C233.394 545.26 229.502 549.46 221.074 549.46H214.438V571.384H210.938V518.184L221.97 518.128ZM221.074 546.268C227.234 546.268 229.894 543.468 229.894 537.084V530.84C229.894 525.072 227.906 521.32 221.97 521.32H214.438V546.268H221.074Z" fill="#323232"/>
<path d="M261.086 530.98V532.128H257.726V530.756C257.726 525.156 255.598 520.872 249.83 520.872C244.062 520.872 241.906 524.988 241.906 530.588C241.906 543.496 261.142 543.72 261.142 558.42C261.142 566.092 257.81 571.72 249.662 571.72C241.514 571.72 238.182 566.12 238.182 558.42V555.62H241.542V558.588C241.542 564.188 243.726 568.388 249.578 568.388C255.43 568.388 257.642 564.272 257.642 558.588C257.642 545.792 238.406 545.568 238.406 530.756C238.406 522.748 241.906 517.596 249.606 517.512C257.306 517.428 261.086 523.308 261.086 530.98Z" fill="#323232"/>
<path d="M269.822 564.692V571.384H266.406V564.692H269.822Z" fill="#323232"/>
<path d="M279.342 564.692V571.384H275.898V564.692H279.342Z" fill="#323232"/>
<path d="M288.834 564.692V571.384H285.306V564.692H288.834Z" fill="#323232"/>
<path d="M635.726 780.572C573.398 780.572 535.934 725.272 522.634 676.636L522.186 674.928C521.477 672.57 521.251 670.093 521.522 667.645C521.793 665.198 522.555 662.83 523.761 660.683C524.968 658.537 526.596 656.656 528.546 655.153C530.497 653.65 532.731 652.556 535.114 651.936C537.497 651.316 539.981 651.184 542.417 651.546C544.852 651.908 547.19 652.758 549.29 654.044C551.389 655.331 553.208 657.027 554.637 659.033C556.066 661.038 557.076 663.311 557.606 665.716L557.942 666.976C568.05 703.992 595.574 746.3 639.73 743.864C648.033 743.576 656.183 741.545 663.65 737.904C671.117 734.262 677.735 729.09 683.074 722.724C707.294 694.948 718.13 634.552 715.722 604.088C715.494 602.133 715.662 600.152 716.217 598.264C716.772 596.376 717.702 594.619 718.951 593.098C720.2 591.577 721.743 590.323 723.488 589.412C725.232 588.501 727.142 587.951 729.104 587.795C731.066 587.638 733.04 587.879 734.906 588.503C736.773 589.126 738.495 590.12 739.969 591.423C741.444 592.727 742.64 594.315 743.487 596.092C744.333 597.869 744.813 599.798 744.898 601.764C747.698 635.672 744.002 708.556 710.654 746.776C702.118 756.826 691.594 765 679.744 770.782C667.895 776.565 654.976 779.832 641.802 780.376C639.758 780.516 637.714 780.572 635.726 780.572Z" fill="white"/>
<mask id="mask1_126_1597" style="mask-type:luminance" maskUnits="userSpaceOnUse" x="521" y="587" width="225" height="194">
<path d="M635.726 780.572C573.398 780.572 535.934 725.272 522.634 676.636L522.186 674.928C521.477 672.57 521.251 670.093 521.522 667.645C521.793 665.198 522.555 662.83 523.761 660.683C524.968 658.537 526.596 656.656 528.546 655.153C530.497 653.65 532.731 652.556 535.114 651.936C537.497 651.316 539.981 651.184 542.417 651.546C544.852 651.908 547.19 652.758 549.29 654.044C551.389 655.331 553.208 657.027 554.637 659.033C556.066 661.038 557.076 663.311 557.606 665.716L557.942 666.976C568.05 703.992 595.574 746.3 639.73 743.864C648.033 743.576 656.183 741.545 663.65 737.904C671.117 734.262 677.735 729.09 683.074 722.724C707.294 694.948 718.13 634.552 715.722 604.088C715.494 602.133 715.662 600.152 716.217 598.264C716.772 596.376 717.702 594.619 718.951 593.098C720.2 591.577 721.743 590.323 723.488 589.412C725.232 588.501 727.142 587.951 729.104 587.795C731.066 587.638 733.04 587.879 734.906 588.503C736.773 589.126 738.495 590.12 739.969 591.423C741.444 592.727 742.64 594.315 743.487 596.092C744.333 597.869 744.813 599.798 744.898 601.764C747.698 635.672 744.002 708.556 710.654 746.776C702.118 756.826 691.594 765 679.744 770.782C667.895 776.565 654.976 779.832 641.802 780.376C639.758 780.516 637.714 780.572 635.726 780.572Z" fill="white"/>
</mask>
<g mask="url(#mask1_126_1597)">
<path d="M729.134 588.324C725.266 588.638 721.68 590.475 719.165 593.431C716.651 596.386 715.412 600.22 715.722 604.088C716.898 618.956 714.91 640.936 709.758 662.888C717.116 662.577 724.474 663.524 731.514 665.688C729.848 686.754 722.45 706.962 710.122 724.124C682.934 761.896 642.166 773.964 610.442 769.428C596.246 767.412 579.978 759.964 566.286 752.32C584.864 770.437 609.776 780.593 635.726 780.628C637.714 780.628 639.758 780.628 641.802 780.46C654.976 779.916 667.895 776.649 679.744 770.866C691.594 765.084 702.118 756.91 710.654 746.86C744.002 708.64 747.586 635.756 744.898 601.848C744.76 599.922 744.241 598.042 743.372 596.317C742.504 594.592 741.302 593.056 739.836 591.799C738.37 590.541 736.669 589.587 734.833 588.99C732.996 588.394 731.059 588.167 729.134 588.324Z" fill="#EB7100" fill-opacity="0.2"/>
<path opacity="0.5" d="M729.134 588.324C725.266 588.638 721.68 590.475 719.165 593.431C716.651 596.386 715.412 600.22 715.722 604.088C716.898 618.956 714.91 640.936 709.758 662.888C717.116 662.577 724.474 663.524 731.514 665.688C729.848 686.754 722.45 706.962 710.122 724.124C682.934 761.896 642.166 773.964 610.442 769.428C596.246 767.412 579.978 759.964 566.286 752.32C584.864 770.437 609.776 780.593 635.726 780.628C637.714 780.628 639.758 780.628 641.802 780.46C654.976 779.916 667.895 776.649 679.744 770.866C691.594 765.084 702.118 756.91 710.654 746.86C744.002 708.64 747.586 635.756 744.898 601.848C744.76 599.922 744.241 598.042 743.372 596.317C742.504 594.592 741.302 593.056 739.836 591.799C738.37 590.541 736.669 589.587 734.833 588.99C732.996 588.394 731.059 588.167 729.134 588.324Z" fill="#EB7100" fill-opacity="0.2"/>
</g>
<path d="M635.726 780.572C573.398 780.572 535.934 725.272 522.634 676.636L522.186 674.928C521.477 672.57 521.251 670.093 521.522 667.645C521.793 665.198 522.555 662.83 523.761 660.683C524.968 658.537 526.596 656.656 528.546 655.153C530.497 653.65 532.731 652.556 535.114 651.936C537.497 651.316 539.981 651.184 542.417 651.546C544.852 651.908 547.19 652.758 549.29 654.044C551.389 655.331 553.208 657.027 554.637 659.033C556.066 661.038 557.076 663.311 557.606 665.716L557.942 666.976C568.05 703.992 595.574 746.3 639.73 743.864C648.033 743.576 656.183 741.545 663.65 737.904C671.117 734.262 677.735 729.09 683.074 722.724C707.294 694.948 718.13 634.552 715.722 604.088C715.494 602.133 715.662 600.152 716.217 598.264C716.772 596.376 717.702 594.619 718.951 593.098C720.2 591.577 721.743 590.323 723.488 589.412C725.232 588.501 727.142 587.951 729.104 587.795C731.066 587.638 733.04 587.879 734.906 588.503C736.773 589.126 738.495 590.12 739.969 591.423C741.444 592.727 742.64 594.315 743.487 596.092C744.333 597.869 744.813 599.798 744.898 601.764C747.698 635.672 744.002 708.556 710.654 746.776C702.118 756.826 691.594 765 679.744 770.782C667.895 776.565 654.976 779.832 641.802 780.376C639.758 780.516 637.714 780.572 635.726 780.572Z" stroke="#323232" stroke-width="1.1133" stroke-linecap="round" stroke-linejoin="round"/>
<path d="M599.774 742.688C601.258 735.828 584.85 746.552 571.102 756.548C576.187 760.846 581.661 764.661 587.454 767.944C592.354 759.964 598.346 749.296 599.774 742.688Z" fill="#EB7100" stroke="#323232" stroke-width="1.1133" stroke-linecap="round" stroke-linejoin="round"/>
<path d="M635.726 780.572C637.714 780.572 639.758 780.572 641.802 780.404C647.75 780.071 653.661 779.237 659.47 777.912C651.742 767.832 641.102 754.504 638.05 753.496C634.55 752.32 627.802 769.484 624.05 779.9C627.925 780.352 631.824 780.576 635.726 780.572Z" fill="#EB7100" stroke="#323232" stroke-width="1.1133" stroke-linecap="round" stroke-linejoin="round"/>
<path d="M557.942 666.976L557.606 665.716C557.076 663.311 556.066 661.038 554.637 659.033C553.208 657.027 551.389 655.33 549.29 654.044C547.19 652.758 544.852 651.908 542.417 651.546C539.981 651.183 537.497 651.316 535.114 651.936C532.731 652.556 530.497 653.65 528.546 655.153C526.596 656.656 524.968 658.537 523.761 660.683C522.555 662.83 521.793 665.198 521.522 667.645C521.251 670.093 521.477 672.57 522.186 674.928L522.634 676.636C527.302 693.716 534.474 710.011 543.914 724.992L577.262 709.116C568.517 696.245 561.987 682.002 557.942 666.976Z" fill="#EB7100" stroke="#323232" stroke-width="1.1133" stroke-linecap="round" stroke-linejoin="round"/>
<path d="M710.654 746.776C713.216 743.809 715.591 740.686 717.766 737.424C707.182 733.812 691.334 728.828 685.454 729.36C678.482 730.004 687.946 752.404 692.818 762.96C699.376 758.282 705.362 752.85 710.654 746.776Z" fill="#EB7100" stroke="#323232" stroke-width="1.1133" stroke-linecap="round" stroke-linejoin="round"/>
<path d="M711.242 686.94C710.122 689.18 723.814 699.148 733.054 705.56C735.985 696.838 738.342 687.934 740.11 678.904C728.91 681.144 712.334 684.756 711.242 686.94Z" fill="#EB7100" stroke="#323232" stroke-width="1.1133" stroke-linecap="round" stroke-linejoin="round"/>
<path d="M744.645 645.528C745.261 637.548 745.57 629.932 745.598 622.932C735.966 628.224 724.542 635.56 724.542 640.376C724.542 645.192 735.237 645.78 744.645 645.528Z" fill="#EB7100" stroke="#323232" stroke-width="1.1133" stroke-linecap="round" stroke-linejoin="round"/>
<path d="M593.894 428.892C593.894 428.892 566.706 507.628 581.35 568.892C585.687 586.82 594.107 603.503 605.953 617.642C617.799 631.78 632.75 642.991 649.642 650.4C649.642 650.4 609.91 664.4 618.842 685.932C627.774 707.464 662.018 693.604 673.19 686.632C684.362 679.66 698.39 658.772 700.35 644.828C701.595 637.704 702.065 630.465 701.75 623.24C701.75 623.24 747.026 618.368 777.686 593.28C777.686 593.28 804.874 614.868 824.39 610.696C843.906 606.524 871.766 571.664 868.966 540.332C866.166 509 848.106 509.028 837.074 513.788C831.347 515.953 826.125 519.27 821.73 523.532C821.73 523.532 837.746 503.932 821.73 476.856C817.002 468.914 810.53 462.152 802.802 457.082C795.074 452.013 786.293 448.769 777.126 447.596C777.126 447.596 768.726 402.992 743.694 386.276C718.662 369.56 629.426 352.256 593.894 428.892Z" fill="white"/>
<mask id="mask2_126_1597" style="mask-type:luminance" maskUnits="userSpaceOnUse" x="577" y="371" width="293" height="327">
<path d="M593.894 428.892C593.894 428.892 566.706 507.628 581.35 568.892C585.687 586.82 594.107 603.503 605.953 617.642C617.799 631.78 632.75 642.991 649.642 650.4C649.642 650.4 609.91 664.4 618.842 685.932C627.774 707.464 662.018 693.604 673.19 686.632C684.362 679.66 698.39 658.772 700.35 644.828C701.595 637.704 702.065 630.465 701.75 623.24C701.75 623.24 747.026 618.368 777.686 593.28C777.686 593.28 804.874 614.868 824.39 610.696C843.906 606.524 871.766 571.664 868.966 540.332C866.166 509 848.106 509.028 837.074 513.788C831.347 515.953 826.125 519.27 821.73 523.532C821.73 523.532 837.746 503.932 821.73 476.856C817.002 468.914 810.53 462.152 802.802 457.082C795.074 452.013 786.293 448.769 777.126 447.596C777.126 447.596 768.726 402.992 743.694 386.276C718.662 369.56 629.426 352.256 593.894 428.892Z" fill="white"/>
</mask>
<g mask="url(#mask2_126_1597)">
<path d="M800.898 455.968C787.972 477.53 770.085 495.694 748.725 508.951C727.365 522.207 703.148 530.172 678.09 532.184C622.65 537.056 591.57 526.136 577.29 518.548C579.022 488.084 584.669 457.97 594.09 428.948C629.622 352.312 718.802 369.728 743.89 386.444C768.978 403.16 777.322 447.764 777.322 447.764C785.669 448.812 793.703 451.607 800.898 455.968ZM837.074 513.788C831.347 515.954 826.125 519.27 821.73 523.532C825.121 518.857 827.356 513.445 828.254 507.74C790.594 526.5 793.534 566.54 788.858 566.54C783.09 566.54 780.234 546.408 780.234 546.408C780.234 546.408 773.038 575.164 729.834 595.324C686.63 615.484 637.77 599.636 637.77 599.636C637.77 599.636 647.85 622.652 621.95 619.768C614.681 619.073 607.712 616.528 601.706 612.376C614.125 628.935 630.621 641.996 649.586 650.288C649.586 650.288 609.854 664.288 618.786 685.82C627.718 707.352 661.99 693.492 673.134 686.52C684.278 679.548 698.334 658.66 700.294 644.716C701.539 637.592 702.009 630.354 701.694 623.128C701.694 623.128 746.97 618.256 777.63 593.168C777.63 593.168 804.818 614.756 824.334 610.584C843.85 606.412 871.71 571.552 868.91 540.22C866.11 508.888 848.106 509.028 837.074 513.788Z" fill="#EB7100" fill-opacity="0.2"/>
<path opacity="0.5" d="M800.898 455.968C787.972 477.53 770.085 495.694 748.725 508.951C727.365 522.207 703.148 530.172 678.09 532.184C622.65 537.056 591.57 526.136 577.29 518.548C579.022 488.084 584.669 457.97 594.09 428.948C629.622 352.312 718.802 369.728 743.89 386.444C768.978 403.16 777.322 447.764 777.322 447.764C785.669 448.812 793.703 451.607 800.898 455.968ZM837.074 513.788C831.347 515.954 826.125 519.27 821.73 523.532C825.121 518.857 827.356 513.445 828.254 507.74C790.594 526.5 793.534 566.54 788.858 566.54C783.09 566.54 780.234 546.408 780.234 546.408C780.234 546.408 773.038 575.164 729.834 595.324C686.63 615.484 637.77 599.636 637.77 599.636C637.77 599.636 647.85 622.652 621.95 619.768C614.681 619.073 607.712 616.528 601.706 612.376C614.125 628.935 630.621 641.996 649.586 650.288C649.586 650.288 609.854 664.288 618.786 685.82C627.718 707.352 661.99 693.492 673.134 686.52C684.278 679.548 698.334 658.66 700.294 644.716C701.539 637.592 702.009 630.354 701.694 623.128C701.694 623.128 746.97 618.256 777.63 593.168C777.63 593.168 804.818 614.756 824.334 610.584C843.85 606.412 871.71 571.552 868.91 540.22C866.11 508.888 848.106 509.028 837.074 513.788Z" fill="white"/>
<path d="M701.89 623.296C686.863 623.696 671.944 620.646 658.28 614.379C644.616 608.113 632.571 598.797 623.07 587.148" stroke="#323232" stroke-width="1.1133" stroke-linecap="round" stroke-linejoin="round"/>
</g>
<path d="M593.894 428.892C593.894 428.892 566.706 507.628 581.35 568.892C585.687 586.82 594.107 603.503 605.953 617.642C617.799 631.78 632.75 642.991 649.642 650.4C649.642 650.4 609.91 664.4 618.842 685.932C627.774 707.464 662.018 693.604 673.19 686.632C684.362 679.66 698.39 658.772 700.35 644.828C701.595 637.704 702.065 630.465 701.75 623.24C701.75 623.24 747.026 618.368 777.686 593.28C777.686 593.28 804.874 614.868 824.39 610.696C843.906 606.524 871.766 571.664 868.966 540.332C866.166 509 848.106 509.028 837.074 513.788C831.347 515.953 826.125 519.27 821.73 523.532C821.73 523.532 837.746 503.932 821.73 476.856C817.002 468.914 810.53 462.152 802.802 457.082C795.074 452.013 786.293 448.769 777.126 447.596C777.126 447.596 768.726 402.992 743.694 386.276C718.662 369.56 629.426 352.256 593.894 428.892Z" stroke="#323232" stroke-width="1.1133" stroke-linecap="round" stroke-linejoin="round"/>
<path d="M821.73 523.644C821.73 523.644 807.114 533.416 800.142 563.376" stroke="#323232" stroke-width="1.1133" stroke-linecap="round" stroke-linejoin="round"/>
<path d="M848.582 536.468C846.874 541.564 842.198 544.616 838.166 543.244C834.134 541.872 832.286 536.636 833.994 531.54C835.702 526.444 840.378 523.392 844.41 524.764C848.442 526.136 850.318 531.372 848.582 536.468Z" fill="#D3004C" fill-opacity="0.2" stroke="#323232" stroke-width="1.1133" stroke-linecap="round" stroke-linejoin="round"/>
<path d="M863.002 545.54C861.294 550.636 856.618 553.688 852.586 552.316C848.554 550.944 846.677 545.708 848.413 540.612C850.149 535.516 854.797 532.464 858.829 533.836C862.861 535.208 864.738 540.444 863.002 545.54Z" fill="#D3004C" fill-opacity="0.2" stroke="#323232" stroke-width="1.1133" stroke-linecap="round" stroke-linejoin="round"/>
<path d="M866.082 559.12C865.523 560.057 864.709 560.817 863.736 561.31C862.762 561.804 861.669 562.011 860.583 561.908C859.496 561.805 858.461 561.395 857.598 560.728C856.735 560.06 856.079 559.161 855.706 558.135C855.334 557.11 855.26 555.999 855.493 554.933C855.726 553.867 856.257 552.889 857.024 552.112C857.791 551.336 858.762 550.793 859.825 550.546C860.888 550.3 861.999 550.36 863.03 550.72C864.517 551.464 865.662 552.749 866.23 554.312C866.797 555.874 866.745 557.595 866.082 559.12Z" fill="#D3004C" fill-opacity="0.2" stroke="#323232" stroke-width="1.1133" stroke-linecap="round" stroke-linejoin="round"/>
<path d="M847.686 577.768C842.646 586.868 832.566 590.9 825.146 586.784C817.726 582.668 815.822 572 820.862 562.9C825.902 553.8 835.982 549.768 843.402 553.884C850.822 558 852.726 568.668 847.686 577.768Z" fill="#D3004C" fill-opacity="0.2" stroke="#323232" stroke-width="1.1133" stroke-linecap="round" stroke-linejoin="round"/>
<path d="M649.642 650.456C659.028 654.825 669.697 655.573 679.602 652.556" stroke="#323232" stroke-width="1.1133" stroke-linecap="round" stroke-linejoin="round"/>
<path d="M618.982 685.988C618.982 685.988 621.782 674.144 639.17 665.8" stroke="#323232" stroke-width="1.1133" stroke-linecap="round" stroke-linejoin="round"/>
<path d="M636.398 696.46C636.398 696.46 643.37 679.66 655.214 672.072" stroke="#323232" stroke-width="1.1133" stroke-linecap="round" stroke-linejoin="round"/>
<path d="M361.634 503.708C358.672 501.344 356.311 498.314 354.744 494.864C353.177 491.413 352.448 487.642 352.618 483.856V417.468H181.37C177.186 417.625 173.019 416.875 169.153 415.271C165.286 413.666 161.813 411.245 158.97 408.172C153.368 402.247 150.295 394.373 150.402 386.22C150.379 379.595 152.328 373.113 156.002 367.6L320.026 109.832C332.346 90.8107 348.716 81.3 369.138 81.3C380.117 80.927 390.837 84.6835 399.182 91.828C407.19 98.828 411.194 109.235 411.194 123.048V373.62H454.762C457.771 373.439 460.783 373.922 463.585 375.035C466.386 376.148 468.909 377.863 470.974 380.06C474.658 384.378 476.681 389.868 476.681 395.544C476.681 401.22 474.658 406.71 470.974 411.028C468.909 413.225 466.386 414.94 463.585 416.053C460.783 417.166 457.771 417.649 454.762 417.468H410.886V483.856C411.067 487.613 410.375 491.361 408.865 494.805C407.354 498.25 405.065 501.297 402.178 503.708C396.541 508.433 389.4 510.986 382.046 510.904C374.61 510.963 367.388 508.417 361.634 503.708ZM352.506 373.62V142.9L208.894 373.62H352.506Z" fill="#323232"/>
<path d="M599.27 505.052C582.485 497.727 567.622 486.621 555.842 472.6C544.009 457.787 534.769 441.077 528.514 423.18C521.424 403.846 516.439 383.803 513.646 363.4C510.731 341.186 509.328 318.8 509.446 296.396C509.446 148.799 559.846 75 660.646 75C761.446 75 811.724 148.799 811.482 296.396C811.581 318.693 810.225 340.972 807.422 363.092C804.72 383.499 799.781 403.546 792.694 422.872C786.438 440.769 777.198 457.479 765.366 472.292C753.57 486.331 738.714 497.481 721.938 504.884C702.65 513.411 681.73 517.616 660.646 517.204C639.55 517.628 618.612 513.482 599.27 505.052ZM690.438 462.688C698.872 459.09 706.527 453.888 712.978 447.372C719.509 440.417 724.879 432.457 728.882 423.796C733.298 414.62 736.869 405.06 739.55 395.236C742.373 384.532 744.432 373.64 745.71 362.644C747.222 350.511 748.23 339.395 748.734 329.296C749.238 319.197 749.48 308.231 749.462 296.396C749.462 283.983 749.219 272.521 748.734 262.012C748.248 251.503 747.194 240.228 745.57 228.188C744.176 217.199 742.071 206.313 739.27 195.596C736.62 185.87 733.048 176.419 728.602 167.372C724.569 158.848 719.189 151.029 712.67 144.216C706.257 137.83 698.644 132.777 690.27 129.348C671.125 121.957 649.914 121.957 630.77 129.348C622.457 132.736 614.9 137.742 608.538 144.076C602.066 150.859 596.7 158.616 592.634 167.064C588.148 176.03 584.619 185.443 582.106 195.148C579.372 205.929 577.315 216.87 575.946 227.908C574.322 240.116 573.267 251.484 572.782 262.012C572.296 272.54 572.044 284.001 572.026 296.396C572.026 308.212 572.278 319.225 572.782 329.436C573.286 339.647 574.284 350.847 575.778 363.036C577.069 374.03 579.128 384.921 581.938 395.628C584.581 405.449 588.114 415.009 592.494 424.188C596.455 432.796 601.778 440.71 608.258 447.624C614.66 454.098 622.271 459.255 630.658 462.8C649.821 470.602 671.275 470.602 690.438 462.8V462.688Z" fill="#323232"/>
<path d="M1070.93 503.708C1067.97 501.344 1065.61 498.314 1064.04 494.864C1062.47 491.413 1061.74 487.641 1061.91 483.856V417.468H890.666C886.483 417.625 882.315 416.875 878.449 415.271C874.582 413.666 871.109 411.245 868.266 408.172C862.665 402.247 859.591 394.373 859.698 386.22C859.675 379.595 861.624 373.113 865.298 367.6L1029.32 109.832C1041.53 90.8106 1057.85 81.2999 1078.29 81.2999C1089.33 80.8844 1100.12 84.6435 1108.51 91.8279C1116.51 98.8279 1120.52 109.235 1120.52 123.048V373.62H1164.09C1167.09 373.439 1170.11 373.922 1172.91 375.035C1175.71 376.147 1178.23 377.863 1180.3 380.06C1183.98 384.378 1186.01 389.868 1186.01 395.544C1186.01 401.22 1183.98 406.71 1180.3 411.028C1178.23 413.225 1175.71 414.94 1172.91 416.053C1170.11 417.166 1167.09 417.649 1164.09 417.468H1120.18V483.856C1120.36 487.613 1119.67 491.361 1118.16 494.805C1116.65 498.25 1114.36 501.297 1111.47 503.708C1105.84 508.433 1098.7 510.986 1091.34 510.904C1083.91 510.963 1076.68 508.417 1070.93 503.708ZM1061.91 373.62V142.9L918.302 373.62H1061.91Z" fill="#323232"/>
<path d="M537.446 389.188C537.446 389.188 508.186 430.292 504.014 472.096C499.842 513.9 504.714 541.76 517.258 552.232C529.802 562.704 542.318 558.504 549.29 548.732C556.262 538.96 545.118 504.828 545.118 504.828C545.118 504.828 556.962 472.096 575.078 449.108C593.194 426.12 596.666 422.62 596.666 422.62C596.666 422.62 565.306 387.088 537.446 389.188Z" fill="white"/>
<mask id="mask3_126_1597" style="mask-type:luminance" maskUnits="userSpaceOnUse" x="502" y="389" width="95" height="170">
<path d="M537.446 389.188C537.446 389.188 508.186 430.292 504.014 472.096C499.842 513.9 504.714 541.76 517.258 552.232C529.802 562.704 542.318 558.504 549.29 548.732C556.262 538.96 545.118 504.828 545.118 504.828C545.118 504.828 556.962 472.096 575.078 449.108C593.194 426.12 596.666 422.62 596.666 422.62C596.666 422.62 565.306 387.088 537.446 389.188Z" fill="white"/>
</mask>
<g mask="url(#mask3_126_1597)">
<path d="M537.446 389.188C531.061 398.622 525.398 408.525 520.506 418.812C534.506 424.412 556.206 435.892 569.982 456.22C571.662 453.784 573.398 451.376 575.19 449.108C593.306 426.12 596.778 422.62 596.778 422.62C596.778 422.62 565.306 387.088 537.446 389.188Z" fill="#EB7100" fill-opacity="0.2"/>
<path opacity="0.5" d="M537.446 389.188C531.061 398.622 525.398 408.525 520.506 418.812C534.506 424.412 556.206 435.892 569.982 456.22C571.662 453.784 573.398 451.376 575.19 449.108C593.306 426.12 596.778 422.62 596.778 422.62C596.778 422.62 565.306 387.088 537.446 389.188Z" fill="white"/>
</g>
<path d="M537.446 389.188C537.446 389.188 508.186 430.292 504.014 472.096C499.842 513.9 504.714 541.76 517.258 552.232C529.802 562.704 542.318 558.504 549.29 548.732C556.262 538.96 545.118 504.828 545.118 504.828C545.118 504.828 556.962 472.096 575.078 449.108C593.194 426.12 596.666 422.62 596.666 422.62C596.666 422.62 565.306 387.088 537.446 389.188Z" stroke="#323232" stroke-width="1.1133" stroke-linecap="round" stroke-linejoin="round"/>
<path d="M517.258 552.232C513.837 543.097 512.174 533.397 512.358 523.644" stroke="#323232" stroke-width="1.1133" stroke-linecap="round" stroke-linejoin="round"/>
<path d="M536.046 556.404C536.046 556.404 529.102 544.56 528.402 524.344" stroke="#323232" stroke-width="1.1133" stroke-linecap="round" stroke-linejoin="round"/>
<path d="M546.518 463.724C546.518 456.388 532.518 442.052 513.058 435.724C510.441 442.545 508.281 449.533 506.59 456.64C514.15 457.934 521.492 460.281 528.402 463.612C538.846 469.296 546.518 472.096 546.518 463.724Z" fill="#EB7100" stroke="#323232" stroke-width="1.1133" stroke-linecap="round" stroke-linejoin="round"/>
<path d="M535.738 391.68C531.224 398.56 527.074 405.673 523.306 412.988C529.198 414.546 534.85 416.901 540.106 419.988C561.694 432.504 565.866 433.988 558.922 415.788C554.722 404.364 544.698 396.608 535.738 391.68Z" fill="#EB7100" stroke="#323232" stroke-width="1.1133" stroke-linecap="round" stroke-linejoin="round"/>
<path d="M766.626 368.888C766.626 368.888 799.778 406.912 808.038 448.128C816.298 489.344 814.198 517.54 802.718 529.16C791.238 540.78 778.386 537.868 770.49 528.824C762.594 519.78 770.49 484.752 770.49 484.752C770.49 484.752 755.482 453.308 735.21 432.196C714.938 411.084 711.102 407.976 711.102 407.976C711.102 407.976 738.682 369.532 766.626 368.888Z" fill="white"/>
<mask id="mask4_126_1597" style="mask-type:luminance" maskUnits="userSpaceOnUse" x="711" y="368" width="103" height="169">
<path d="M766.626 368.888C766.626 368.888 799.778 406.912 808.038 448.128C816.298 489.344 814.198 517.54 802.718 529.16C791.238 540.78 778.386 537.868 770.49 528.824C762.594 519.78 770.49 484.752 770.49 484.752C770.49 484.752 755.482 453.308 735.21 432.196C714.938 411.084 711.102 407.976 711.102 407.976C711.102 407.976 738.682 369.532 766.626 368.888Z" fill="white"/>
</mask>
<g mask="url(#mask4_126_1597)">
<path d="M766.626 368.888C738.626 369.532 710.962 408.088 710.962 408.088C710.962 408.088 714.77 411.224 735.07 432.308C738.866 436.306 742.437 440.513 745.766 444.908C756.361 427.011 771.497 412.233 789.642 402.068C782.965 390.35 775.263 379.246 766.626 368.888Z" fill="#EB7100" fill-opacity="0.2"/>
<path opacity="0.5" d="M766.626 368.888C738.626 369.532 710.962 408.088 710.962 408.088C710.962 408.088 714.77 411.224 735.07 432.308C738.866 436.306 742.437 440.513 745.766 444.908C756.361 427.011 771.497 412.233 789.642 402.068C782.965 390.35 775.263 379.246 766.626 368.888Z" fill="white"/>
</g>
<path d="M766.626 368.888C766.626 368.888 799.778 406.912 808.038 448.128C816.298 489.344 814.198 517.54 802.718 529.16C791.238 540.78 778.386 537.868 770.49 528.824C762.594 519.78 770.49 484.752 770.49 484.752C770.49 484.752 755.482 453.308 735.21 432.196C714.938 411.084 711.102 407.976 711.102 407.976C711.102 407.976 738.682 369.532 766.626 368.888Z" stroke="#323232" stroke-width="1.1133" stroke-linecap="round" stroke-linejoin="round"/>
<path d="M802.718 529.16C805.228 519.745 805.931 509.94 804.79 500.264" stroke="#323232" stroke-width="1.1133" stroke-linecap="round" stroke-linejoin="round"/>
<path d="M784.406 535.152C784.406 535.152 790.201 522.692 788.913 502.504" stroke="#323232" stroke-width="1.1133" stroke-linecap="round" stroke-linejoin="round"/>
<path d="M764.918 443.956C764.218 436.648 776.734 421.024 795.494 412.932C798.738 419.458 801.544 426.193 803.894 433.092C796.51 435.151 789.444 438.212 782.894 442.192C773.094 448.772 765.758 452.188 764.918 443.956Z" fill="#EB7100" stroke="#323232" stroke-width="1.1133" stroke-linecap="round" stroke-linejoin="round"/>
<path d="M768.558 371.212C773.708 377.566 778.512 384.193 782.95 391.064C777.218 393.186 771.802 396.078 766.85 399.66C746.606 414.276 742.574 416.068 747.726 397.364C750.946 385.688 760.13 376.98 768.558 371.212Z" fill="#EB7100" stroke="#323232" stroke-width="1.1133" stroke-linecap="round" stroke-linejoin="round"/>
<path d="M534.702 353.628C534.702 353.628 526.078 382.72 529.326 394.564C532.574 406.408 547.638 395.656 562.73 408.564C577.822 421.472 591.794 444.768 648.942 449.08C706.09 453.392 740.586 422.564 752.542 405.316C764.498 388.068 763.322 367.6 783.79 366.536C804.258 365.472 787.038 325.572 780.57 319.104C780.57 319.104 820.442 259.828 820.442 244.736C820.442 229.644 782.726 232.864 736.442 246.892C736.442 246.892 701.946 228.552 639.422 239.332C576.898 250.112 558.586 268.452 558.586 268.452C558.586 268.452 480.97 278.14 475.594 287.828C470.218 297.516 486.206 338.536 534.702 353.628Z" fill="white"/>
<mask id="mask5_126_1597" style="mask-type:luminance" maskUnits="userSpaceOnUse" x="474" y="234" width="347" height="216">
<path d="M534.702 353.628C534.702 353.628 526.078 382.72 529.326 394.564C532.574 406.408 547.638 395.656 562.73 408.564C577.822 421.472 591.794 444.768 648.942 449.08C706.09 453.392 740.586 422.564 752.542 405.316C764.498 388.068 763.322 367.6 783.79 366.536C804.258 365.472 787.038 325.572 780.57 319.104C780.57 319.104 820.442 259.828 820.442 244.736C820.442 229.644 782.726 232.864 736.442 246.892C736.442 246.892 701.946 228.552 639.422 239.332C576.898 250.112 558.586 268.452 558.586 268.452C558.586 268.452 480.97 278.14 475.594 287.828C470.218 297.516 486.206 338.536 534.702 353.628Z" fill="white"/>
</mask>
<g mask="url(#mask5_126_1597)">
<path d="M783.706 366.564C804.202 365.472 786.954 325.6 780.486 319.132C780.486 319.132 788.074 307.932 796.614 293.932C773.458 281.836 750.722 275.116 744.674 281.92C731.654 296.536 738.738 324.536 744.674 351.92C750.61 379.304 726.894 390.98 710.318 414.668C693.742 438.356 670.082 412.288 670.082 412.288C661.682 446.644 626.262 424.132 626.262 424.132C599.046 415.732 552.874 388.628 562.338 369.672C571.802 350.716 574.182 332.964 557.606 317.592C541.03 302.22 474.922 289.424 474.922 289.424C471.45 301.1 488.222 339.348 534.73 353.824C534.73 353.824 526.106 382.916 529.354 394.76C532.602 406.604 547.666 395.852 562.758 408.76C577.85 421.668 591.822 444.964 648.97 449.276C706.118 453.588 740.614 422.76 752.57 405.512C764.526 388.264 763.21 367.628 783.706 366.564Z" fill="#EB7100" fill-opacity="0.2"/>
<path opacity="0.5" d="M783.706 366.564C804.202 365.472 786.954 325.6 780.486 319.132C780.486 319.132 788.074 307.932 796.614 293.932C773.458 281.836 750.722 275.116 744.674 281.92C731.654 296.536 738.738 324.536 744.674 351.92C750.61 379.304 726.894 390.98 710.318 414.668C693.742 438.356 670.082 412.288 670.082 412.288C661.682 446.644 626.262 424.132 626.262 424.132C599.046 415.732 552.874 388.628 562.338 369.672C571.802 350.716 574.182 332.964 557.606 317.592C541.03 302.22 474.922 289.424 474.922 289.424C471.45 301.1 488.222 339.348 534.73 353.824C534.73 353.824 526.106 382.916 529.354 394.76C532.602 406.604 547.666 395.852 562.758 408.76C577.85 421.668 591.822 444.964 648.97 449.276C706.118 453.588 740.614 422.76 752.57 405.512C764.526 388.264 763.21 367.628 783.706 366.564Z" fill="white"/>
<path d="M699.398 373.06C700.21 379.892 685.034 387.256 665.574 389.524C646.114 391.792 629.65 388.096 628.838 381.124C628.026 374.152 643.202 366.956 662.69 364.688C682.178 362.42 698.614 366.256 699.398 373.06Z" fill="#EB7100" fill-opacity="0.2"/>
<path opacity="0.5" d="M699.398 373.06C700.21 379.892 685.034 387.256 665.574 389.524C646.114 391.792 629.65 388.096 628.838 381.124C628.026 374.152 643.202 366.956 662.69 364.688C682.178 362.42 698.614 366.256 699.398 373.06Z" fill="white"/>
</g>
<path d="M534.702 353.628C534.702 353.628 526.078 382.72 529.326 394.564C532.574 406.408 547.638 395.656 562.73 408.564C577.822 421.472 591.794 444.768 648.942 449.08C706.09 453.392 740.586 422.564 752.542 405.316C764.498 388.068 763.322 367.6 783.79 366.536C804.258 365.472 787.038 325.572 780.57 319.104C780.57 319.104 820.442 259.828 820.442 244.736C820.442 229.644 782.726 232.864 736.442 246.892C736.442 246.892 701.946 228.552 639.422 239.332C576.898 250.112 558.586 268.452 558.586 268.452C558.586 268.452 480.97 278.14 475.594 287.828C470.218 297.516 486.206 338.536 534.702 353.628Z" stroke="#323232" stroke-width="1.1133" stroke-miterlimit="10"/>
<path d="M757.638 267.388C729.638 286.204 739.522 305.02 752.038 315.464C759.682 321.848 772.002 321.064 780.43 319.272C780.43 319.272 820.302 259.996 820.302 244.904C820.33 244.764 785.498 248.432 757.638 267.388Z" fill="#D3004C" fill-opacity="0.2" stroke="#323232" stroke-width="1.1133" stroke-miterlimit="10"/>
<path d="M474.894 289.228C471.422 300.904 488.194 339.152 534.702 353.628C534.702 353.628 570.206 350.156 558.362 321.596C547.302 294.94 491.386 288.304 474.894 289.228Z" fill="#D3004C" fill-opacity="0.2" stroke="#323232" stroke-width="1.1133" stroke-miterlimit="10"/>
<path d="M639.254 239.388C635.586 240.032 632.058 240.704 628.67 241.376C634.27 269.656 643.482 316.752 651.714 316.752C659.946 316.752 666.246 265.12 668.934 236.196C658.982 236.615 649.067 237.681 639.254 239.388Z" fill="#EB7100" stroke="#323232" stroke-width="1.1133" stroke-miterlimit="10"/>
<path d="M607.138 308.352C615.706 303.312 614.418 265.428 613.046 244.876C604.202 247.073 595.498 249.794 586.978 253.024C590.086 272.26 597.982 313.728 607.138 308.352Z" fill="#EB7100" stroke="#323232" stroke-width="1.1133" stroke-miterlimit="10"/>
<path d="M690.046 290.936C698.81 294.016 703.738 262.516 706.51 238.268C697.658 236.825 688.709 236.067 679.742 236C679.462 255.908 680.554 287.604 690.046 290.936Z" fill="#EB7100" stroke="#323232" stroke-width="1.1133" stroke-miterlimit="10"/>
<path d="M678.314 399.968C670.137 397.818 661.447 398.891 654.038 402.964C653.713 403.152 653.436 403.413 653.23 403.726C653.024 404.04 652.894 404.397 652.851 404.769C652.807 405.142 652.851 405.52 652.98 405.872C653.108 406.225 653.317 406.542 653.59 406.8L668.458 420.8C668.736 421.061 669.073 421.252 669.44 421.357C669.808 421.463 670.195 421.479 670.569 421.405C670.944 421.331 671.296 421.169 671.596 420.933C671.895 420.696 672.135 420.391 672.294 420.044L679.91 403.244C680.046 402.926 680.112 402.583 680.104 402.237C680.095 401.891 680.012 401.552 679.861 401.241C679.71 400.93 679.493 400.655 679.226 400.436C678.959 400.216 678.648 400.057 678.314 399.968Z" fill="#323232" stroke="#323232" stroke-width="1.1133" stroke-linecap="round" stroke-linejoin="round"/>
<path d="M642.978 376.588C645.022 381.992 644.21 387.312 641.158 388.46C638.106 389.608 633.962 386.192 631.89 380.816C629.818 375.44 630.658 370.092 633.71 368.944C636.762 367.796 640.906 371.212 642.978 376.588Z" fill="#323232"/>
<path d="M683.522 372.752C682.458 378.352 684.194 383.532 687.414 384.12C690.634 384.708 694.106 380.62 695.17 374.936C696.234 369.252 694.498 364.184 691.278 363.568C688.058 362.952 684.586 367.096 683.522 372.752Z" fill="#323232"/>
<path d="M672.294 420.016C672.294 420.016 652.414 447.008 634.298 419.848" stroke="#323232" stroke-width="1.1133" stroke-linecap="round" stroke-linejoin="round"/>
<path d="M668.458 420.772C668.458 420.772 681.674 434.464 695.618 426.792C709.562 419.12 701.218 407.192 701.218 407.192" stroke="#323232" stroke-width="1.1133" stroke-linecap="round" stroke-linejoin="round"/>
<path d="M607.838 355.028C607.838 355.028 612.71 337.612 635.698 341.784" stroke="#323232" stroke-width="3.33991" stroke-linecap="round" stroke-linejoin="round"/>
<path d="M677.502 339.012C677.502 339.012 694.918 328.568 710.934 345.284" stroke="#323232" stroke-width="3.33991" stroke-linecap="round" stroke-linejoin="round"/>
<path d="M594.594 401.732L611.31 405.904" stroke="#323232" stroke-width="1.1133" stroke-miterlimit="10" stroke-linecap="round"/>
<path d="M609.21 412.176L594.594 414.948" stroke="#323232" stroke-width="1.1133" stroke-miterlimit="10" stroke-linecap="round"/>
<path d="M612.01 419.848L601.566 425.42" stroke="#323232" stroke-width="1.1133" stroke-miterlimit="10" stroke-linecap="round"/>
<path d="M717.906 394.06L732.55 390.56" stroke="#323232" stroke-width="1.1133" stroke-miterlimit="10" stroke-linecap="round"/>
<path d="M720.706 401.032H730.45" stroke="#323232" stroke-width="1.1133" stroke-miterlimit="10" stroke-linecap="round"/>
<path d="M722.778 408.004L736.022 411.476" stroke="#323232" stroke-width="1.1133" stroke-miterlimit="10" stroke-linecap="round"/>
</svg>
