<svg width="36" height="36" viewBox="0 0 36 36" fill="none" xmlns="http://www.w3.org/2000/svg">
<circle cx="18" cy="18" r="18" fill="#9486FF" fill-opacity="0.2"/>
<g clip-path="url(#clip0_71_1049)">
<path d="M14.1639 13.9998C13.5845 13.9916 13.0261 13.7815 12.5849 13.4058C11.6637 12.5611 11.1056 11.3923 11.0279 10.1448C10.7849 7.65082 12.1449 6.18082 13.6139 6.01682C13.9678 5.97735 14.3261 6.0096 14.6673 6.11166C15.0086 6.21371 15.3257 6.38348 15.5999 6.61082C16.0091 6.97958 16.3414 7.42566 16.5776 7.92337C16.8137 8.42108 16.9491 8.96058 16.9759 9.51082C17.1999 11.8338 15.9619 13.9998 14.1639 13.9998ZM8.85288 19.9998C8.32076 19.9877 7.81273 19.7756 7.42988 19.4058C6.58337 18.5244 6.08585 17.3656 6.02988 16.1448C5.80988 13.6508 7.03588 12.1808 8.36088 12.0168C8.68387 11.9799 9.01102 12.014 9.31949 12.1165C9.62797 12.2191 9.91033 12.3878 10.1469 12.6108C10.9077 13.3889 11.3503 14.4232 11.3879 15.5108C11.5889 17.8338 10.3589 19.9998 8.85288 19.9998ZM21.8359 13.9998C20.0259 13.9998 18.8019 11.8338 19.0289 9.50782C19.0557 8.95758 19.191 8.41808 19.4272 7.92037C19.6633 7.42266 19.9956 6.97658 20.4049 6.60782C20.6788 6.3818 20.9952 6.21303 21.3355 6.11151C21.6757 6.00999 22.0329 5.9778 22.3859 6.01682C23.8549 6.18082 25.2149 7.65082 24.9719 10.1448C24.8941 11.3926 24.3361 12.5617 23.4149 13.4068C22.9734 13.7819 22.4151 13.9915 21.8359 13.9998ZM27.0529 19.9998C25.1669 19.9998 24.2259 17.8338 24.4379 15.5078C24.4799 14.4133 24.9381 13.376 25.7189 12.6078C25.9666 12.3832 26.2594 12.214 26.5778 12.1115C26.8961 12.0091 27.2326 11.9758 27.5649 12.0138C28.9329 12.1778 30.1999 13.6478 29.9739 16.1418C29.9104 17.3712 29.3934 18.5334 28.5229 19.4038C28.1225 19.7759 27.5994 19.988 27.0529 19.9998ZM21.9999 29.9998C21.1452 30.0166 20.3012 29.808 19.5529 29.3948C19.0741 29.1426 18.5411 29.0108 17.9999 29.0108C17.4587 29.0108 16.9257 29.1426 16.4469 29.3948C13.4339 31.0818 9.92188 29.2268 9.99988 24.9998C9.99988 20.3638 14.5069 15.9998 17.9999 15.9998C21.4929 15.9998 25.9999 20.3638 25.9999 24.9998C25.9999 27.9438 24.3549 29.9998 21.9999 29.9998Z" fill="#4D47C3"/>
</g>
<defs>
<clipPath id="clip0_71_1049">
<rect width="24" height="24" fill="white" transform="translate(6 6)"/>
</clipPath>
</defs>
</svg>
