<svg width="181" height="52" viewBox="0 0 181 52" fill="none" xmlns="http://www.w3.org/2000/svg">
<path d="M174.311 52H7.64396C3.97896 52 0.977295 49.0734 0.977295 45.5V6.5C0.977295 2.92663 3.97896 2.74817e-06 7.64396 2.74817e-06H174.311C177.976 2.74817e-06 180.977 2.92663 180.977 6.5V45.5C180.977 49.0734 177.976 52 174.311 52Z" fill="white"/>
<path d="M174.311 1.04162C177.397 1.04162 179.909 3.4905 179.909 6.5V45.5C179.909 48.5095 177.397 50.9584 174.311 50.9584H7.64396C4.55729 50.9584 2.04563 48.5095 2.04563 45.5V6.5C2.04563 3.4905 4.55729 1.04162 7.64396 1.04162H174.311ZM174.311 2.74817e-06H7.64396C3.97896 2.74817e-06 0.977295 2.92663 0.977295 6.5V45.5C0.977295 49.0734 3.97896 52 7.64396 52H174.311C177.976 52 180.977 49.0734 180.977 45.5V6.5C180.977 2.92663 177.976 2.74817e-06 174.311 2.74817e-06Z" fill="#A6A6A6"/>
<path d="M14.8905 9.80037C14.4989 10.2001 14.2722 10.8225 14.2722 11.6285V40.378C14.2722 41.184 14.4989 41.8064 14.8905 42.2061L14.9872 42.2939L31.5105 26.1901V25.8099L14.9872 9.70612L14.8905 9.80037Z" fill="url(#paint0_linear_54_3243)"/>
<path d="M37.0122 31.5607L31.5105 26.1901V25.8099L37.0188 20.4392L37.1422 20.5091L43.6655 24.128C45.5272 25.155 45.5272 26.845 43.6655 27.8785L37.1422 31.4909L37.0122 31.5607Z" fill="url(#paint1_linear_54_3243)"/>
<path d="M37.1423 31.4909L31.5106 26L14.8906 42.2061C15.509 42.8399 16.5173 42.9162 17.664 42.2825L37.1423 31.4909Z" fill="url(#paint2_linear_54_3243)"/>
<path d="M37.1423 20.5091L17.664 9.71751C16.5173 9.09025 15.509 9.16663 14.8906 9.80038L31.5106 26L37.1423 20.5091Z" fill="url(#paint3_linear_54_3243)"/>
<path d="M57.728 17V15.968H60.044C60.66 15.968 61.2 15.836 61.664 15.572C62.128 15.3 62.488 14.928 62.744 14.456C63.008 13.984 63.14 13.44 63.14 12.824C63.14 12.216 63.008 11.676 62.744 11.204C62.48 10.732 62.116 10.364 61.652 10.1C61.188 9.836 60.652 9.704 60.044 9.704H57.74V8.672H60.068C60.676 8.672 61.236 8.776 61.748 8.984C62.268 9.192 62.716 9.484 63.092 9.86C63.476 10.236 63.772 10.676 63.98 11.18C64.196 11.684 64.304 12.236 64.304 12.836C64.304 13.428 64.196 13.98 63.98 14.492C63.772 14.996 63.48 15.436 63.104 15.812C62.728 16.188 62.28 16.48 61.76 16.688C61.248 16.896 60.692 17 60.092 17H57.728ZM56.984 17V8.672H58.112V17H56.984ZM65.6868 17V11.3H66.7668V17H65.6868ZM66.2268 10.16C66.0268 10.16 65.8628 10.096 65.7348 9.968C65.6068 9.832 65.5428 9.664 65.5428 9.464C65.5428 9.272 65.6068 9.112 65.7348 8.984C65.8628 8.848 66.0268 8.78 66.2268 8.78C66.4268 8.78 66.5908 8.848 66.7188 8.984C66.8468 9.112 66.9108 9.272 66.9108 9.464C66.9108 9.664 66.8468 9.832 66.7188 9.968C66.5908 10.096 66.4268 10.16 66.2268 10.16ZM70.1704 17.12C69.8504 17.12 69.5464 17.08 69.2584 17C68.9784 16.912 68.7184 16.792 68.4784 16.64C68.2384 16.48 68.0304 16.292 67.8544 16.076L68.5504 15.38C68.7584 15.636 68.9984 15.828 69.2704 15.956C69.5424 16.076 69.8464 16.136 70.1824 16.136C70.5184 16.136 70.7784 16.08 70.9624 15.968C71.1464 15.848 71.2384 15.684 71.2384 15.476C71.2384 15.268 71.1624 15.108 71.0104 14.996C70.8664 14.876 70.6784 14.78 70.4464 14.708C70.2144 14.628 69.9664 14.552 69.7024 14.48C69.4464 14.4 69.2024 14.3 68.9704 14.18C68.7384 14.06 68.5464 13.896 68.3944 13.688C68.2504 13.48 68.1784 13.204 68.1784 12.86C68.1784 12.516 68.2624 12.22 68.4304 11.972C68.5984 11.716 68.8304 11.52 69.1264 11.384C69.4304 11.248 69.7944 11.18 70.2184 11.18C70.6664 11.18 71.0624 11.26 71.4064 11.42C71.7584 11.572 72.0464 11.804 72.2704 12.116L71.5744 12.812C71.4144 12.604 71.2144 12.444 70.9744 12.332C70.7424 12.22 70.4784 12.164 70.1824 12.164C69.8704 12.164 69.6304 12.22 69.4624 12.332C69.3024 12.436 69.2224 12.584 69.2224 12.776C69.2224 12.968 69.2944 13.116 69.4384 13.22C69.5824 13.324 69.7704 13.412 70.0024 13.484C70.2424 13.556 70.4904 13.632 70.7464 13.712C71.0024 13.784 71.2464 13.884 71.4784 14.012C71.7104 14.14 71.8984 14.312 72.0424 14.528C72.1944 14.744 72.2704 15.028 72.2704 15.38C72.2704 15.916 72.0784 16.34 71.6944 16.652C71.3184 16.964 70.8104 17.12 70.1704 17.12ZM76.4795 17.12C76.0475 17.12 75.6555 17.032 75.3035 16.856C74.9595 16.672 74.6835 16.42 74.4755 16.1C74.2675 15.78 74.1515 15.416 74.1275 15.008V13.292C74.1515 12.876 74.2675 12.512 74.4755 12.2C74.6915 11.88 74.9715 11.632 75.3155 11.456C75.6675 11.272 76.0555 11.18 76.4795 11.18C76.9995 11.18 77.4675 11.312 77.8835 11.576C78.3075 11.84 78.6395 12.196 78.8795 12.644C79.1195 13.092 79.2395 13.596 79.2395 14.156C79.2395 14.716 79.1195 15.22 78.8795 15.668C78.6395 16.116 78.3075 16.472 77.8835 16.736C77.4675 16.992 76.9995 17.12 76.4795 17.12ZM76.2995 16.1C76.6595 16.1 76.9755 16.016 77.2475 15.848C77.5195 15.68 77.7355 15.452 77.8955 15.164C78.0555 14.868 78.1355 14.528 78.1355 14.144C78.1355 13.768 78.0555 13.432 77.8955 13.136C77.7355 12.84 77.5195 12.612 77.2475 12.452C76.9755 12.284 76.6635 12.2 76.3115 12.2C75.9515 12.2 75.6355 12.284 75.3635 12.452C75.0915 12.612 74.8795 12.84 74.7275 13.136C74.5755 13.432 74.4995 13.772 74.4995 14.156C74.4995 14.532 74.5715 14.868 74.7155 15.164C74.8675 15.452 75.0795 15.68 75.3515 15.848C75.6315 16.016 75.9475 16.1 76.2995 16.1ZM73.4795 19.388V11.3H74.5595V12.8L74.3555 14.18L74.5595 15.572V19.388H73.4795ZM83.0679 17.12C82.5079 17.12 82.0039 16.988 81.5559 16.724C81.1079 16.46 80.7519 16.104 80.4879 15.656C80.2239 15.2 80.0919 14.692 80.0919 14.132C80.0919 13.58 80.2239 13.084 80.4879 12.644C80.7519 12.196 81.1079 11.84 81.5559 11.576C82.0039 11.312 82.5079 11.18 83.0679 11.18C83.6199 11.18 84.1199 11.312 84.5679 11.576C85.0239 11.832 85.3839 12.184 85.6479 12.632C85.9119 13.08 86.0439 13.58 86.0439 14.132C86.0439 14.692 85.9119 15.2 85.6479 15.656C85.3839 16.104 85.0239 16.46 84.5679 16.724C84.1199 16.988 83.6199 17.12 83.0679 17.12ZM83.0679 16.076C83.4279 16.076 83.7479 15.992 84.0279 15.824C84.3079 15.656 84.5279 15.428 84.6879 15.14C84.8479 14.844 84.9279 14.508 84.9279 14.132C84.9279 13.764 84.8439 13.436 84.6759 13.148C84.5159 12.86 84.2959 12.636 84.0159 12.476C83.7439 12.308 83.4279 12.224 83.0679 12.224C82.7079 12.224 82.3879 12.308 82.1079 12.476C81.8279 12.636 81.6079 12.86 81.4479 13.148C81.2879 13.436 81.2079 13.764 81.2079 14.132C81.2079 14.508 81.2879 14.844 81.4479 15.14C81.6079 15.428 81.8279 15.656 82.1079 15.824C82.3879 15.992 82.7079 16.076 83.0679 16.076ZM91.2928 17V13.676C91.2928 13.244 91.1568 12.888 90.8848 12.608C90.6128 12.328 90.2608 12.188 89.8288 12.188C89.5408 12.188 89.2848 12.252 89.0608 12.38C88.8368 12.508 88.6608 12.684 88.5328 12.908C88.4048 13.132 88.3408 13.388 88.3408 13.676L87.8968 13.424C87.8968 12.992 87.9928 12.608 88.1848 12.272C88.3768 11.936 88.6448 11.672 88.9888 11.48C89.3328 11.28 89.7208 11.18 90.1528 11.18C90.5848 11.18 90.9648 11.288 91.2928 11.504C91.6288 11.72 91.8928 12.004 92.0848 12.356C92.2768 12.7 92.3728 13.068 92.3728 13.46V17H91.2928ZM87.2607 17V11.3H88.3408V17H87.2607ZM93.835 17V11.3H94.915V17H93.835ZM93.655 10.448L93.163 9.956L94.723 8.024L95.575 8.876L93.655 10.448ZM98.4511 17L95.8351 11.3H97.0351L99.1351 16.112H98.4391L100.551 11.3H101.703L99.0871 17H98.4511ZM105.041 17.12C104.473 17.12 103.961 16.992 103.505 16.736C103.049 16.472 102.689 16.116 102.425 15.668C102.161 15.22 102.029 14.712 102.029 14.144C102.029 13.584 102.157 13.08 102.413 12.632C102.677 12.184 103.029 11.832 103.469 11.576C103.917 11.312 104.417 11.18 104.969 11.18C105.497 11.18 105.961 11.3 106.361 11.54C106.769 11.78 107.085 12.112 107.309 12.536C107.541 12.96 107.657 13.44 107.657 13.976C107.657 14.056 107.653 14.144 107.645 14.24C107.637 14.328 107.621 14.432 107.597 14.552H102.785V13.652H107.021L106.625 14C106.625 13.616 106.557 13.292 106.421 13.028C106.285 12.756 106.093 12.548 105.845 12.404C105.597 12.252 105.297 12.176 104.945 12.176C104.577 12.176 104.253 12.256 103.973 12.416C103.693 12.576 103.477 12.8 103.325 13.088C103.173 13.376 103.097 13.716 103.097 14.108C103.097 14.508 103.177 14.86 103.337 15.164C103.497 15.46 103.725 15.692 104.021 15.86C104.317 16.02 104.657 16.1 105.041 16.1C105.361 16.1 105.653 16.044 105.917 15.932C106.189 15.82 106.421 15.652 106.613 15.428L107.309 16.136C107.037 16.456 106.701 16.7 106.301 16.868C105.909 17.036 105.489 17.12 105.041 17.12ZM108.835 17V8.432H109.915V17H108.835ZM118.023 17V13.676C118.023 13.244 117.887 12.888 117.615 12.608C117.343 12.328 116.991 12.188 116.559 12.188C116.271 12.188 116.015 12.252 115.791 12.38C115.567 12.508 115.391 12.684 115.263 12.908C115.135 13.132 115.071 13.388 115.071 13.676L114.627 13.424C114.627 12.992 114.723 12.608 114.915 12.272C115.107 11.936 115.375 11.672 115.719 11.48C116.063 11.28 116.451 11.18 116.883 11.18C117.315 11.18 117.695 11.288 118.023 11.504C118.359 11.72 118.623 12.004 118.815 12.356C119.007 12.7 119.103 13.068 119.103 13.46V17H118.023ZM113.991 17V11.3H115.071V17H113.991ZM123.169 17.12C122.609 17.12 122.105 16.988 121.657 16.724C121.209 16.46 120.853 16.104 120.589 15.656C120.325 15.2 120.193 14.692 120.193 14.132C120.193 13.58 120.325 13.084 120.589 12.644C120.853 12.196 121.209 11.84 121.657 11.576C122.105 11.312 122.609 11.18 123.169 11.18C123.721 11.18 124.221 11.312 124.669 11.576C125.125 11.832 125.485 12.184 125.749 12.632C126.013 13.08 126.145 13.58 126.145 14.132C126.145 14.692 126.013 15.2 125.749 15.656C125.485 16.104 125.125 16.46 124.669 16.724C124.221 16.988 123.721 17.12 123.169 17.12ZM123.169 16.076C123.529 16.076 123.849 15.992 124.129 15.824C124.409 15.656 124.629 15.428 124.789 15.14C124.949 14.844 125.029 14.508 125.029 14.132C125.029 13.764 124.945 13.436 124.777 13.148C124.617 12.86 124.397 12.636 124.117 12.476C123.845 12.308 123.529 12.224 123.169 12.224C122.809 12.224 122.489 12.308 122.209 12.476C121.929 12.636 121.709 12.86 121.549 13.148C121.389 13.436 121.309 13.764 121.309 14.132C121.309 14.508 121.389 14.844 121.549 15.14C121.709 15.428 121.929 15.656 122.209 15.824C122.489 15.992 122.809 16.076 123.169 16.076Z" fill="black"/>
<path d="M91.8239 28.2783C88.6923 28.2783 86.1339 30.602 86.1339 33.8081C86.1339 36.9883 88.6923 39.3364 91.8239 39.3364C94.9622 39.3364 97.5206 36.9883 97.5206 33.8081C97.5206 30.602 94.9622 28.2783 91.8239 28.2783ZM91.8239 37.1589C90.1056 37.1589 88.6273 35.776 88.6273 33.8081C88.6273 31.8143 90.1056 30.4558 91.8239 30.4558C93.5423 30.4558 95.0273 31.8143 95.0273 33.8081C95.0273 35.776 93.5423 37.1589 91.8239 37.1589ZM79.4089 28.2783C76.2706 28.2783 73.7189 30.602 73.7189 33.8081C73.7189 36.9883 76.2706 39.3364 79.4089 39.3364C82.5456 39.3364 85.0989 36.9883 85.0989 33.8081C85.0989 30.602 82.5456 28.2783 79.4089 28.2783ZM79.4089 37.1589C77.6889 37.1589 76.2056 35.776 76.2056 33.8081C76.2056 31.8143 77.6889 30.4558 79.4089 30.4558C81.1273 30.4558 82.6056 31.8143 82.6056 33.8081C82.6056 35.776 81.1273 37.1589 79.4089 37.1589ZM64.6356 29.9731V32.3229H70.3906C70.2223 33.6359 69.7723 34.6011 69.0823 35.2739C68.2423 36.0864 66.9339 36.9883 64.6356 36.9883C61.0939 36.9883 58.3206 34.2014 58.3206 30.7483C58.3206 27.2951 61.0939 24.5083 64.6356 24.5083C66.5506 24.5083 67.9439 25.2379 68.9723 26.1836L70.6706 24.5278C69.2323 23.1888 67.3189 22.1601 64.6356 22.1601C59.7789 22.1601 55.6973 26.013 55.6973 30.7483C55.6973 35.4835 59.7789 39.3364 64.6356 39.3364C67.2606 39.3364 69.2323 38.4979 70.7823 36.9249C72.3706 35.3763 72.8656 33.1988 72.8656 31.4405C72.8656 30.8945 72.8189 30.3924 72.7356 29.9731H64.6356ZM125.046 31.7948C124.577 30.5581 123.132 28.2783 120.189 28.2783C117.272 28.2783 114.844 30.5191 114.844 33.8081C114.844 36.9054 117.247 39.3364 120.469 39.3364C123.074 39.3364 124.577 37.7878 125.196 36.8859L123.262 35.6298C122.617 36.5495 121.739 37.1589 120.469 37.1589C119.207 37.1589 118.302 36.595 117.722 35.4835L125.307 32.4236L125.046 31.7948ZM117.312 33.6359C117.247 31.5039 119.011 30.4119 120.274 30.4119C121.264 30.4119 122.104 30.8945 122.384 31.5851L117.312 33.6359ZM111.147 39H113.641V22.75H111.147V39ZM107.064 29.51H106.981C106.421 28.8633 105.352 28.2783 103.999 28.2783C101.159 28.2783 98.5623 30.7093 98.5623 33.826C98.5623 36.9249 101.159 39.3364 103.999 39.3364C105.352 39.3364 106.421 38.7465 106.981 38.0803H107.064V38.8733C107.064 40.9874 105.906 42.1233 104.037 42.1233C102.514 42.1233 101.569 41.0508 101.179 40.1489L99.0106 41.0313C99.6356 42.497 101.291 44.3008 104.037 44.3008C106.961 44.3008 109.427 42.6238 109.427 38.5434V28.6146H107.064V29.51ZM104.212 37.1589C102.494 37.1589 101.056 35.7565 101.056 33.826C101.056 31.8776 102.494 30.4558 104.212 30.4558C105.906 30.4558 107.241 31.8776 107.241 33.826C107.241 35.7565 105.906 37.1589 104.212 37.1589ZM136.719 22.75H130.756V39H133.242V32.8429H136.719C139.481 32.8429 142.189 30.8945 142.189 27.7956C142.189 24.6984 139.474 22.75 136.719 22.75ZM136.784 30.5825H133.242V25.0104H136.784C138.641 25.0104 139.701 26.5135 139.701 27.7956C139.701 29.0534 138.641 30.5825 136.784 30.5825ZM152.156 28.2474C150.359 28.2474 148.491 29.0209 147.722 30.7353L149.929 31.6371C150.404 30.7353 151.277 30.4428 152.201 30.4428C153.491 30.4428 154.799 31.1984 154.819 32.5325V32.7031C154.369 32.4496 153.406 32.0743 152.221 32.0743C149.844 32.0743 147.422 33.3499 147.422 35.7305C147.422 37.908 149.369 39.3104 151.557 39.3104C153.231 39.3104 154.154 38.5743 154.734 37.7179H154.819V38.974H157.221V32.7405C157.221 29.8594 155.014 28.2474 152.156 28.2474ZM151.856 37.1524C151.042 37.1524 149.909 36.7591 149.909 35.776C149.909 34.5183 151.322 34.0356 152.546 34.0356C153.641 34.0356 154.154 34.2713 154.819 34.5816C154.624 36.0864 153.296 37.1524 151.856 37.1524ZM165.971 28.6033L163.112 35.6476H163.027L160.072 28.6033H157.391L161.831 38.4475L159.297 43.9254H161.896L168.737 28.6033H165.971ZM143.556 39H146.049V22.75H143.556V39Z" fill="black"/>
<defs>
<linearGradient id="paint0_linear_54_3243" x1="30.0435" y1="40.6774" x2="8.23334" y2="18.308" gradientUnits="userSpaceOnUse">
<stop stop-color="#00A0FF"/>
<stop offset="0.0066" stop-color="#00A1FF"/>
<stop offset="0.2601" stop-color="#00BEFF"/>
<stop offset="0.5122" stop-color="#00D2FF"/>
<stop offset="0.7604" stop-color="#00DFFF"/>
<stop offset="1" stop-color="#00E3FF"/>
</linearGradient>
<linearGradient id="paint1_linear_54_3243" x1="46.0897" y1="25.9982" x2="13.8272" y2="25.9982" gradientUnits="userSpaceOnUse">
<stop stop-color="#FFE000"/>
<stop offset="0.4087" stop-color="#FFBD00"/>
<stop offset="0.7754" stop-color="#FFA500"/>
<stop offset="1" stop-color="#FF9C00"/>
</linearGradient>
<linearGradient id="paint2_linear_54_3243" x1="34.08" y1="23.0151" x2="4.50365" y2="-7.3196" gradientUnits="userSpaceOnUse">
<stop stop-color="#FF3A44"/>
<stop offset="1" stop-color="#C31162"/>
</linearGradient>
<linearGradient id="paint3_linear_54_3243" x1="10.707" y1="51.7709" x2="23.9142" y2="38.2253" gradientUnits="userSpaceOnUse">
<stop stop-color="#32A071"/>
<stop offset="0.0685" stop-color="#2DA771"/>
<stop offset="0.4762" stop-color="#15CF74"/>
<stop offset="0.8009" stop-color="#06E775"/>
<stop offset="1" stop-color="#00F076"/>
</linearGradient>
</defs>
</svg>
