<svg width="250" height="54" viewBox="0 0 250 54" fill="none" xmlns="http://www.w3.org/2000/svg">
<path d="M0.9 1.72H15.78C21.94 1.72 26.7 2.92 30.06 5.32C33.46 7.72 35.16 11.08 35.16 15.4C35.16 18.12 34.32 20.5 32.64 22.54C31 24.58 28.74 26.16 25.86 27.28C23.02 28.36 19.86 28.9 16.38 28.9H13.86V43H0.9V1.72ZM16.44 20.56C18.56 20.56 20.2 20.12 21.36 19.24C22.52 18.36 23.1 17.08 23.1 15.4C23.1 13.72 22.52 12.46 21.36 11.62C20.24 10.78 18.6 10.36 16.44 10.36H13.86V20.44C14.66 20.52 15.52 20.56 16.44 20.56ZM53.9775 43.48C50.6575 43.48 47.6975 42.82 45.0975 41.5C42.5375 40.14 40.5375 38.3 39.0975 35.98C37.6575 33.62 36.9375 30.96 36.9375 28C36.9375 24.96 37.6775 22.26 39.1575 19.9C40.6375 17.54 42.6375 15.72 45.1575 14.44C47.6775 13.16 50.4775 12.52 53.5575 12.52C56.5175 12.52 59.0375 13.18 61.1175 14.5C63.2375 15.78 64.8175 17.54 65.8575 19.78C66.8975 21.98 67.4175 24.46 67.4175 27.22C67.4175 27.94 67.3775 28.46 67.2975 28.78L49.2975 31.12C49.7775 32.52 50.5575 33.54 51.6375 34.18C52.7175 34.78 54.1375 35.08 55.8975 35.08C58.6175 35.08 61.5575 34.38 64.7175 32.98L66.2175 41.02C62.4975 42.66 58.4175 43.48 53.9775 43.48ZM58.1175 23.56C57.4775 21.04 55.9575 19.78 53.5575 19.78C52.1175 19.78 50.9775 20.32 50.1375 21.4C49.2975 22.48 48.8575 23.88 48.8175 25.6L58.1175 23.56ZM84.9173 43.48C81.3973 43.48 78.6573 42.48 76.6973 40.48C74.7373 38.44 73.7573 35.64 73.7573 32.08V20.38H69.9173V12.94H74.6573L80.2373 1.6H86.2973V12.94H93.2573V20.38H86.2973V30.58C86.2973 31.58 86.6173 32.36 87.2573 32.92C87.8973 33.48 88.7973 33.76 89.9573 33.76C91.0373 33.76 92.0173 33.52 92.8973 33.04L93.3773 41.44C92.3773 42.04 91.0773 42.54 89.4773 42.94C87.9173 43.3 86.3973 43.48 84.9173 43.48Z" fill="white"/>
<path d="M111.532 43.96C105.892 43.96 101.132 42.92 97.2516 40.84L100.252 31.54C104.372 33.02 108.052 33.76 111.292 33.76C113.052 33.76 114.332 33.56 115.132 33.16C115.972 32.72 116.392 32.08 116.392 31.24C116.392 30.68 116.172 30.2 115.732 29.8C115.292 29.36 114.412 28.88 113.092 28.36C111.772 27.84 109.792 27.2 107.152 26.44C103.912 25.48 101.392 23.92 99.5916 21.76C97.7916 19.56 96.8916 17.04 96.8916 14.2C96.8916 9.8 98.3316 6.48 101.212 4.24C104.132 1.96 108.052 0.819999 112.972 0.819999C115.532 0.819999 118.052 1.1 120.532 1.66C123.012 2.18 125.212 2.96 127.132 4L123.892 13.06C121.652 12.3 119.692 11.76 118.012 11.44C116.372 11.08 114.772 10.9 113.212 10.9C110.572 10.9 109.252 11.62 109.252 13.06C109.252 13.78 109.672 14.4 110.512 14.92C111.392 15.4 113.172 16.02 115.852 16.78C120.052 17.9 123.232 19.62 125.392 21.94C127.552 24.22 128.632 26.96 128.632 30.16C128.632 34.6 127.192 38.02 124.312 40.42C121.432 42.78 117.172 43.96 111.532 43.96ZM133.359 3.46L146.019 1.6V19.12C146.899 17 148.219 15.38 149.979 14.26C151.779 13.1 153.939 12.52 156.459 12.52C160.299 12.52 163.299 13.9 165.459 16.66C167.659 19.38 168.759 23.16 168.759 28V43H156.159V26.74C156.159 25.02 155.779 23.7 155.019 22.78C154.299 21.86 153.279 21.4 151.959 21.4C150.999 21.4 150.059 21.72 149.139 22.36C148.219 22.96 147.459 23.84 146.859 25C146.299 26.16 146.019 27.48 146.019 28.96V43H133.359V3.46ZM190.331 43.48C186.971 43.48 183.971 42.82 181.331 41.5C178.731 40.18 176.691 38.36 175.211 36.04C173.771 33.68 173.051 30.98 173.051 27.94C173.051 24.9 173.791 22.22 175.271 19.9C176.751 17.54 178.791 15.72 181.391 14.44C184.031 13.16 187.031 12.52 190.391 12.52C193.791 12.52 196.791 13.18 199.391 14.5C202.031 15.78 204.071 17.58 205.511 19.9C206.951 22.22 207.671 24.9 207.671 27.94C207.671 31.02 206.931 33.74 205.451 36.1C204.011 38.42 201.971 40.24 199.331 41.56C196.731 42.84 193.731 43.48 190.331 43.48ZM190.451 34.48C192.091 34.48 193.431 33.88 194.471 32.68C195.551 31.44 196.091 29.86 196.091 27.94C196.091 26.02 195.551 24.46 194.471 23.26C193.431 22.02 192.091 21.4 190.451 21.4C188.811 21.4 187.451 22.02 186.371 23.26C185.331 24.46 184.811 26.02 184.811 27.94C184.811 29.86 185.331 31.44 186.371 32.68C187.451 33.88 188.811 34.48 190.451 34.48ZM212.168 13.36H224.828V18.58C226.748 14.54 230.008 12.52 234.608 12.52C237.288 12.52 239.748 13.2 241.988 14.56C244.268 15.88 246.048 17.72 247.328 20.08C248.648 22.44 249.308 25.08 249.308 28C249.308 30.92 248.628 33.56 247.268 35.92C245.948 38.28 244.148 40.14 241.868 41.5C239.628 42.82 237.228 43.48 234.668 43.48C230.108 43.48 226.828 41.46 224.828 37.42V50.8L212.168 53.2V13.36ZM230.828 34C232.468 34 233.868 33.4 235.028 32.2C236.188 31 236.768 29.6 236.768 28C236.768 26.32 236.168 24.9 234.968 23.74C233.808 22.58 232.428 22 230.828 22C229.188 22 227.788 22.58 226.628 23.74C225.468 24.86 224.888 26.2 224.888 27.76V28C224.888 29.68 225.468 31.1 226.628 32.26C227.828 33.42 229.228 34 230.828 34Z" fill="#D1CBFF"/>
</svg>
