<svg width="24" height="25" viewBox="0 0 24 25" fill="none" xmlns="http://www.w3.org/2000/svg">
<g clip-path="url(#clip0_54_2958)">
<path d="M8.16388 8.50007C7.58446 8.49183 7.02606 8.28177 6.58488 7.90607C5.66366 7.06135 5.10559 5.89253 5.02788 4.64507C4.78488 2.15107 6.14488 0.681065 7.61388 0.517065C7.96784 0.477592 8.32613 0.509846 8.66735 0.611902C9.00857 0.713959 9.32572 0.883725 9.59988 1.11107C10.0091 1.47983 10.3414 1.92591 10.5776 2.42361C10.8137 2.92132 10.9491 3.46083 10.9759 4.01107C11.1999 6.33407 9.96188 8.50007 8.16388 8.50007ZM2.85288 14.5001C2.32076 14.4879 1.81273 14.2758 1.42988 13.9061C0.583373 13.0247 0.0858537 11.8658 0.0298811 10.6451C-0.190119 8.15107 1.03588 6.68107 2.36088 6.51707C2.68387 6.48017 3.01102 6.5142 3.31949 6.61679C3.62797 6.71939 3.91033 6.88807 4.14688 7.11107C4.90766 7.88919 5.35027 8.92348 5.38788 10.0111C5.58888 12.3341 4.35888 14.5001 2.85288 14.5001ZM15.8359 8.50007C14.0259 8.50007 12.8019 6.33407 13.0289 4.00807C13.0557 3.45783 13.191 2.91832 13.4272 2.42061C13.6633 1.92291 13.9956 1.47683 14.4049 1.10807C14.6788 0.882039 14.9952 0.713271 15.3355 0.611755C15.6757 0.510239 16.0329 0.47804 16.3859 0.517065C17.8549 0.681065 19.2149 2.15107 18.9719 4.64507C18.8941 5.8928 18.3361 7.06191 17.4149 7.90707C16.9734 8.28211 16.4151 8.49178 15.8359 8.50007ZM21.0529 14.5001C19.1669 14.5001 18.2259 12.3341 18.4379 10.0081C18.4799 8.91353 18.9381 7.87629 19.7189 7.10807C19.9666 6.88341 20.2594 6.71421 20.5778 6.61177C20.8961 6.50934 21.2326 6.47603 21.5649 6.51407C22.9329 6.67807 24.1999 8.14807 23.9739 10.6421C23.9104 11.8714 23.3934 13.0336 22.5229 13.9041C22.1225 14.2762 21.5994 14.4883 21.0529 14.5001ZM15.9999 24.5001C15.1452 24.5169 14.3012 24.3082 13.5529 23.8951C13.0741 23.6428 12.5411 23.511 11.9999 23.511C11.4587 23.511 10.9257 23.6428 10.4469 23.8951C7.43388 25.5821 3.92188 23.7271 3.99988 19.5001C3.99988 14.8641 8.50688 10.5001 11.9999 10.5001C15.4929 10.5001 19.9999 14.8641 19.9999 19.5001C19.9999 22.4441 18.3549 24.5001 15.9999 24.5001Z" fill="#4D47C3"/>
</g>
<defs>
<clipPath id="clip0_54_2958">
<rect width="24" height="24" fill="white" transform="translate(0 0.5)"/>
</clipPath>
</defs>
</svg>
