<svg width="240" height="200" viewBox="0 0 240 200" fill="none" xmlns="http://www.w3.org/2000/svg">
<rect width="240" height="200" rx="8" fill="#9486FF"/>
<path d="M61.318 21.96C61.8873 22.0813 62.3447 22.366 62.69 22.814C63.0353 23.2527 63.208 23.7567 63.208 24.326C63.208 25.1473 62.9187 25.8007 62.34 26.286C61.7707 26.762 60.9727 27 59.946 27H55.368V17.172H59.792C60.7907 17.172 61.57 17.4007 62.13 17.858C62.6993 18.3153 62.984 18.936 62.984 19.72C62.984 20.2987 62.83 20.7793 62.522 21.162C62.2233 21.5447 61.822 21.8107 61.318 21.96ZM57.762 21.148H59.33C59.722 21.148 60.0207 21.064 60.226 20.896C60.4407 20.7187 60.548 20.462 60.548 20.126C60.548 19.79 60.4407 19.5333 60.226 19.356C60.0207 19.1787 59.722 19.09 59.33 19.09H57.762V21.148ZM59.526 25.068C59.9273 25.068 60.2353 24.9793 60.45 24.802C60.674 24.6153 60.786 24.3493 60.786 24.004C60.786 23.6587 60.6693 23.388 60.436 23.192C60.212 22.996 59.8993 22.898 59.498 22.898H57.762V25.068H59.526ZM64.1205 23.08C64.1205 22.2773 64.2698 21.5727 64.5685 20.966C64.8765 20.3593 65.2918 19.8927 65.8145 19.566C66.3372 19.2393 66.9205 19.076 67.5645 19.076C68.1152 19.076 68.5958 19.188 69.0065 19.412C69.4265 19.636 69.7485 19.93 69.9725 20.294V19.188H72.3665V27H69.9725V25.894C69.7392 26.258 69.4125 26.552 68.9925 26.776C68.5818 27 68.1012 27.112 67.5505 27.112C66.9158 27.112 66.3372 26.9487 65.8145 26.622C65.2918 26.286 64.8765 25.8147 64.5685 25.208C64.2698 24.592 64.1205 23.8827 64.1205 23.08ZM69.9725 23.094C69.9725 22.4967 69.8045 22.0253 69.4685 21.68C69.1418 21.3347 68.7405 21.162 68.2645 21.162C67.7885 21.162 67.3825 21.3347 67.0465 21.68C66.7198 22.016 66.5565 22.4827 66.5565 23.08C66.5565 23.6773 66.7198 24.1533 67.0465 24.508C67.3825 24.8533 67.7885 25.026 68.2645 25.026C68.7405 25.026 69.1418 24.8533 69.4685 24.508C69.8045 24.1627 69.9725 23.6913 69.9725 23.094ZM75.3025 18.376C74.8825 18.376 74.5371 18.2547 74.2665 18.012C74.0051 17.76 73.8745 17.452 73.8745 17.088C73.8745 16.7147 74.0051 16.4067 74.2665 16.164C74.5371 15.912 74.8825 15.786 75.3025 15.786C75.7131 15.786 76.0491 15.912 76.3105 16.164C76.5811 16.4067 76.7165 16.7147 76.7165 17.088C76.7165 17.452 76.5811 17.76 76.3105 18.012C76.0491 18.2547 75.7131 18.376 75.3025 18.376ZM76.4925 19.188V27H74.0985V19.188H76.4925ZM82.8474 27L81.3494 24.83L80.0894 27H77.4994L80.0754 23.01L77.4294 19.188H80.1174L81.6154 21.344L82.8754 19.188H85.4654L82.8474 23.122L85.5354 27H82.8474ZM93.8218 22.968C93.8218 23.192 93.8078 23.4253 93.7798 23.668H88.3618C88.3992 24.1533 88.5532 24.5267 88.8238 24.788C89.1038 25.04 89.4445 25.166 89.8458 25.166C90.4432 25.166 90.8585 24.914 91.0918 24.41H93.6398C93.5092 24.9233 93.2712 25.3853 92.9258 25.796C92.5898 26.2067 92.1652 26.5287 91.6518 26.762C91.1385 26.9953 90.5645 27.112 89.9298 27.112C89.1645 27.112 88.4832 26.9487 87.8858 26.622C87.2885 26.2953 86.8218 25.8287 86.4858 25.222C86.1498 24.6153 85.9818 23.906 85.9818 23.094C85.9818 22.282 86.1452 21.5727 86.4718 20.966C86.8078 20.3593 87.2745 19.8927 87.8718 19.566C88.4692 19.2393 89.1552 19.076 89.9298 19.076C90.6858 19.076 91.3578 19.2347 91.9458 19.552C92.5338 19.8693 92.9912 20.322 93.3178 20.91C93.6538 21.498 93.8218 22.184 93.8218 22.968ZM91.3718 22.338C91.3718 21.9273 91.2318 21.6007 90.9518 21.358C90.6718 21.1153 90.3218 20.994 89.9018 20.994C89.5005 20.994 89.1598 21.1107 88.8798 21.344C88.6092 21.5773 88.4412 21.9087 88.3758 22.338H91.3718ZM101.608 27.112C100.842 27.112 100.152 26.9487 99.5356 26.622C98.9289 26.2953 98.4483 25.8287 98.0936 25.222C97.7483 24.6153 97.5756 23.906 97.5756 23.094C97.5756 22.2913 97.7529 21.5867 98.1076 20.98C98.4623 20.364 98.9476 19.8927 99.5636 19.566C100.18 19.2393 100.87 19.076 101.636 19.076C102.401 19.076 103.092 19.2393 103.708 19.566C104.324 19.8927 104.809 20.364 105.164 20.98C105.518 21.5867 105.696 22.2913 105.696 23.094C105.696 23.8967 105.514 24.606 105.15 25.222C104.795 25.8287 104.305 26.2953 103.68 26.622C103.064 26.9487 102.373 27.112 101.608 27.112ZM101.608 25.04C102.065 25.04 102.452 24.872 102.77 24.536C103.096 24.2 103.26 23.7193 103.26 23.094C103.26 22.4687 103.101 21.988 102.784 21.652C102.476 21.316 102.093 21.148 101.636 21.148C101.169 21.148 100.782 21.316 100.474 21.652C100.166 21.9787 100.012 22.4593 100.012 23.094C100.012 23.7193 100.161 24.2 100.46 24.536C100.768 24.872 101.15 25.04 101.608 25.04ZM118.724 27H116.33L112.326 20.938V27H109.932V17.172H112.326L116.33 23.262V17.172H118.724V27ZM124.016 27.112C123.25 27.112 122.56 26.9487 121.944 26.622C121.337 26.2953 120.856 25.8287 120.502 25.222C120.156 24.6153 119.984 23.906 119.984 23.094C119.984 22.2913 120.161 21.5867 120.516 20.98C120.87 20.364 121.356 19.8927 121.972 19.566C122.588 19.2393 123.278 19.076 124.044 19.076C124.809 19.076 125.5 19.2393 126.116 19.566C126.732 19.8927 127.217 20.364 127.572 20.98C127.926 21.5867 128.104 22.2913 128.104 23.094C128.104 23.8967 127.922 24.606 127.558 25.222C127.203 25.8287 126.713 26.2953 126.088 26.622C125.472 26.9487 124.781 27.112 124.016 27.112ZM124.016 25.04C124.473 25.04 124.86 24.872 125.178 24.536C125.504 24.2 125.668 23.7193 125.668 23.094C125.668 22.4687 125.509 21.988 125.192 21.652C124.884 21.316 124.501 21.148 124.044 21.148C123.577 21.148 123.19 21.316 122.882 21.652C122.574 21.9787 122.42 22.4593 122.42 23.094C122.42 23.7193 122.569 24.2 122.868 24.536C123.176 24.872 123.558 25.04 124.016 25.04ZM132.552 27.112C131.871 27.112 131.264 26.9953 130.732 26.762C130.2 26.5287 129.78 26.2113 129.472 25.81C129.164 25.3993 128.991 24.942 128.954 24.438H131.32C131.348 24.7087 131.474 24.928 131.698 25.096C131.922 25.264 132.197 25.348 132.524 25.348C132.823 25.348 133.051 25.292 133.21 25.18C133.378 25.0587 133.462 24.9047 133.462 24.718C133.462 24.494 133.345 24.3307 133.112 24.228C132.879 24.116 132.501 23.9947 131.978 23.864C131.418 23.7333 130.951 23.598 130.578 23.458C130.205 23.3087 129.883 23.08 129.612 22.772C129.341 22.4547 129.206 22.03 129.206 21.498C129.206 21.05 129.327 20.644 129.57 20.28C129.822 19.9067 130.186 19.6127 130.662 19.398C131.147 19.1833 131.721 19.076 132.384 19.076C133.364 19.076 134.134 19.3187 134.694 19.804C135.263 20.2893 135.59 20.9333 135.674 21.736H133.462C133.425 21.4653 133.303 21.2507 133.098 21.092C132.902 20.9333 132.641 20.854 132.314 20.854C132.034 20.854 131.819 20.91 131.67 21.022C131.521 21.1247 131.446 21.2693 131.446 21.456C131.446 21.68 131.563 21.848 131.796 21.96C132.039 22.072 132.412 22.184 132.916 22.296C133.495 22.4453 133.966 22.5947 134.33 22.744C134.694 22.884 135.011 23.1173 135.282 23.444C135.562 23.7613 135.707 24.1907 135.716 24.732C135.716 25.1893 135.585 25.6 135.324 25.964C135.072 26.3187 134.703 26.5987 134.218 26.804C133.742 27.0093 133.187 27.112 132.552 27.112ZM140.359 27.112C139.677 27.112 139.071 26.9953 138.539 26.762C138.007 26.5287 137.587 26.2113 137.279 25.81C136.971 25.3993 136.798 24.942 136.761 24.438H139.127C139.155 24.7087 139.281 24.928 139.505 25.096C139.729 25.264 140.004 25.348 140.331 25.348C140.629 25.348 140.858 25.292 141.017 25.18C141.185 25.0587 141.269 24.9047 141.269 24.718C141.269 24.494 141.152 24.3307 140.919 24.228C140.685 24.116 140.307 23.9947 139.785 23.864C139.225 23.7333 138.758 23.598 138.385 23.458C138.011 23.3087 137.689 23.08 137.419 22.772C137.148 22.4547 137.013 22.03 137.013 21.498C137.013 21.05 137.134 20.644 137.377 20.28C137.629 19.9067 137.993 19.6127 138.469 19.398C138.954 19.1833 139.528 19.076 140.191 19.076C141.171 19.076 141.941 19.3187 142.501 19.804C143.07 20.2893 143.397 20.9333 143.481 21.736H141.269C141.231 21.4653 141.11 21.2507 140.905 21.092C140.709 20.9333 140.447 20.854 140.121 20.854C139.841 20.854 139.626 20.91 139.477 21.022C139.327 21.1247 139.253 21.2693 139.253 21.456C139.253 21.68 139.369 21.848 139.603 21.96C139.845 22.072 140.219 22.184 140.723 22.296C141.301 22.4453 141.773 22.5947 142.137 22.744C142.501 22.884 142.818 23.1173 143.089 23.444C143.369 23.7613 143.513 24.1907 143.523 24.732C143.523 25.1893 143.392 25.6 143.131 25.964C142.879 26.3187 142.51 26.5987 142.025 26.804C141.549 27.0093 140.993 27.112 140.359 27.112ZM148.543 27.112C147.778 27.112 147.087 26.9487 146.471 26.622C145.864 26.2953 145.384 25.8287 145.029 25.222C144.684 24.6153 144.511 23.906 144.511 23.094C144.511 22.2913 144.688 21.5867 145.043 20.98C145.398 20.364 145.883 19.8927 146.499 19.566C147.115 19.2393 147.806 19.076 148.571 19.076C149.336 19.076 150.027 19.2393 150.643 19.566C151.259 19.8927 151.744 20.364 152.099 20.98C152.454 21.5867 152.631 22.2913 152.631 23.094C152.631 23.8967 152.449 24.606 152.085 25.222C151.73 25.8287 151.24 26.2953 150.615 26.622C149.999 26.9487 149.308 27.112 148.543 27.112ZM148.543 25.04C149 25.04 149.388 24.872 149.705 24.536C150.032 24.2 150.195 23.7193 150.195 23.094C150.195 22.4687 150.036 21.988 149.719 21.652C149.411 21.316 149.028 21.148 148.571 21.148C148.104 21.148 147.717 21.316 147.409 21.652C147.101 21.9787 146.947 22.4593 146.947 23.094C146.947 23.7193 147.096 24.2 147.395 24.536C147.703 24.872 148.086 25.04 148.543 25.04ZM162.986 25.264H159.318L158.73 27H156.224L159.78 17.172H162.552L166.108 27H163.574L162.986 25.264ZM162.37 23.416L161.152 19.818L159.948 23.416H162.37ZM169.584 20.294C169.818 19.93 170.14 19.636 170.55 19.412C170.961 19.188 171.442 19.076 171.992 19.076C172.636 19.076 173.22 19.2393 173.742 19.566C174.265 19.8927 174.676 20.3593 174.974 20.966C175.282 21.5727 175.436 22.2773 175.436 23.08C175.436 23.8827 175.282 24.592 174.974 25.208C174.676 25.8147 174.265 26.286 173.742 26.622C173.22 26.9487 172.636 27.112 171.992 27.112C171.451 27.112 170.97 27 170.55 26.776C170.14 26.552 169.818 26.2627 169.584 25.908V30.724H167.19V19.188H169.584V20.294ZM173 23.08C173 22.4827 172.832 22.016 172.496 21.68C172.17 21.3347 171.764 21.162 171.278 21.162C170.802 21.162 170.396 21.3347 170.06 21.68C169.734 22.0253 169.57 22.4967 169.57 23.094C169.57 23.6913 169.734 24.1627 170.06 24.508C170.396 24.8533 170.802 25.026 171.278 25.026C171.754 25.026 172.16 24.8533 172.496 24.508C172.832 24.1533 173 23.6773 173 23.08ZM179.086 20.294C179.32 19.93 179.642 19.636 180.052 19.412C180.463 19.188 180.944 19.076 181.494 19.076C182.138 19.076 182.722 19.2393 183.244 19.566C183.767 19.8927 184.178 20.3593 184.476 20.966C184.784 21.5727 184.938 22.2773 184.938 23.08C184.938 23.8827 184.784 24.592 184.476 25.208C184.178 25.8147 183.767 26.286 183.244 26.622C182.722 26.9487 182.138 27.112 181.494 27.112C180.953 27.112 180.472 27 180.052 26.776C179.642 26.552 179.32 26.2627 179.086 25.908V30.724H176.692V19.188H179.086V20.294ZM182.502 23.08C182.502 22.4827 182.334 22.016 181.998 21.68C181.672 21.3347 181.266 21.162 180.78 21.162C180.304 21.162 179.898 21.3347 179.562 21.68C179.236 22.0253 179.072 22.4967 179.072 23.094C179.072 23.6913 179.236 24.1627 179.562 24.508C179.898 24.8533 180.304 25.026 180.78 25.026C181.256 25.026 181.662 24.8533 181.998 24.508C182.334 24.1533 182.502 23.6773 182.502 23.08Z" fill="white"/>
<g clip-path="url(#clip0_54_3429)">
<g clip-path="url(#clip1_54_3429)">
<path d="M116 67H16V167H116V67Z" fill="white"/>
<path d="M58 77H54.8V80.2H58V77Z" fill="#323232"/>
<path d="M74 77H70.8V80.2H74V77Z" fill="#323232"/>
<path d="M80.4 77H77.2V80.2H80.4V77Z" fill="#323232"/>
<path d="M54.8001 80.2H51.6001V83.4H54.8001V80.2Z" fill="#323232"/>
<path d="M58 80.2H54.8V83.4H58V80.2Z" fill="#323232"/>
<path d="M64.4 80.2H61.2V83.4H64.4V80.2Z" fill="#323232"/>
<path d="M67.5999 80.2H64.3999V83.4H67.5999V80.2Z" fill="#323232"/>
<path d="M70.8001 80.2H67.6001V83.4H70.8001V80.2Z" fill="#323232"/>
<path d="M74 80.2H70.8V83.4H74V80.2Z" fill="#323232"/>
<path d="M58 83.4H54.8V86.6H58V83.4Z" fill="#323232"/>
<path d="M61.2 83.4H58V86.6H61.2V83.4Z" fill="#323232"/>
<path d="M64.4 83.4H61.2V86.6H64.4V83.4Z" fill="#323232"/>
<path d="M54.8001 86.6H51.6001V89.8H54.8001V86.6Z" fill="#323232"/>
<path d="M58 86.6H54.8V89.8H58V86.6Z" fill="#323232"/>
<path d="M64.4 86.6H61.2V89.8H64.4V86.6Z" fill="#323232"/>
<path d="M70.8001 86.6H67.6001V89.8H70.8001V86.6Z" fill="#323232"/>
<path d="M77.2 86.6H74V89.8H77.2V86.6Z" fill="#323232"/>
<path d="M80.4 86.6H77.2V89.8H80.4V86.6Z" fill="#323232"/>
<path d="M61.2 89.8H58V93H61.2V89.8Z" fill="#323232"/>
<path d="M67.5999 89.8H64.3999V93H67.5999V89.8Z" fill="#323232"/>
<path d="M77.2 89.8H74V93H77.2V89.8Z" fill="#323232"/>
<path d="M80.4 89.8H77.2V93H80.4V89.8Z" fill="#323232"/>
<path d="M54.8001 93H51.6001V96.2H54.8001V93Z" fill="#323232"/>
<path d="M61.2 93H58V96.2H61.2V93Z" fill="#323232"/>
<path d="M70.8001 93H67.6001V96.2H70.8001V93Z" fill="#323232"/>
<path d="M74 93H70.8V96.2H74V93Z" fill="#323232"/>
<path d="M77.2 93H74V96.2H77.2V93Z" fill="#323232"/>
<path d="M54.8001 96.2H51.6001V99.4H54.8001V96.2Z" fill="#323232"/>
<path d="M61.2 96.2H58V99.4H61.2V96.2Z" fill="#323232"/>
<path d="M67.5999 96.2H64.3999V99.4H67.5999V96.2Z" fill="#323232"/>
<path d="M74 96.2H70.8V99.4H74V96.2Z" fill="#323232"/>
<path d="M80.4 96.2H77.2V99.4H80.4V96.2Z" fill="#323232"/>
<path d="M67.5999 99.4H64.3999V102.6H67.5999V99.4Z" fill="#323232"/>
<path d="M80.4 99.4H77.2V102.6H80.4V99.4Z" fill="#323232"/>
<path d="M29.2 102.6H26V105.8H29.2V102.6Z" fill="#323232"/>
<path d="M32.4 102.6H29.2V105.8H32.4V102.6Z" fill="#323232"/>
<path d="M35.5999 102.6H32.3999V105.8H35.5999V102.6Z" fill="#323232"/>
<path d="M38.8001 102.6H35.6001V105.8H38.8001V102.6Z" fill="#323232"/>
<path d="M42 102.6H38.8V105.8H42V102.6Z" fill="#323232"/>
<path d="M48.4 102.6H45.2V105.8H48.4V102.6Z" fill="#323232"/>
<path d="M51.5999 102.6H48.3999V105.8H51.5999V102.6Z" fill="#323232"/>
<path d="M54.8001 102.6H51.6001V105.8H54.8001V102.6Z" fill="#323232"/>
<path d="M58 102.6H54.8V105.8H58V102.6Z" fill="#323232"/>
<path d="M61.2 102.6H58V105.8H61.2V102.6Z" fill="#323232"/>
<path d="M67.5999 102.6H64.3999V105.8H67.5999V102.6Z" fill="#323232"/>
<path d="M74 102.6H70.8V105.8H74V102.6Z" fill="#323232"/>
<path d="M77.2 102.6H74V105.8H77.2V102.6Z" fill="#323232"/>
<path d="M83.5999 102.6H80.3999V105.8H83.5999V102.6Z" fill="#323232"/>
<path d="M90 102.6H86.8V105.8H90V102.6Z" fill="#323232"/>
<path d="M96.4 102.6H93.2V105.8H96.4V102.6Z" fill="#323232"/>
<path d="M102.8 102.6H99.6001V105.8H102.8V102.6Z" fill="#323232"/>
<path d="M29.2 105.8H26V109H29.2V105.8Z" fill="#323232"/>
<path d="M32.4 105.8H29.2V109H32.4V105.8Z" fill="#323232"/>
<path d="M51.5999 105.8H48.3999V109H51.5999V105.8Z" fill="#323232"/>
<path d="M58 105.8H54.8V109H58V105.8Z" fill="#323232"/>
<path d="M74 105.8H70.8V109H74V105.8Z" fill="#323232"/>
<path d="M77.2 105.8H74V109H77.2V105.8Z" fill="#323232"/>
<path d="M80.4 105.8H77.2V109H80.4V105.8Z" fill="#323232"/>
<path d="M83.5999 105.8H80.3999V109H83.5999V105.8Z" fill="#323232"/>
<path d="M90 105.8H86.8V109H90V105.8Z" fill="#323232"/>
<path d="M93.2 105.8H90V109H93.2V105.8Z" fill="#323232"/>
<path d="M106 105.8H102.8V109H106V105.8Z" fill="#323232"/>
<path d="M32.4 109H29.2V112.2H32.4V109Z" fill="#323232"/>
<path d="M38.8001 109H35.6001V112.2H38.8001V109Z" fill="#323232"/>
<path d="M42 109H38.8V112.2H42V109Z" fill="#323232"/>
<path d="M45.2 109H42V112.2H45.2V109Z" fill="#323232"/>
<path d="M48.4 109H45.2V112.2H48.4V109Z" fill="#323232"/>
<path d="M58 109H54.8V112.2H58V109Z" fill="#323232"/>
<path d="M64.4 109H61.2V112.2H64.4V109Z" fill="#323232"/>
<path d="M67.5999 109H64.3999V112.2H67.5999V109Z" fill="#323232"/>
<path d="M70.8001 109H67.6001V112.2H70.8001V109Z" fill="#323232"/>
<path d="M74 109H70.8V112.2H74V109Z" fill="#323232"/>
<path d="M77.2 109H74V112.2H77.2V109Z" fill="#323232"/>
<path d="M83.5999 109H80.3999V112.2H83.5999V109Z" fill="#323232"/>
<path d="M86.8001 109H83.6001V112.2H86.8001V109Z" fill="#323232"/>
<path d="M93.2 109H90V112.2H93.2V109Z" fill="#323232"/>
<path d="M99.5999 109H96.3999V112.2H99.5999V109Z" fill="#323232"/>
<path d="M29.2 112.2H26V115.4H29.2V112.2Z" fill="#323232"/>
<path d="M38.8001 112.2H35.6001V115.4H38.8001V112.2Z" fill="#323232"/>
<path d="M54.8001 112.2H51.6001V115.4H54.8001V112.2Z" fill="#323232"/>
<path d="M58 112.2H54.8V115.4H58V112.2Z" fill="#323232"/>
<path d="M61.2 112.2H58V115.4H61.2V112.2Z" fill="#323232"/>
<path d="M64.4 112.2H61.2V115.4H64.4V112.2Z" fill="#323232"/>
<path d="M74 112.2H70.8V115.4H74V112.2Z" fill="#323232"/>
<path d="M80.4 112.2H77.2V115.4H80.4V112.2Z" fill="#323232"/>
<path d="M83.5999 112.2H80.3999V115.4H83.5999V112.2Z" fill="#323232"/>
<path d="M32.4 115.4H29.2V118.6H32.4V115.4Z" fill="#323232"/>
<path d="M38.8001 115.4H35.6001V118.6H38.8001V115.4Z" fill="#323232"/>
<path d="M42 115.4H38.8V118.6H42V115.4Z" fill="#323232"/>
<path d="M48.4 115.4H45.2V118.6H48.4V115.4Z" fill="#323232"/>
<path d="M51.5999 115.4H48.3999V118.6H51.5999V115.4Z" fill="#323232"/>
<path d="M54.8001 115.4H51.6001V118.6H54.8001V115.4Z" fill="#323232"/>
<path d="M58 115.4H54.8V118.6H58V115.4Z" fill="#323232"/>
<path d="M64.4 115.4H61.2V118.6H64.4V115.4Z" fill="#323232"/>
<path d="M77.2 115.4H74V118.6H77.2V115.4Z" fill="#323232"/>
<path d="M86.8001 115.4H83.6001V118.6H86.8001V115.4Z" fill="#323232"/>
<path d="M90 115.4H86.8V118.6H90V115.4Z" fill="#323232"/>
<path d="M93.2 115.4H90V118.6H93.2V115.4Z" fill="#323232"/>
<path d="M96.4 115.4H93.2V118.6H96.4V115.4Z" fill="#323232"/>
<path d="M102.8 115.4H99.6001V118.6H102.8V115.4Z" fill="#323232"/>
<path d="M106 115.4H102.8V118.6H106V115.4Z" fill="#323232"/>
<path d="M29.2 118.6H26V121.8H29.2V118.6Z" fill="#323232"/>
<path d="M32.4 118.6H29.2V121.8H32.4V118.6Z" fill="#323232"/>
<path d="M35.5999 118.6H32.3999V121.8H35.5999V118.6Z" fill="#323232"/>
<path d="M54.8001 118.6H51.6001V121.8H54.8001V118.6Z" fill="#323232"/>
<path d="M61.2 118.6H58V121.8H61.2V118.6Z" fill="#323232"/>
<path d="M67.5999 118.6H64.3999V121.8H67.5999V118.6Z" fill="#323232"/>
<path d="M74 118.6H70.8V121.8H74V118.6Z" fill="#323232"/>
<path d="M80.4 118.6H77.2V121.8H80.4V118.6Z" fill="#323232"/>
<path d="M83.5999 118.6H80.3999V121.8H83.5999V118.6Z" fill="#323232"/>
<path d="M86.8001 118.6H83.6001V121.8H86.8001V118.6Z" fill="#323232"/>
<path d="M90 118.6H86.8V121.8H90V118.6Z" fill="#323232"/>
<path d="M93.2 118.6H90V121.8H93.2V118.6Z" fill="#323232"/>
<path d="M29.2 121.8H26V125H29.2V121.8Z" fill="#323232"/>
<path d="M35.5999 121.8H32.3999V125H35.5999V121.8Z" fill="#323232"/>
<path d="M38.8001 121.8H35.6001V125H38.8001V121.8Z" fill="#323232"/>
<path d="M48.4 121.8H45.2V125H48.4V121.8Z" fill="#323232"/>
<path d="M51.5999 121.8H48.3999V125H51.5999V121.8Z" fill="#323232"/>
<path d="M58 121.8H54.8V125H58V121.8Z" fill="#323232"/>
<path d="M74 121.8H70.8V125H74V121.8Z" fill="#323232"/>
<path d="M83.5999 121.8H80.3999V125H83.5999V121.8Z" fill="#323232"/>
<path d="M86.8001 121.8H83.6001V125H86.8001V121.8Z" fill="#323232"/>
<path d="M93.2 121.8H90V125H93.2V121.8Z" fill="#323232"/>
<path d="M99.5999 121.8H96.3999V125H99.5999V121.8Z" fill="#323232"/>
<path d="M102.8 121.8H99.6001V125H102.8V121.8Z" fill="#323232"/>
<path d="M106 121.8H102.8V125H106V121.8Z" fill="#323232"/>
<path d="M29.2 125H26V128.2H29.2V125Z" fill="#323232"/>
<path d="M42 125H38.8V128.2H42V125Z" fill="#323232"/>
<path d="M51.5999 125H48.3999V128.2H51.5999V125Z" fill="#323232"/>
<path d="M54.8001 125H51.6001V128.2H54.8001V125Z" fill="#323232"/>
<path d="M61.2 125H58V128.2H61.2V125Z" fill="#323232"/>
<path d="M67.5999 125H64.3999V128.2H67.5999V125Z" fill="#323232"/>
<path d="M70.8001 125H67.6001V128.2H70.8001V125Z" fill="#323232"/>
<path d="M74 125H70.8V128.2H74V125Z" fill="#323232"/>
<path d="M83.5999 125H80.3999V128.2H83.5999V125Z" fill="#323232"/>
<path d="M102.8 125H99.6001V128.2H102.8V125Z" fill="#323232"/>
<path d="M106 125H102.8V128.2H106V125Z" fill="#323232"/>
<path d="M29.2 128.2H26V131.4H29.2V128.2Z" fill="#323232"/>
<path d="M38.8001 128.2H35.6001V131.4H38.8001V128.2Z" fill="#323232"/>
<path d="M42 128.2H38.8V131.4H42V128.2Z" fill="#323232"/>
<path d="M48.4 128.2H45.2V131.4H48.4V128.2Z" fill="#323232"/>
<path d="M54.8001 128.2H51.6001V131.4H54.8001V128.2Z" fill="#323232"/>
<path d="M58 128.2H54.8V131.4H58V128.2Z" fill="#323232"/>
<path d="M61.2 128.2H58V131.4H61.2V128.2Z" fill="#323232"/>
<path d="M67.5999 128.2H64.3999V131.4H67.5999V128.2Z" fill="#323232"/>
<path d="M77.2 128.2H74V131.4H77.2V128.2Z" fill="#323232"/>
<path d="M80.4 128.2H77.2V131.4H80.4V128.2Z" fill="#323232"/>
<path d="M83.5999 128.2H80.3999V131.4H83.5999V128.2Z" fill="#323232"/>
<path d="M86.8001 128.2H83.6001V131.4H86.8001V128.2Z" fill="#323232"/>
<path d="M90 128.2H86.8V131.4H90V128.2Z" fill="#323232"/>
<path d="M93.2 128.2H90V131.4H93.2V128.2Z" fill="#323232"/>
<path d="M96.4 128.2H93.2V131.4H96.4V128.2Z" fill="#323232"/>
<path d="M106 128.2H102.8V131.4H106V128.2Z" fill="#323232"/>
<path d="M54.8001 131.4H51.6001V134.6H54.8001V131.4Z" fill="#323232"/>
<path d="M80.4 131.4H77.2V134.6H80.4V131.4Z" fill="#323232"/>
<path d="M93.2 131.4H90V134.6H93.2V131.4Z" fill="#323232"/>
<path d="M106 131.4H102.8V134.6H106V131.4Z" fill="#323232"/>
<path d="M54.8001 134.6H51.6001V137.8H54.8001V134.6Z" fill="#323232"/>
<path d="M58 134.6H54.8V137.8H58V134.6Z" fill="#323232"/>
<path d="M61.2 134.6H58V137.8H61.2V134.6Z" fill="#323232"/>
<path d="M64.4 134.6H61.2V137.8H64.4V134.6Z" fill="#323232"/>
<path d="M67.5999 134.6H64.3999V137.8H67.5999V134.6Z" fill="#323232"/>
<path d="M74 134.6H70.8V137.8H74V134.6Z" fill="#323232"/>
<path d="M80.4 134.6H77.2V137.8H80.4V134.6Z" fill="#323232"/>
<path d="M86.8001 134.6H83.6001V137.8H86.8001V134.6Z" fill="#323232"/>
<path d="M93.2 134.6H90V137.8H93.2V134.6Z" fill="#323232"/>
<path d="M99.5999 134.6H96.3999V137.8H99.5999V134.6Z" fill="#323232"/>
<path d="M102.8 134.6H99.6001V137.8H102.8V134.6Z" fill="#323232"/>
<path d="M106 134.6H102.8V137.8H106V134.6Z" fill="#323232"/>
<path d="M64.4 137.8H61.2V141H64.4V137.8Z" fill="#323232"/>
<path d="M80.4 137.8H77.2V141H80.4V137.8Z" fill="#323232"/>
<path d="M93.2 137.8H90V141H93.2V137.8Z" fill="#323232"/>
<path d="M96.4 137.8H93.2V141H96.4V137.8Z" fill="#323232"/>
<path d="M54.8001 141H51.6001V144.2H54.8001V141Z" fill="#323232"/>
<path d="M58 141H54.8V144.2H58V141Z" fill="#323232"/>
<path d="M61.2 141H58V144.2H61.2V141Z" fill="#323232"/>
<path d="M64.4 141H61.2V144.2H64.4V141Z" fill="#323232"/>
<path d="M67.5999 141H64.3999V144.2H67.5999V141Z" fill="#323232"/>
<path d="M74 141H70.8V144.2H74V141Z" fill="#323232"/>
<path d="M80.4 141H77.2V144.2H80.4V141Z" fill="#323232"/>
<path d="M83.5999 141H80.3999V144.2H83.5999V141Z" fill="#323232"/>
<path d="M86.8001 141H83.6001V144.2H86.8001V141Z" fill="#323232"/>
<path d="M90 141H86.8V144.2H90V141Z" fill="#323232"/>
<path d="M93.2 141H90V144.2H93.2V141Z" fill="#323232"/>
<path d="M96.4 141H93.2V144.2H96.4V141Z" fill="#323232"/>
<path d="M54.8001 144.2H51.6001V147.4H54.8001V144.2Z" fill="#323232"/>
<path d="M58 144.2H54.8V147.4H58V144.2Z" fill="#323232"/>
<path d="M67.5999 144.2H64.3999V147.4H67.5999V144.2Z" fill="#323232"/>
<path d="M74 144.2H70.8V147.4H74V144.2Z" fill="#323232"/>
<path d="M77.2 144.2H74V147.4H77.2V144.2Z" fill="#323232"/>
<path d="M80.4 144.2H77.2V147.4H80.4V144.2Z" fill="#323232"/>
<path d="M86.8001 144.2H83.6001V147.4H86.8001V144.2Z" fill="#323232"/>
<path d="M93.2 144.2H90V147.4H93.2V144.2Z" fill="#323232"/>
<path d="M102.8 144.2H99.6001V147.4H102.8V144.2Z" fill="#323232"/>
<path d="M106 144.2H102.8V147.4H106V144.2Z" fill="#323232"/>
<path d="M54.8001 147.4H51.6001V150.6H54.8001V147.4Z" fill="#323232"/>
<path d="M67.5999 147.4H64.3999V150.6H67.5999V147.4Z" fill="#323232"/>
<path d="M70.8001 147.4H67.6001V150.6H70.8001V147.4Z" fill="#323232"/>
<path d="M74 147.4H70.8V150.6H74V147.4Z" fill="#323232"/>
<path d="M93.2 147.4H90V150.6H93.2V147.4Z" fill="#323232"/>
<path d="M99.5999 147.4H96.3999V150.6H99.5999V147.4Z" fill="#323232"/>
<path d="M106 147.4H102.8V150.6H106V147.4Z" fill="#323232"/>
<path d="M54.8001 150.6H51.6001V153.8H54.8001V150.6Z" fill="#323232"/>
<path d="M58 150.6H54.8V153.8H58V150.6Z" fill="#323232"/>
<path d="M67.5999 150.6H64.3999V153.8H67.5999V150.6Z" fill="#323232"/>
<path d="M70.8001 150.6H67.6001V153.8H70.8001V150.6Z" fill="#323232"/>
<path d="M80.4 150.6H77.2V153.8H80.4V150.6Z" fill="#323232"/>
<path d="M83.5999 150.6H80.3999V153.8H83.5999V150.6Z" fill="#323232"/>
<path d="M86.8001 150.6H83.6001V153.8H86.8001V150.6Z" fill="#323232"/>
<path d="M90 150.6H86.8V153.8H90V150.6Z" fill="#323232"/>
<path d="M93.2 150.6H90V153.8H93.2V150.6Z" fill="#323232"/>
<path d="M96.4 150.6H93.2V153.8H96.4V150.6Z" fill="#323232"/>
<path d="M102.8 150.6H99.6001V153.8H102.8V150.6Z" fill="#323232"/>
<path d="M54.8001 153.8H51.6001V157H54.8001V153.8Z" fill="#323232"/>
<path d="M58 153.8H54.8V157H58V153.8Z" fill="#323232"/>
<path d="M61.2 153.8H58V157H61.2V153.8Z" fill="#323232"/>
<path d="M67.5999 153.8H64.3999V157H67.5999V153.8Z" fill="#323232"/>
<path d="M77.2 153.8H74V157H77.2V153.8Z" fill="#323232"/>
<path d="M99.5999 153.8H96.3999V157H99.5999V153.8Z" fill="#323232"/>
<path d="M102.8 153.8H99.6001V157H102.8V153.8Z" fill="#323232"/>
<path d="M106 153.8H102.8V157H106V153.8Z" fill="#323232"/>
<g clip-path="url(#clip2_54_3429)">
<path d="M26.6784 76.9968C26.304 76.9968 25.9968 77.304 25.9968 77.6784V80.2V83.4V86.6V89.8V93V96.2V98.7216C25.9968 99.096 26.3008 99.4032 26.6784 99.4032H47.7216C48.096 99.4032 48.4032 99.0992 48.4032 98.7216V96.2V93V89.8V86.6V83.4V80.2V77.6784C48.4032 77.304 48.0992 76.9968 47.7216 76.9968H26.6784ZM45.2 83.4V86.6V89.8V93V95.8096C45.2 96.0272 45.024 96.2 44.8096 96.2H29.5904C29.3728 96.2 29.2 96.024 29.2 95.8096V93V89.8V86.6V83.4V80.5904C29.2 80.3728 29.376 80.2 29.5904 80.2H44.8096C45.0272 80.2 45.2 80.376 45.2 80.5904V83.4Z" fill="#323232"/>
</g>
<path d="M41.9999 89.8V86.6V84.0784C41.9999 83.704 41.6959 83.3968 41.3183 83.3968H33.0783C32.7039 83.3968 32.3967 83.7008 32.3967 84.0784V86.6V89.8V92.3216C32.3967 92.696 32.7007 93.0032 33.0783 93.0032H41.3183C41.6927 93.0032 41.9999 92.6992 41.9999 92.3216V89.8Z" fill="#323232"/>
<g clip-path="url(#clip3_54_3429)">
<path d="M84.2785 76.9968C83.9041 76.9968 83.5969 77.304 83.5969 77.6784V80.2V83.4V86.6V89.8V93V96.2V98.7216C83.5969 99.096 83.9009 99.4032 84.2785 99.4032H105.322C105.696 99.4032 106.003 99.0992 106.003 98.7216V96.2V93V89.8V86.6V83.4V80.2V77.6784C106.003 77.304 105.699 76.9968 105.322 76.9968H84.2785ZM102.8 83.4V86.6V89.8V93V95.8096C102.8 96.0272 102.624 96.2 102.41 96.2H87.1905C86.9729 96.2 86.8001 96.024 86.8001 95.8096V93V89.8V86.6V83.4V80.5904C86.8001 80.3728 86.9761 80.2 87.1905 80.2H102.41C102.627 80.2 102.8 80.376 102.8 80.5904V83.4Z" fill="#323232"/>
</g>
<path d="M99.6 89.8V86.6V84.0784C99.6 83.704 99.296 83.3968 98.9184 83.3968H90.6784C90.304 83.3968 89.9968 83.7008 89.9968 84.0784V86.6V89.8V92.3216C89.9968 92.696 90.3008 93.0032 90.6784 93.0032H98.9184C99.2928 93.0032 99.6 92.6992 99.6 92.3216V89.8Z" fill="#323232"/>
<g clip-path="url(#clip4_54_3429)">
<path d="M26.6784 134.597C26.304 134.597 25.9968 134.904 25.9968 135.278V137.8V141V144.2V147.4V150.6V153.8V156.322C25.9968 156.696 26.3008 157.003 26.6784 157.003H47.7216C48.096 157.003 48.4032 156.699 48.4032 156.322V153.8V150.6V147.4V144.2V141V137.8V135.278C48.4032 134.904 48.0992 134.597 47.7216 134.597H26.6784ZM45.2 141V144.2V147.4V150.6V153.41C45.2 153.627 45.024 153.8 44.8096 153.8H29.5904C29.3728 153.8 29.2 153.624 29.2 153.41V150.6V147.4V144.2V141V138.19C29.2 137.973 29.376 137.8 29.5904 137.8H44.8096C45.0272 137.8 45.2 137.976 45.2 138.19V141Z" fill="#323232"/>
</g>
<path d="M41.9999 147.4V144.2V141.678C41.9999 141.304 41.6959 140.997 41.3183 140.997H33.0783C32.7039 140.997 32.3967 141.301 32.3967 141.678V144.2V147.4V149.922C32.3967 150.296 32.7007 150.603 33.0783 150.603H41.3183C41.6927 150.603 41.9999 150.299 41.9999 149.922V147.4Z" fill="#323232"/>
</g>
<path d="M223.445 110.168C223.445 111.708 222.172 112.955 220.597 112.955H127.407C125.833 112.955 124.556 111.708 124.556 110.168V87.9464C124.556 86.4076 125.833 85.1562 127.407 85.1562H220.596C222.172 85.1562 223.444 86.4076 223.444 87.9464L223.445 110.168Z" fill="#4D47C3"/>
<path d="M220.296 85.1898C222.011 85.1898 223.406 86.5503 223.406 88.2222V109.889C223.406 111.561 222.011 112.921 220.296 112.921H127.704C125.989 112.921 124.594 111.561 124.594 109.889V88.2222C124.594 86.5503 125.989 85.1898 127.704 85.1898H220.296ZM220.296 84.6111H127.704C125.668 84.6111 124 86.237 124 88.2222V109.889C124 111.874 125.668 113.5 127.704 113.5H220.296C222.332 113.5 224 111.874 224 109.889V88.2222C224 86.237 222.332 84.6111 220.296 84.6111Z" fill="#D1CBFF"/>
<path d="M146.317 98.8996C146.296 96.5718 148.272 95.4394 148.362 95.3867C147.243 93.7956 145.508 93.5782 144.899 93.5609C143.442 93.4114 142.028 94.4109 141.286 94.4109C140.529 94.4109 139.386 93.5753 138.154 93.5999C136.569 93.6237 135.086 94.5186 134.273 95.9081C132.594 98.7414 133.846 102.905 135.454 105.195C136.259 106.317 137.199 107.569 138.429 107.525C139.633 107.477 140.082 106.777 141.535 106.777C142.974 106.777 143.396 107.525 144.651 107.497C145.943 107.477 146.756 106.37 147.533 105.238C148.462 103.953 148.836 102.687 148.85 102.622C148.82 102.612 146.342 101.689 146.317 98.8996Z" fill="white"/>
<path d="M143.947 92.0543C144.594 91.2649 145.037 90.191 144.914 89.1012C143.977 89.1416 142.805 89.7331 142.13 90.5052C141.533 91.1855 141 92.3006 141.138 93.3493C142.19 93.4258 143.271 92.8314 143.947 92.0543Z" fill="white"/>
<path d="M160.333 91.8398C160.333 92.6899 160.072 93.3298 159.55 93.7595C159.066 94.156 158.378 94.3546 157.488 94.3546C157.047 94.3546 156.669 94.3358 156.353 94.2983V89.6537C156.765 89.5887 157.21 89.5555 157.69 89.5555C158.538 89.5555 159.177 89.7353 159.608 90.095C160.091 90.5016 160.333 91.083 160.333 91.8398ZM159.515 91.8608C159.515 91.3097 159.365 90.8872 159.066 90.5926C158.767 90.2986 158.33 90.1513 157.754 90.1513C157.51 90.1513 157.301 90.1672 157.129 90.2004V93.7313C157.224 93.7458 157.399 93.7523 157.653 93.7523C158.247 93.7523 158.706 93.5912 159.029 93.2691C159.352 92.947 159.515 92.4776 159.515 91.8608Z" fill="white"/>
<path d="M164.673 92.5823C164.673 93.1059 164.52 93.5349 164.213 93.8714C163.892 94.2174 163.466 94.39 162.934 94.39C162.421 94.39 162.013 94.2246 161.709 93.8924C161.405 93.5609 161.253 93.1427 161.253 92.6386C161.253 92.1114 161.409 91.6788 161.724 91.3429C162.038 91.0071 162.46 90.8388 162.992 90.8388C163.504 90.8388 163.916 91.0042 164.228 91.3357C164.524 91.6578 164.673 92.0738 164.673 92.5823ZM163.868 92.6068C163.868 92.2927 163.798 92.0233 163.66 91.7987C163.497 91.5271 163.265 91.3913 162.964 91.3913C162.652 91.3913 162.415 91.5271 162.252 91.7987C162.112 92.0233 162.044 92.297 162.044 92.6206C162.044 92.9347 162.113 93.2041 162.252 93.4287C162.42 93.7003 162.654 93.8361 162.956 93.8361C163.252 93.8361 163.485 93.6981 163.652 93.4215C163.796 93.1926 163.868 92.921 163.868 92.6068Z" fill="white"/>
<path d="M170.493 90.9082L169.4 94.3127H168.689L168.236 92.8343C168.121 92.4653 168.028 92.0984 167.956 91.7344H167.941C167.874 92.1085 167.781 92.4747 167.661 92.8343L167.18 94.3127H166.461L165.433 90.9082H166.231L166.626 92.5267C166.721 92.9095 166.8 93.2742 166.863 93.6194H166.877C166.935 93.3348 167.03 92.9723 167.165 92.5339L167.661 90.9089H168.293L168.768 92.4992C168.883 92.8871 168.976 93.2605 169.048 93.6201H169.07C169.122 93.2698 169.201 92.8965 169.307 92.4992L169.73 90.9089H170.493V90.9082Z" fill="white"/>
<path d="M174.517 94.3127H173.741V92.3627C173.741 91.7618 173.507 91.4614 173.037 91.4614C172.807 91.4614 172.621 91.5437 172.476 91.7091C172.333 91.8745 172.261 92.0695 172.261 92.2927V94.312H171.484V91.881C171.484 91.582 171.475 91.2577 171.456 90.9067H172.139L172.175 91.439H172.196C172.287 91.2736 172.421 91.1371 172.599 91.0281C172.809 90.9009 173.044 90.8367 173.302 90.8367C173.628 90.8367 173.899 90.9392 174.115 91.1451C174.383 91.3971 174.517 91.7734 174.517 92.2732V94.3127Z" fill="white"/>
<path d="M176.658 94.3127H175.882V89.346H176.658V94.3127Z" fill="white"/>
<path d="M181.228 92.5823C181.228 93.1059 181.075 93.5349 180.768 93.8714C180.447 94.2174 180.02 94.39 179.489 94.39C178.976 94.39 178.567 94.2246 178.264 93.8924C177.96 93.5609 177.808 93.1427 177.808 92.6386C177.808 92.1114 177.964 91.6788 178.278 91.3429C178.593 91.0071 179.015 90.8388 179.546 90.8388C180.059 90.8388 180.47 91.0042 180.783 91.3357C181.079 91.6578 181.228 92.0738 181.228 92.5823ZM180.422 92.6068C180.422 92.2927 180.353 92.0233 180.214 91.7987C180.052 91.5271 179.819 91.3913 179.518 91.3913C179.206 91.3913 178.969 91.5271 178.807 91.7987C178.667 92.0233 178.598 92.297 178.598 92.6206C178.598 92.9347 178.668 93.2041 178.807 93.4287C178.975 93.7003 179.209 93.8361 179.511 93.8361C179.807 93.8361 180.039 93.6981 180.207 93.4215C180.351 93.1926 180.422 92.921 180.422 92.6068Z" fill="white"/>
<path d="M184.985 94.3127H184.288L184.23 93.9206H184.209C183.97 94.2333 183.63 94.39 183.189 94.39C182.859 94.39 182.592 94.2867 182.392 94.0816C182.21 93.8953 182.118 93.6634 182.118 93.3883C182.118 92.9723 182.296 92.6552 182.654 92.4357C183.011 92.2161 183.513 92.1085 184.16 92.1136V92.05C184.16 91.6015 183.918 91.3776 183.435 91.3776C183.09 91.3776 182.787 91.4621 182.524 91.6297L182.367 91.1328C182.691 90.9371 183.092 90.8388 183.564 90.8388C184.477 90.8388 184.935 91.3083 184.935 92.2472V93.5009C184.935 93.8411 184.952 94.1119 184.985 94.3127ZM184.179 93.1427V92.6177C183.323 92.6032 182.895 92.8322 182.895 93.3038C182.895 93.4814 182.944 93.6143 183.044 93.7032C183.144 93.792 183.271 93.8361 183.423 93.8361C183.593 93.8361 183.752 93.7833 183.898 93.6786C184.044 93.5732 184.133 93.4396 184.167 93.2756C184.175 93.2388 184.179 93.194 184.179 93.1427Z" fill="white"/>
<path d="M189.396 94.3127H188.707L188.671 93.766H188.65C188.43 94.182 188.055 94.39 187.528 94.39C187.107 94.39 186.757 94.229 186.479 93.9068C186.202 93.5847 186.063 93.1666 186.063 92.6531C186.063 92.102 186.213 91.6557 186.516 91.3148C186.808 90.997 187.167 90.8381 187.593 90.8381C188.062 90.8381 188.39 90.992 188.577 91.3003H188.592V89.346H189.369V93.3955C189.369 93.727 189.378 94.0325 189.396 94.3127ZM188.592 92.877V92.3093C188.592 92.2111 188.584 92.1316 188.57 92.071C188.527 91.889 188.433 91.7358 188.29 91.6123C188.145 91.4888 187.971 91.4267 187.77 91.4267C187.481 91.4267 187.254 91.5387 187.087 91.7633C186.922 91.9879 186.839 92.2746 186.839 92.6249C186.839 92.9615 186.918 93.2345 187.077 93.4446C187.245 93.6685 187.472 93.7805 187.756 93.7805C188.01 93.7805 188.214 93.6873 188.369 93.5002C188.519 93.3276 188.592 93.1196 188.592 92.877Z" fill="white"/>
<path d="M196.035 92.5823C196.035 93.1059 195.882 93.5349 195.575 93.8714C195.254 94.2174 194.829 94.39 194.296 94.39C193.784 94.39 193.376 94.2246 193.071 93.8924C192.767 93.5609 192.615 93.1427 192.615 92.6386C192.615 92.1114 192.772 91.6788 193.086 91.3429C193.4 91.0071 193.822 90.8388 194.355 90.8388C194.867 90.8388 195.279 91.0042 195.59 91.3357C195.887 91.6578 196.035 92.0738 196.035 92.5823ZM195.231 92.6068C195.231 92.2927 195.161 92.0233 195.023 91.7987C194.859 91.5271 194.628 91.3913 194.326 91.3913C194.015 91.3913 193.778 91.5271 193.614 91.7987C193.475 92.0233 193.406 92.297 193.406 92.6206C193.406 92.9347 193.475 93.2041 193.614 93.4287C193.782 93.7003 194.016 93.8361 194.318 93.8361C194.615 93.8361 194.848 93.6981 195.015 93.4215C195.158 93.1926 195.231 92.921 195.231 92.6068Z" fill="white"/>
<path d="M200.21 94.3127H199.434V92.3627C199.434 91.7618 199.2 91.4614 198.73 91.4614C198.499 91.4614 198.313 91.5437 198.17 91.7091C198.026 91.8745 197.954 92.0695 197.954 92.2927V94.312H197.177V91.881C197.177 91.582 197.168 91.2577 197.15 90.9067H197.831L197.867 91.439H197.889C197.98 91.2736 198.115 91.1371 198.291 91.0281C198.502 90.9009 198.737 90.8367 198.996 90.8367C199.321 90.8367 199.592 90.9392 199.807 91.1451C200.076 91.3971 200.21 91.7734 200.21 92.2732V94.3127Z" fill="white"/>
<path d="M205.434 91.4751H204.579V93.129C204.579 93.5494 204.731 93.7595 205.032 93.7595C205.171 93.7595 205.287 93.748 205.378 93.7241L205.398 94.2983C205.244 94.3546 205.043 94.3828 204.795 94.3828C204.488 94.3828 204.25 94.2918 204.077 94.1098C203.904 93.9278 203.818 93.6216 203.818 93.1919V91.4751H203.307V90.9082H203.818V90.2842L204.578 90.0603V90.9075H205.433V91.4751H205.434Z" fill="white"/>
<path d="M209.544 94.3127H208.767V92.3772C208.767 91.7669 208.532 91.4614 208.064 91.4614C207.704 91.4614 207.458 91.6383 207.323 91.9922C207.3 92.0666 207.287 92.1576 207.287 92.2645V94.312H206.511V89.346H207.287V91.3978H207.301C207.546 91.0245 207.896 90.8381 208.35 90.8381C208.672 90.8381 208.938 90.9407 209.149 91.1465C209.412 91.4029 209.544 91.7842 209.544 92.2883V94.3127Z" fill="white"/>
<path d="M213.783 92.4494C213.783 92.5852 213.773 92.6993 213.754 92.7924H211.426C211.436 93.129 211.547 93.3854 211.763 93.5631C211.96 93.7219 212.214 93.8014 212.525 93.8014C212.87 93.8014 213.184 93.7479 213.467 93.6403L213.588 94.1661C213.257 94.3062 212.867 94.3763 212.416 94.3763C211.876 94.3763 211.45 94.221 211.141 93.9104C210.832 93.5999 210.678 93.1832 210.678 92.6603C210.678 92.1468 210.821 91.7192 211.11 91.3783C211.41 91.0143 211.817 90.8323 212.33 90.8323C212.833 90.8323 213.214 91.0143 213.472 91.3783C213.68 91.6672 213.783 92.0247 213.783 92.4494ZM213.042 92.2537C213.048 92.0291 212.997 91.8355 212.892 91.6723C212.757 91.4621 212.552 91.3567 212.274 91.3567C212.021 91.3567 211.814 91.4592 211.656 91.6651C211.527 91.829 211.451 92.0247 211.426 92.2537H213.042Z" fill="white"/>
<path d="M163.737 107.364H162.055L161.133 104.541H157.93L157.053 107.364H155.415L158.588 97.7527H160.548L163.737 107.364ZM160.856 103.356L160.022 100.847C159.934 100.59 159.769 99.9865 159.525 99.036H159.496C159.398 99.4448 159.242 100.049 159.027 100.847L158.209 103.356H160.856Z" fill="white"/>
<path d="M171.898 103.814C171.898 104.992 171.571 105.924 170.918 106.608C170.332 107.217 169.606 107.521 168.738 107.521C167.802 107.521 167.13 107.193 166.72 106.537H166.69V110.188H165.111V102.715C165.111 101.974 165.091 101.214 165.052 100.434H166.441L166.53 101.532H166.559C167.086 100.704 167.885 100.291 168.958 100.291C169.796 100.291 170.496 100.614 171.056 101.261C171.618 101.908 171.898 102.758 171.898 103.814ZM170.289 103.87C170.289 103.195 170.133 102.639 169.821 102.202C169.479 101.745 169.021 101.517 168.446 101.517C168.056 101.517 167.702 101.644 167.386 101.895C167.069 102.147 166.861 102.477 166.764 102.886C166.715 103.077 166.691 103.233 166.691 103.356V104.511C166.691 105.015 166.85 105.441 167.167 105.788C167.484 106.136 167.895 106.309 168.402 106.309C168.997 106.309 169.46 106.085 169.791 105.639C170.123 105.192 170.289 104.602 170.289 103.87Z" fill="white"/>
<path d="M180.073 103.814C180.073 104.992 179.747 105.924 179.092 106.608C178.508 107.217 177.781 107.521 176.914 107.521C175.978 107.521 175.305 107.193 174.896 106.537H174.867V110.188H173.287V102.715C173.287 101.974 173.267 101.214 173.229 100.434H174.618L174.706 101.532H174.735C175.261 100.704 176.061 100.291 177.134 100.291C177.972 100.291 178.672 100.614 179.233 101.261C179.792 101.908 180.073 102.758 180.073 103.814ZM178.464 103.87C178.464 103.195 178.308 102.639 177.995 102.202C177.654 101.745 177.197 101.517 176.621 101.517C176.231 101.517 175.878 101.644 175.561 101.895C175.244 102.147 175.037 102.477 174.94 102.886C174.892 103.077 174.867 103.233 174.867 103.356V104.511C174.867 105.015 175.025 105.441 175.341 105.788C175.658 106.135 176.07 106.309 176.578 106.309C177.172 106.309 177.635 106.085 177.967 105.639C178.298 105.192 178.464 104.602 178.464 103.87Z" fill="white"/>
<path d="M189.214 104.669C189.214 105.486 188.923 106.151 188.338 106.665C187.696 107.226 186.802 107.506 185.653 107.506C184.592 107.506 183.742 107.307 183.098 106.908L183.464 105.624C184.158 106.033 184.918 106.238 185.747 106.238C186.342 106.238 186.805 106.107 187.138 105.845C187.469 105.584 187.634 105.233 187.634 104.795C187.634 104.405 187.498 104.076 187.224 103.81C186.952 103.543 186.498 103.296 185.864 103.067C184.138 102.439 183.276 101.52 183.276 100.311C183.276 99.5207 183.578 98.8728 184.184 98.3687C184.787 97.8639 185.591 97.6118 186.597 97.6118C187.494 97.6118 188.239 97.7642 188.834 98.0683L188.439 99.3235C187.884 99.0288 187.255 98.8815 186.552 98.8815C185.997 98.8815 185.563 99.0151 185.252 99.2809C184.989 99.5185 184.857 99.8081 184.857 100.151C184.857 100.531 185.007 100.845 185.31 101.092C185.572 101.32 186.05 101.567 186.744 101.834C187.592 102.167 188.215 102.556 188.615 103.003C189.015 103.447 189.214 104.004 189.214 104.669Z" fill="white"/>
<path d="M194.436 101.589H192.695V104.954C192.695 105.81 193.002 106.237 193.616 106.237C193.899 106.237 194.133 106.214 194.318 106.166L194.362 107.335C194.05 107.449 193.641 107.506 193.133 107.506C192.51 107.506 192.022 107.32 191.67 106.949C191.32 106.578 191.144 105.956 191.144 105.081V101.588H190.107V100.432H191.144V99.1632L192.695 98.7067V100.432H194.436V101.589Z" fill="white"/>
<path d="M202.29 103.842C202.29 104.907 201.977 105.782 201.353 106.466C200.699 107.17 199.831 107.521 198.749 107.521C197.706 107.521 196.876 107.183 196.256 106.509C195.637 105.834 195.327 104.983 195.327 103.957C195.327 102.883 195.646 102.003 196.285 101.319C196.923 100.634 197.784 100.292 198.866 100.292C199.909 100.292 200.748 100.629 201.381 101.305C201.987 101.96 202.29 102.805 202.29 103.842ZM200.651 103.892C200.651 103.252 200.511 102.704 200.227 102.247C199.896 101.694 199.423 101.418 198.81 101.418C198.175 101.418 197.693 101.695 197.361 102.247C197.078 102.705 196.938 103.262 196.938 103.92C196.938 104.56 197.078 105.108 197.361 105.564C197.703 106.117 198.18 106.393 198.796 106.393C199.399 106.393 199.872 106.112 200.213 105.55C200.504 105.084 200.651 104.53 200.651 103.892Z" fill="white"/>
<path d="M207.423 101.788C207.267 101.76 207.1 101.745 206.925 101.745C206.37 101.745 205.94 101.95 205.638 102.359C205.375 102.72 205.243 103.177 205.243 103.728V107.364H203.664L203.679 102.616C203.679 101.817 203.659 101.09 203.62 100.434H204.995L205.053 101.76H205.097C205.264 101.305 205.527 100.938 205.887 100.663C206.238 100.415 206.618 100.291 207.028 100.291C207.174 100.291 207.306 100.301 207.423 100.319V101.788Z" fill="white"/>
<path d="M214.486 103.571C214.486 103.847 214.467 104.079 214.428 104.269H209.69C209.709 104.954 209.938 105.478 210.378 105.839C210.777 106.162 211.293 106.323 211.927 106.323C212.629 106.323 213.269 106.214 213.844 105.995L214.092 107.064C213.419 107.35 212.625 107.493 211.709 107.493C210.607 107.493 209.742 107.176 209.112 106.544C208.484 105.912 208.169 105.064 208.169 103.999C208.169 102.954 208.462 102.084 209.047 101.39C209.661 100.649 210.49 100.278 211.533 100.278C212.557 100.278 213.333 100.649 213.859 101.39C214.276 101.978 214.486 102.706 214.486 103.571ZM212.98 103.172C212.99 102.715 212.887 102.321 212.673 101.988C212.4 101.56 211.98 101.346 211.415 101.346C210.899 101.346 210.479 101.554 210.158 101.973C209.895 102.306 209.739 102.706 209.69 103.171H212.98V103.172Z" fill="white"/>
<path d="M220.296 148.389H127.704C125.668 148.389 124 146.763 124 144.778V123.111C124 121.126 125.668 119.5 127.704 119.5H220.296C222.332 119.5 224 121.126 224 123.111V144.778C224 146.763 222.332 148.389 220.296 148.389Z" fill="#4D47C3"/>
<path d="M220.296 120.079C222.011 120.079 223.406 121.439 223.406 123.111V144.778C223.406 146.45 222.011 147.81 220.296 147.81H127.704C125.989 147.81 124.594 146.45 124.594 144.778V123.111C124.594 121.439 125.989 120.079 127.704 120.079H220.296ZM220.296 119.5H127.704C125.668 119.5 124 121.126 124 123.111V144.778C124 146.763 125.668 148.389 127.704 148.389H220.296C222.332 148.389 224 146.763 224 144.778V123.111C224 121.126 222.332 119.5 220.296 119.5Z" fill="#D1CBFF"/>
<path d="M131.73 124.945C131.512 125.167 131.386 125.512 131.386 125.96V141.932C131.386 142.38 131.512 142.726 131.73 142.948L131.783 142.997L140.963 134.05V133.839L131.783 124.892L131.73 124.945Z" fill="url(#paint0_linear_54_3429)"/>
<path d="M144.02 137.034L140.963 134.05V133.839L144.023 130.855L144.092 130.894L147.716 132.904C148.75 133.475 148.75 134.414 147.716 134.988L144.092 136.995L144.02 137.034Z" fill="url(#paint1_linear_54_3429)"/>
<path d="M144.092 136.995L140.963 133.944L131.73 142.948C132.073 143.3 132.633 143.342 133.27 142.99L144.092 136.995Z" fill="url(#paint2_linear_54_3429)"/>
<path d="M144.092 130.894L133.27 124.899C132.633 124.55 132.073 124.593 131.73 124.945L140.963 133.944L144.092 130.894Z" fill="url(#paint3_linear_54_3429)"/>
<path d="M159.124 126.898C159.124 127.501 158.939 127.984 158.574 128.345C158.155 128.772 157.608 128.986 156.939 128.986C156.299 128.986 155.753 128.768 155.305 128.337C154.856 127.9 154.632 127.364 154.632 126.722C154.632 126.08 154.856 125.544 155.305 125.111C155.753 124.677 156.299 124.458 156.939 124.458C157.258 124.458 157.561 124.522 157.851 124.641C158.14 124.761 158.375 124.924 158.545 125.124L158.158 125.505C157.861 125.163 157.457 124.994 156.939 124.994C156.472 124.994 156.068 125.153 155.724 125.474C155.384 125.795 155.214 126.211 155.214 126.722C155.214 127.233 155.384 127.653 155.724 127.974C156.068 128.291 156.472 128.454 156.939 128.454C157.434 128.454 157.851 128.291 158.18 127.971C158.396 127.759 158.52 127.466 158.552 127.092H156.939V126.571H159.091C159.117 126.683 159.124 126.793 159.124 126.898Z" fill="white" stroke="white" stroke-width="0.16" stroke-miterlimit="10"/>
<path d="M162.538 125.089H160.517V126.461H162.339V126.983H160.517V128.355H162.538V128.887H159.945V124.557H162.538V125.089Z" fill="white" stroke="white" stroke-width="0.16" stroke-miterlimit="10"/>
<path d="M164.947 128.887H164.375V125.089H163.135V124.557H166.188V125.089H164.947V128.887Z" fill="white" stroke="white" stroke-width="0.16" stroke-miterlimit="10"/>
<path d="M168.397 128.887V124.557H168.969V128.887H168.397Z" fill="white" stroke="white" stroke-width="0.16" stroke-miterlimit="10"/>
<path d="M171.501 128.887H170.933V125.089H169.689V124.557H172.745V125.089H171.501V128.887Z" fill="white" stroke="white" stroke-width="0.16" stroke-miterlimit="10"/>
<path d="M178.525 128.33C178.087 128.768 177.545 128.986 176.897 128.986C176.247 128.986 175.704 128.768 175.266 128.33C174.829 127.893 174.611 127.357 174.611 126.722C174.611 126.088 174.829 125.551 175.266 125.114C175.704 124.677 176.247 124.458 176.897 124.458C177.541 124.458 178.084 124.677 178.522 125.118C178.962 125.559 179.18 126.091 179.18 126.722C179.18 127.357 178.962 127.893 178.525 128.33ZM175.689 127.967C176.019 128.291 176.42 128.454 176.897 128.454C177.372 128.454 177.776 128.291 178.102 127.967C178.431 127.643 178.597 127.227 178.597 126.722C178.597 126.218 178.431 125.801 178.102 125.477C177.776 125.153 177.372 124.991 176.897 124.991C176.42 124.991 176.019 125.153 175.689 125.477C175.36 125.801 175.194 126.218 175.194 126.722C175.194 127.227 175.36 127.643 175.689 127.967Z" fill="white" stroke="white" stroke-width="0.16" stroke-miterlimit="10"/>
<path d="M179.982 128.887V124.557H180.677L182.836 127.925H182.861L182.836 127.092V124.557H183.407V128.887H182.811L180.55 125.354H180.525L180.55 126.19V128.887H179.982Z" fill="white" stroke="white" stroke-width="0.16" stroke-miterlimit="10"/>
<path d="M174.47 135.21C172.73 135.21 171.309 136.501 171.309 138.282C171.309 140.049 172.73 141.354 174.47 141.354C176.214 141.354 177.635 140.049 177.635 138.282C177.635 136.501 176.214 135.21 174.47 135.21ZM174.47 140.144C173.516 140.144 172.694 139.376 172.694 138.282C172.694 137.175 173.516 136.42 174.47 136.42C175.425 136.42 176.25 137.175 176.25 138.282C176.25 139.376 175.425 140.144 174.47 140.144ZM167.573 135.21C165.83 135.21 164.412 136.501 164.412 138.282C164.412 140.049 165.83 141.354 167.573 141.354C169.316 141.354 170.734 140.049 170.734 138.282C170.734 136.501 169.316 135.21 167.573 135.21ZM167.573 140.144C166.617 140.144 165.793 139.376 165.793 138.282C165.793 137.175 166.617 136.42 167.573 136.42C168.528 136.42 169.349 137.175 169.349 138.282C169.349 139.376 168.528 140.144 167.573 140.144ZM159.366 136.152V137.457H162.563C162.469 138.187 162.219 138.723 161.836 139.097C161.369 139.548 160.642 140.049 159.366 140.049C157.398 140.049 155.857 138.501 155.857 136.582C155.857 134.664 157.398 133.116 159.366 133.116C160.43 133.116 161.204 133.521 161.775 134.046L162.718 133.127C161.919 132.383 160.856 131.811 159.366 131.811C156.667 131.811 154.4 133.952 154.4 136.582C154.4 139.213 156.667 141.354 159.366 141.354C160.824 141.354 161.919 140.888 162.78 140.014C163.663 139.153 163.938 137.944 163.938 136.967C163.938 136.664 163.912 136.385 163.866 136.152H159.366ZM192.927 137.164C192.667 136.477 191.864 135.21 190.229 135.21C188.608 135.21 187.259 136.455 187.259 138.282C187.259 140.003 188.594 141.354 190.384 141.354C191.831 141.354 192.667 140.493 193.01 139.992L191.936 139.294C191.578 139.805 191.09 140.144 190.384 140.144C189.683 140.144 189.18 139.831 188.858 139.213L193.072 137.513L192.927 137.164ZM188.63 138.187C188.594 137.002 189.574 136.396 190.276 136.396C190.826 136.396 191.292 136.664 191.448 137.047L188.63 138.187ZM185.205 141.167H186.591V132.139H185.205V141.167ZM182.937 135.894H182.891C182.58 135.535 181.986 135.21 181.234 135.21C179.656 135.21 178.214 136.561 178.214 138.292C178.214 140.014 179.656 141.354 181.234 141.354C181.986 141.354 182.58 141.026 182.891 140.656H182.937V141.096C182.937 142.271 182.293 142.902 181.255 142.902C180.409 142.902 179.884 142.306 179.667 141.805L178.463 142.295C178.81 143.109 179.73 144.112 181.255 144.112C182.88 144.112 184.25 143.18 184.25 140.913V135.397H182.937V135.894ZM181.353 140.144C180.398 140.144 179.599 139.365 179.599 138.292C179.599 137.21 180.398 136.42 181.353 136.42C182.293 136.42 183.035 137.21 183.035 138.292C183.035 139.365 182.293 140.144 181.353 140.144ZM199.412 132.139H196.099V141.167H197.48V137.746H199.412C200.946 137.746 202.451 136.664 202.451 134.942C202.451 133.221 200.942 132.139 199.412 132.139ZM199.448 136.49H197.48V133.395H199.448C200.48 133.395 201.068 134.23 201.068 134.942C201.068 135.641 200.48 136.49 199.448 136.49ZM207.988 135.193C206.99 135.193 205.952 135.623 205.525 136.575L206.751 137.076C207.015 136.575 207.5 136.413 208.013 136.413C208.73 136.413 209.456 136.832 209.467 137.574V137.668C209.217 137.528 208.682 137.319 208.024 137.319C206.704 137.319 205.358 138.028 205.358 139.35C205.358 140.56 206.44 141.339 207.655 141.339C208.585 141.339 209.098 140.93 209.42 140.454H209.467V141.152H210.802V137.689C210.802 136.089 209.576 135.193 207.988 135.193ZM207.821 140.14C207.369 140.14 206.74 139.922 206.74 139.376C206.74 138.677 207.525 138.409 208.205 138.409C208.813 138.409 209.098 138.54 209.467 138.712C209.359 139.548 208.621 140.14 207.821 140.14ZM215.663 135.391L214.075 139.304H214.028L212.386 135.391H210.896L213.363 140.86L211.955 143.903H213.399L217.2 135.391H215.663ZM203.21 141.167H204.595V132.139H203.21V141.167Z" fill="white"/>
</g>
<defs>
<linearGradient id="paint0_linear_54_3429" x1="140.148" y1="142.099" x2="128.031" y2="129.671" gradientUnits="userSpaceOnUse">
<stop stop-color="#00A0FF"/>
<stop offset="0.0066" stop-color="#00A1FF"/>
<stop offset="0.2601" stop-color="#00BEFF"/>
<stop offset="0.5122" stop-color="#00D2FF"/>
<stop offset="0.7604" stop-color="#00DFFF"/>
<stop offset="1" stop-color="#00E3FF"/>
</linearGradient>
<linearGradient id="paint1_linear_54_3429" x1="149.063" y1="133.943" x2="131.139" y2="133.943" gradientUnits="userSpaceOnUse">
<stop stop-color="#FFE000"/>
<stop offset="0.4087" stop-color="#FFBD00"/>
<stop offset="0.7754" stop-color="#FFA500"/>
<stop offset="1" stop-color="#FF9C00"/>
</linearGradient>
<linearGradient id="paint2_linear_54_3429" x1="142.39" y1="132.286" x2="125.959" y2="115.434" gradientUnits="userSpaceOnUse">
<stop stop-color="#FF3A44"/>
<stop offset="1" stop-color="#C31162"/>
</linearGradient>
<linearGradient id="paint3_linear_54_3429" x1="129.406" y1="148.262" x2="136.743" y2="140.736" gradientUnits="userSpaceOnUse">
<stop stop-color="#32A071"/>
<stop offset="0.0685" stop-color="#2DA771"/>
<stop offset="0.4762" stop-color="#15CF74"/>
<stop offset="0.8009" stop-color="#06E775"/>
<stop offset="1" stop-color="#00F076"/>
</linearGradient>
<clipPath id="clip0_54_3429">
<rect width="216" height="143" fill="white" transform="translate(12 45)"/>
</clipPath>
<clipPath id="clip1_54_3429">
<rect x="16" y="67" width="100" height="100" rx="8" fill="white"/>
</clipPath>
<clipPath id="clip2_54_3429">
<rect width="22.4" height="22.4" fill="white" transform="translate(26 77)"/>
</clipPath>
<clipPath id="clip3_54_3429">
<rect width="22.4" height="22.4" fill="white" transform="translate(83.6001 77)"/>
</clipPath>
<clipPath id="clip4_54_3429">
<rect width="22.4" height="22.4" fill="white" transform="translate(26 134.6)"/>
</clipPath>
</defs>
</svg>
