<svg width="44" height="44" viewBox="0 0 44 44" fill="none" xmlns="http://www.w3.org/2000/svg">
<circle cx="20" cy="20" r="21" transform="matrix(-1 0 0 1 42 2)" fill="white" stroke="#4D47C3" stroke-width="2"/>
<path d="M17 18.7002L23.1146 12.5855C23.4898 12.2105 23.9986 11.9999 24.5291 12C25.0596 12.0001 25.5683 12.211 25.9433 12.5862C26.3183 12.9614 26.5289 13.4702 26.5288 14.0006C26.5287 14.5311 26.3178 15.0398 25.9426 15.4148L19.828 21.5282C19.7659 21.5901 19.7166 21.6637 19.683 21.7447C19.6494 21.8257 19.6321 21.9125 19.6321 22.0002C19.6321 22.0879 19.6494 22.1747 19.683 22.2557C19.7166 22.3367 19.7659 22.4102 19.828 22.4722L25.9426 28.5855C26.3178 28.9605 26.5287 29.4692 26.5288 29.9997C26.5289 30.5302 26.3183 31.039 25.9433 31.4142C25.5683 31.7894 25.0596 32.0002 24.5291 32.0003C23.9986 32.0005 23.4898 31.7899 23.1146 31.4148L17 25.3002C16.1263 24.4241 15.6357 23.2374 15.6357 22.0002C15.6357 20.763 16.1263 19.5762 17 18.7002Z" fill="#4D47C3"/>
</svg>
