<svg width="44" height="44" viewBox="0 0 44 44" fill="none" xmlns="http://www.w3.org/2000/svg">
<circle cx="22" cy="22" r="21" fill="white" stroke="#4D47C3" stroke-width="2"/>
<path d="M27 18.7002L20.8854 12.5855C20.5102 12.2105 20.0014 11.9999 19.4709 12C18.9404 12.0001 18.4317 12.211 18.0567 12.5862C17.6817 12.9614 17.4711 13.4702 17.4712 14.0006C17.4713 14.5311 17.6822 15.0398 18.0574 15.4148L24.172 21.5282C24.2341 21.5901 24.2834 21.6637 24.317 21.7447C24.3506 21.8257 24.3679 21.9125 24.3679 22.0002C24.3679 22.0879 24.3506 22.1747 24.317 22.2557C24.2834 22.3367 24.2341 22.4102 24.172 22.4722L18.0574 28.5855C17.6822 28.9605 17.4713 29.4692 17.4712 29.9997C17.4711 30.5302 17.6817 31.039 18.0567 31.4142C18.4317 31.7894 18.9404 32.0002 19.4709 32.0003C20.0014 32.0005 20.5102 31.7899 20.8854 31.4148L27 25.3002C27.8737 24.4241 28.3643 23.2374 28.3643 22.0002C28.3643 20.763 27.8737 19.5762 27 18.7002Z" fill="#4D47C3"/>
</svg>
